#N canvas 465 190 626 455 12;
#X declare -lib ofelia;
#X obj 9 10 cnv 15 600 60 empty empty empty 20 12 0 14 -233017 -66577
0;
#X obj 462 45 declare -lib ofelia;
#X obj 406 19 gl.window 500 500 30 create;
#X obj 32 116 gl.dragged;
#X text 24 40 Arguments: draw-order \, enable;
#X obj 99 152 print positionXY;
#X obj 32 179 print FileDragged;
#X text 25 20 Get informations from dragged files on screen;
#X text 32 88 Drag a file on gl.window and check the console;
#X connect 3 0 6 0;
#X connect 3 1 5 0;
