#N canvas 611 91 637 532 12;
#X declare -lib ofelia;
#X obj 9 10 cnv 15 600 60 empty empty empty 20 12 0 14 -233017 -66577
0;
#X obj 34 249 gl.box 100 100 100 5 5 5;
#X obj 462 45 declare -lib ofelia;
#X obj 406 19 gl.window 500 500 30 create;
#X text 16 291 Depth 0 mode: Don't care about Depth \, only arguments
execution order priority matters:, f 86;
#X text 192 134 -> rendering priority set by draw order;
#X text 193 122 depthTest "Off": Easier for 2d;
#X text 190 103 -> rendering priority set by Z-position;
#N canvas 201 512 484 231 GUI_ON_SCREEN 0;
#X obj 27 144 gl.rectangle;
#X obj 215 103 gl.camera, f 30;
#X obj 27 48 spigot;
#X obj 244 33 tgl 15 0 empty empty activateme 17 7 0 10 -262144 -1
-1 0 1;
#X obj 26 192 gl.text GUI center;
#X obj 27 117 gl.color 0 0 0 100;
#X obj 244 11 inlet;
#X floatatom 387 71 5 0 0 2 rotY - -;
#X obj 387 19 inlet;
#X obj 27 12 gl.draw 1001 0;
#X obj 27 168 gl.color 255 255 255 255;
#X obj 27 75 gl.translate 100 100 0;
#X text 137 11 > 1000;
#X connect 0 0 10 0;
#X connect 2 0 11 0;
#X connect 3 0 2 1;
#X connect 5 0 0 0;
#X connect 6 0 3 0;
#X connect 7 0 1 5;
#X connect 8 0 7 0;
#X connect 9 0 2 0;
#X connect 10 0 4 0;
#X connect 11 0 5 0;
#X restore 455 254 pd GUI_ON_SCREEN;
#X obj 455 232 tgl 15 0 empty empty ActivateGUI 17 7 0 10 -262144 -1
-1 0 1;
#X msg 49 127 0;
#X floatatom 34 88 5 0 0 2 Draw-Order - -;
#X msg 115 125 depth \$1;
#X obj 115 102 tgl 15 0 empty empty empty 17 7 0 10 -262144 -1 -1 0
1;
#X text 47 109 disable;
#X floatatom 564 231 5 0 0 2 rotY - -;
#X obj 12 316 cnv 15 200 200 empty empty empty 20 12 0 14 -258113 -66577
0;
#X text 69 382 Red;
#X obj 47 458 gl.rectangle 200 200;
#X obj 47 408 gl.color 255 0 0 127;
#X obj 47 433 gl.translate -100 -50;
#X obj 213 315 cnv 15 200 200 empty empty empty 20 12 0 14 -23169 -66577
0;
#X text 239 382 Green;
#X obj 237 408 gl.color 0 255 0 127;
#X obj 237 434 gl.translate 0;
#X obj 237 458 gl.rectangle 200 200;
#X obj 414 315 cnv 15 200 200 empty empty empty 20 12 0 14 -18560 -66577
0;
#X text 439 382 Blue;
#X obj 427 408 gl.color 0 0 255 127;
#X obj 427 458 gl.rectangle 200 200;
#X obj 427 433 gl.translate 100 50;
#X text 190 91 depthTest "On" (default): Better for 3d;
#X text 192 159 Note: default order is 1 If order < 0 : Rendering is
out of camera and point 0 \, 0 \, 0 is bottom left. if order > 1000
: Rendering is out of camera on TOP (Nice for rendering GUI on screen)
, f 65;
#X text 21 22 Start a new rendering with layering (order) at center
;
#X obj 47 358 gl.draw 1 0;
#X obj 237 358 gl.draw 2 0;
#X obj 427 358 gl.draw 3 0;
#X obj 34 178 gl.draw 4;
#X text 21 47 Arguments: draw-order \, depthtest;
#X obj 34 225 gl.image data/rgb.jpg;
#X text 44 330 Order 1 \, depth 0;
#X text 236 328 Order 2 \, depth 0;
#X text 426 331 Order 3 \, depth 0;
#X connect 9 0 8 0;
#X connect 10 0 37 0;
#X connect 11 0 37 0;
#X connect 12 0 37 0;
#X connect 13 0 12 0;
#X connect 15 0 8 1;
#X connect 19 0 20 0;
#X connect 20 0 18 0;
#X connect 23 0 24 0;
#X connect 24 0 25 0;
#X connect 28 0 30 0;
#X connect 30 0 29 0;
#X connect 34 0 19 0;
#X connect 35 0 23 0;
#X connect 36 0 28 0;
#X connect 37 0 39 0;
#X connect 39 0 1 0;
