#N canvas 577 89 703 594 12;
#X declare -lib ofelia;
#X obj 9 10 cnv 15 600 60 empty empty empty 20 12 0 14 -233017 -66577
0;
#X obj 9 80 cnv 15 600 500 empty empty empty 20 12 0 14 -233017 -66577
0;
#X text 26 29 Make a new gl window context;
#X obj 461 41 declare -lib ofelia;
#X text 26 49 Arguments: width \, height \, framerate \, autostart
;
#X obj 26 508 gl.light;
#X floatatom 181 118 5 0 0 0 - - -;
#X msg 58 180 active \$1;
#X obj 58 157 tgl 15 0 empty empty empty 17 7 0 10 -262144 -1 -1 0
1;
#X msg 57 230 set point;
#X msg 182 191 orientation 0 \$1 0;
#X floatatom 182 168 5 0 0 0 - - -;
#X msg 57 250 set directional;
#X msg 57 270 set spot;
#X obj 327 319 gl.translate -100 0 0;
#X obj 327 347 gl.material 1;
#X obj 327 445 gl.material 0;
#X msg 461 133 cutoff \$1;
#X floatatom 461 110 5 0 0 0 - - -;
#X floatatom 461 156 5 0 127 0 - - -;
#X msg 461 179 spotconcentration \$1;
#X floatatom 461 200 5 0 10 0 - - -;
#X msg 461 223 attenuation \$1;
#X msg 54 419 debug \$1;
#X obj 327 475 gl.sphere 100 30;
#X obj 328 530 gl.material 1;
#X obj 328 507 gl.draw;
#X obj 26 124 gl.draw;
#X obj 54 397 tgl 15 0 empty empty empty 17 7 0 10 -262144 -1 -1 0
1;
#X obj 174 354 tgl 15 0 empty empty empty 17 7 0 10 -262144 -1 -1 1
1;
#X msg 174 380 smooth \$1;
#X msg 497 329 shininess \$1;
#X floatatom 499 310 5 0 0 0 - - -;
#X msg 57 290 set area;
#X msg 56 352 areasize \$1 100;
#X floatatom 57 326 5 0 127 0 - - -;
#X obj 461 252 s tolight;
#X obj 105 469 r tolight;
#X obj 327 419 gl.translate 200 0 0;
#X obj 182 215 s tolight;
#X msg 499 406 specular 0 0 1;
#X text 171 268 Colors;
#X msg 499 426 shininess 1;
#X text 224 167 Not active with point light;
#X text 224 117 Not active with directional light;
#X text 460 86 Size;
#X text 179 91 Transformation;
#X text 74 212 Type;
#X msg 502 474 shininess \$1;
#X floatatom 504 455 5 0 0 0 - - -;
#X obj 443 504 loadbang;
#X msg 345 32 lighting \$1;
#X obj 345 13 tgl 15 0 empty empty empty 17 7 0 10 -262144 -1 -1 0
1;
#X msg 499 386 diffuse 1 0 0 1;
#X msg 499 366 ambient 0.5 0.5 0.5;
#X msg 170 308 diffuse 0.6 0.2 0.3;
#X msg 170 328 specular 0.5 0.5 0.5;
#X msg 170 288 ambient 0.4 0.5 0.3;
#X obj 327 376 gl.sphere 100 30 line 2;
#X msg 181 141 position 0 0 \$1;
#X obj 443 18 gl.window 640 480 30 create;
#X obj 327 291 gl.draw;
#X msg 442 530 position 0 0 -400;
#X obj 328 551 gl.plane 400 400 100 100;
#X text 192 350 light smothing (default 1), f 14;
#X connect 6 0 59 0;
#X connect 7 0 5 0;
#X connect 8 0 7 0;
#X connect 9 0 5 0;
#X connect 10 0 39 0;
#X connect 11 0 10 0;
#X connect 12 0 5 0;
#X connect 13 0 5 0;
#X connect 14 0 15 0;
#X connect 15 0 58 0;
#X connect 16 0 24 0;
#X connect 17 0 36 0;
#X connect 18 0 17 0;
#X connect 19 0 20 0;
#X connect 20 0 36 0;
#X connect 21 0 22 0;
#X connect 22 0 36 0;
#X connect 23 0 5 0;
#X connect 25 0 63 0;
#X connect 26 0 25 0;
#X connect 27 0 5 0;
#X connect 28 0 23 0;
#X connect 29 0 30 0;
#X connect 30 0 5 0;
#X connect 31 0 15 0;
#X connect 32 0 31 0;
#X connect 33 0 5 0;
#X connect 34 0 5 0;
#X connect 35 0 34 0;
#X connect 37 0 5 0;
#X connect 38 0 16 0;
#X connect 40 0 16 0;
#X connect 42 0 16 0;
#X connect 48 0 16 0;
#X connect 49 0 48 0;
#X connect 50 0 62 0;
#X connect 51 0 60 0;
#X connect 52 0 51 0;
#X connect 53 0 16 0;
#X connect 54 0 16 0;
#X connect 55 0 5 0;
#X connect 56 0 5 0;
#X connect 57 0 5 0;
#X connect 58 0 38 0;
#X connect 59 0 39 0;
#X connect 61 0 14 0;
#X connect 62 0 63 0;
