#N canvas 187 107 803 637 12;
#X obj 27 20 inlet;
#X obj 58 541 outlet;
#X obj 26 515 t a a;
#X obj 231 497 ofelia f \; local c = require("material-\$0") \; a.material\$0:setAmbientColor(ofFloatColor(0.5
\, 0.5 \, 0.5)) \;;
#X f 99;
#X obj 26 570 ofelia f \; ofMaterial():endMaterial() \;;
#X f 99;
#X obj 27 57 ofelia d material-\$0 \; \; local c = ofCanvas(this) \;
material\$0 = ofMaterial() \; local args = c:getArgs() \; local active
\, set \, ambient \, diffuse \, specular = args[1] \, args[2] \, args[3]
\, args[4] \, args[5] \; local ambient \, diffuse \, specular \, shininess
= ofFloatColor(0.5 \, 0.5 \, 0.5) \, ofFloatColor(0.5 \, 0.5 \, 0.5
\, 1) \, ofFloatColor(0.5 \, 0.5 \, 0.5) \, 0.5 \; \; function M.new()
\; ofWindow.addListener("setup" \, this) \; if args[1] == nil then
shininess = 0.5 end \; end \; function M.free() \; ofWindow.removeListener("setup"
\, this) \; end \; \; function M.setup() \; end \; function M.ambient(l)
ambient = ofFloatColor(l[1] \, l[2] \, l[3]) end \; function M.diffuse(l)
diffuse = ofFloatColor(l[1] \, l[2] \, l[3] \, l[4]) end \; function
M.specular(l) specular = ofFloatColor(l[1] \, l[2] \, l[3]) end \;
function M.shininess(float) shininess = float end \; \; \; function
M.bang() \; material\$0:beginMaterial() \; material\$0:setAmbientColor(ambient)
\; material\$0:setDiffuseColor(diffuse) \; material\$0:setSpecularColor(specular)
\; material\$0:setShininess(shininess) \; return(anything) \; end \;
;
#X f 95;
#X connect 0 0 5 0;
#X connect 2 0 4 0;
#X connect 2 1 1 0;
#X connect 5 0 2 0;
