#N canvas 521 280 637 329 12;
#X declare -lib ofelia;
#X obj 9 10 cnv 15 600 60 empty empty empty 20 12 0 14 -233017 -66577
0;
#X obj 462 45 declare -lib ofelia;
#X obj 406 19 gl.window 500 500 30 create;
#X obj 378 131 gl.draw;
#X text 21 29 Mouse position in world / screen mode;
#X obj 378 235 gl.plane;
#X obj 448 157 gl.mouse, f 18;
#X msg 448 189 position \$1 \$2 0;
#X obj 51 125 gl.mouse, f 18;
#X floatatom 174 167 5 0 0 0 - - -;
#X text 217 165 1 = left clic;
#X text 217 175 2 = middle clic;
#X text 217 185 3 = right clic;
#X floatatom 51 208 5 0 0 1 X - -;
#X floatatom 118 207 5 0 0 1 Y - -;
#X obj 51 166 unpack 0 0;
#X text 59 145 XY;
#X text 21 47 Arguments: draw-order \, enable;
#X connect 3 0 5 0;
#X connect 6 0 7 0;
#X connect 7 0 5 0;
#X connect 8 0 15 0;
#X connect 8 1 9 0;
#X connect 15 0 13 0;
#X connect 15 1 14 0;
