#N canvas 542 41 622 641 12;
#X declare -lib ofelia;
#X obj 9 10 cnv 15 600 60 empty empty empty 20 12 0 14 -233017 -66577
0;
#X obj 17 91 gl.draw;
#X obj 462 45 declare -lib ofelia;
#X obj 406 19 gl.window 500 500 30 create;
#X text 283 302 style;
#X obj 17 589 gl.path, f 37;
#X msg 286 197 circle 0 0 0 200;
#X msg 46 185 clear;
#X msg 286 433 lineto -100 300 0;
#X msg 286 339 color 255 55 0;
#X msg 286 359 strokecolor 5 140 130;
#X msg 46 275 outline;
#X msg 47 395 circleresolution 10;
#X obj 17 144 gl.rotate;
#X floatatom 57 124 5 0 0 1 Rotation - -;
#X msg 46 205 close;
#X msg 286 379 fillcolor 105 14 190;
#X msg 47 375 filled \$1;
#X msg 286 237 triangle 0 100 100 0 -100 0;
#X msg 286 453 curveto -100 300 0;
#X msg 286 473 bezierto -100 300 0 200 20 10;
#X msg 286 277 arcnegative 0 0 0 100 100 10 20 100 60;
#X msg 286 217 ellipse 20 40 0 50 200;
#X msg 286 177 rectangle 30 20 0 100 100;
#X msg 286 157 rectrounded -100 -50 0 100 100 10 20 100 60;
#X msg 285 319 stroke 10;
#X msg 46 245 append;
#X msg 46 225 newsubpath;
#X obj 47 357 tgl 15 0 empty empty empty 17 7 0 10 -262144 -1 -1 0
1;
#X msg 453 349 useshapecolor \$1;
#X obj 453 329 tgl 15 0 empty empty empty 17 7 0 10 -262144 -1 -1 0
1;
#X msg 124 241 simplify 6;
#X msg 124 261 tessellate 3;
#X msg 286 493 quadbezierto -100 300 0 -100 0 10 200 20 20;
#X msg 286 413 moveto 0 0 0;
#X msg 124 221 scale 2 2 2;
#X msg 46 335 mode \$1;
#X msg 124 181 orientation 0 0 360;
#X msg 286 257 arc 0 -50 0 40 100 40 20 10 90;
#N canvas 683 367 450 300 draw_with_mouse 0;
#X obj 57 59 gl.mouse;
#X obj 57 132 spigot;
#X obj 57 205 outlet;
#X text 188 112 on click \, draw a new shape;
#X obj 110 88 t a a;
#X msg 142 137 close;
#X obj 142 112 sel 0;
#X msg 57 162 curveto \$1 \$2 0;
#X connect 0 0 1 0;
#X connect 0 1 4 0;
#X connect 1 0 7 0;
#X connect 4 0 1 1;
#X connect 4 1 6 0;
#X connect 5 0 2 0;
#X connect 6 0 5 0;
#X connect 7 0 2 0;
#X restore 127 287 pd draw_with_mouse;
#X text 25 20 Draw a path (experimental);
#X obj 46 311 tgl 15 0 empty empty empty 17 7 0 10 -262144 -1 -1 0
1;
#X text 67 305 0 COMMANDS 1 POLYLINES, f 11;
#X text 24 40 Args: mode (0 = COMMANDS 1 = POLYLINES);
#X msg 294 541 polywinding \$1;
#X obj 294 520 hradio 15 1 0 5 empty empty empty 0 -8 0 10 -262144
-1 -1 0;
#X text 403 516 0 = OF_POLY_WINDING_ODD 1 = OF_POLY_WINDING_NONZERO
2 = OF_POLY_WINDING_POSITIVE 3 = OF_POLY_WINDING_NEGATIVE 4 = OF_POLY_WINDING_ABS_GEQ_TWO
;
#X msg 46 425 get;
#X text 77 426 to do...;
#X text 124 163 Add transformation;
#X obj 176 96 tgl 15 0 empty empty empty 17 7 0 10 -262144 -1 -1 0
1;
#X obj 173 122 metro 40;
#X msg 124 201 position 0 0 -10;
#X text 63 356 -> need to add stroke if 0;
#X connect 1 0 13 0;
#X connect 6 0 5 0;
#X connect 7 0 5 0;
#X connect 8 0 5 0;
#X connect 9 0 5 0;
#X connect 10 0 5 0;
#X connect 11 0 5 0;
#X connect 12 0 5 0;
#X connect 13 0 5 0;
#X connect 14 0 13 2;
#X connect 15 0 5 0;
#X connect 16 0 5 0;
#X connect 17 0 5 0;
#X connect 18 0 5 0;
#X connect 19 0 5 0;
#X connect 20 0 5 0;
#X connect 21 0 5 0;
#X connect 22 0 5 0;
#X connect 23 0 5 0;
#X connect 24 0 5 0;
#X connect 25 0 5 0;
#X connect 26 0 5 0;
#X connect 27 0 5 0;
#X connect 28 0 17 0;
#X connect 30 0 29 0;
#X connect 31 0 5 0;
#X connect 32 0 5 0;
#X connect 33 0 5 0;
#X connect 34 0 5 0;
#X connect 35 0 5 0;
#X connect 36 0 5 0;
#X connect 37 0 5 0;
#X connect 38 0 5 0;
#X connect 39 0 5 0;
#X connect 41 0 36 0;
#X connect 44 0 5 0;
#X connect 45 0 44 0;
#X connect 47 0 5 0;
#X connect 50 0 51 0;
#X connect 51 0 52 0;
#X connect 51 0 37 0;
#X connect 52 0 5 0;
