#N canvas 565 117 626 290 12;
#X declare -lib ofelia;
#X obj 9 10 cnv 15 600 60 empty empty empty 20 12 0 14 -233017 -66577
0;
#X floatatom 75 136 5 0 0 0 - - -;
#X text 74 121 valueX;
#X floatatom 123 136 5 0 0 0 - - -;
#X text 122 121 valueY;
#X floatatom 171 136 5 0 0 0 - - -;
#X text 170 121 valueZ;
#X obj 27 89 gl.draw;
#X text 412 175 Single axis;
#X text 449 145 list of xyz;
#X obj 27 168 gl.rotate 2 1 1, f 21;
#X obj 27 241 gl.rectangle 100 100 center line;
#X msg 363 175 x 30;
#X msg 343 145 45 30 90;
#X obj 343 210 gl.rotate 2 1 1, f 21;
#X obj 462 45 declare -lib ofelia;
#X obj 407 20 gl.window 500 500 30 create;
#X text 25 30 Rotation matrix X \, Y \, Z;
#X text 23 46 Arguments: rotationX \, rotationY \, rotationZ;
#X connect 1 0 10 1;
#X connect 3 0 10 2;
#X connect 5 0 10 3;
#X connect 7 0 10 0;
#X connect 10 0 11 0;
#X connect 12 0 14 0;
#X connect 13 0 14 0;
