#N canvas 456 136 788 642 12;
#X obj 15 3 inlet;
#X obj 94 2 inlet;
#X text 618 605 RI;
#X obj 15 617 outlet;
#X msg 94 23 positionMS \$1;
#X obj 15 44 ofelia d soundplayer-\$0 \; local canvas = ofCanvas(this)
\; local args = canvas:getArgs() \; soundplayer\$0 = ofSoundPlayer()
\; local filename \, start \, loop = args[1] \, args[2] \, args[3]
\; local loaded = 0 \; \; function M.new() \; if args[1] == nil then
print("No file found") else M.open(filename) end \; if args[2] == 1
then M.play() end \; if args[3] == 1 then M.loop(1) end end \; \; function
M.free() \; ofWindow.removeListener("setup" \, this) \; soundplayer\$0:unload()
\; end \; \; function M.open(string) filename = string ofSetDataPathRoot(ofCanvas(this
\, 1):getDir()) loaded = soundplayer\$0:load(filename) if loaded then
print("loaded : ".. filename) else print ("not found : ".. filename)
end end \; \; function M.unload() soundplayer\$0:unload() end \; function
M.play() soundplayer\$0:play() end \; function M.stop() soundplayer\$0:stop()
end \; function M.pause() soundplayer\$0:setPaused(true) end \; function
M.resume() soundplayer\$0:setPaused(false) end \; function M.speed(float)
soundplayer\$0:setSpeed(float) end \; function M.multi(float) soundplayer\$0:setMultiPlay(float~=0)
end \; function M.position(float) soundplayer\$0:setPosition(float)
end \; function M.positionMS(float) soundplayer\$0:setPositionMS(float)
end \; function M.volume(float) soundplayer\$0:setVolume(float) end
\; function M.loop(float) soundplayer\$0:setLoop(float~=0) end \; function
M.close() soundplayer\$0:close() end \; function M.get() return ofTable
(soundplayer\$0:isLoaded() \, soundplayer\$0:isPlaying() \, soundplayer\$0:getPosition()
\, soundplayer\$0:getSpeed()) \; end \; \; function M.bang() \; return(anything)
\; end \;;
#X f 105;
#X connect 0 0 5 0;
#X connect 1 0 4 0;
#X connect 4 0 5 0;
#X connect 5 0 3 0;
