#N canvas 658 71 657 587 12;
#X declare -lib ofelia;
#X obj 9 10 cnv 15 600 60 empty empty empty 20 12 0 14 -233017 -66577
0;
#X obj 27 89 gl.draw;
#X floatatom 172 355 5 0 0 2 letterspace - -;
#X floatatom 318 355 5 0 0 2 fontsize - -;
#X obj 462 45 declare -lib ofelia;
#X obj 406 19 gl.window 500 500 30 create;
#X text 68 115 style;
#X text 269 104 transformation;
#X msg 51 175 draw line;
#X msg 52 258 fontsize 54;
#X msg 274 275 aliasing \$1;
#X obj 274 254 tgl 15 0 empty empty empty 17 7 0 10 -262144 -1 -1 0
1;
#X msg 272 202 text Hello;
#X floatatom 437 164 5 0 0 0 - - -;
#X msg 51 154 draw pix;
#X msg 437 186 letterspace \$1;
#X msg 437 136 direction \$1;
#X obj 437 113 tgl 15 0 empty empty empty 17 7 0 10 -262144 -1 -1 0
1;
#X msg 437 241 lineheight \$1;
#X floatatom 437 217 5 0 0 0 - - -;
#X msg 51 200 draw mesh;
#X msg 52 294 get;
#X obj 318 516 tgl 15 0 empty empty empty 17 7 0 10 -262144 -1 -1 0
1;
#X text 317 544 0 = load fail;
#X text 316 531 1 = load success;
#X floatatom 345 504 5 0 0 0 - - -;
#X floatatom 372 484 5 0 0 0 - - -;
#X floatatom 399 464 5 0 0 0 - - -;
#X floatatom 427 441 5 0 0 0 - - -;
#X text 410 485 text width;
#X text 435 465 text height;
#X text 469 445 total char set;
#X obj 318 408 unpack 0 0 0 0 0;
#X text 387 505 current nb of char;
#X msg 137 173 align right;
#X msg 137 133 align left;
#X msg 137 153 align center;
#X text 148 115 align;
#X text 353 201 new text;
#X floatatom 437 267 5 0 0 0 - - -;
#X msg 437 291 simplify \$1;
#X msg 270 169 scale 1 2 2;
#X msg 438 338 debug \$1;
#X obj 438 315 tgl 15 0 empty empty empty 17 7 0 10 -262144 -1 -1 0
1;
#X text 24 42 Args: text \, align \, fontsize, f 32;
#X msg 270 147 orientation 65 0 0;
#X msg 271 225 text I am a long text;
#X text 25 20 Draw a Text with any font (experimental);
#X msg 51 133 draw shape;
#X text 85 294 get data to right outlet;
#X text 478 259 -> careful: reimport and calculate font data!, f 24
;
#X text 53 218 change font;
#X msg 52 234 open data/Minipax-Regular.ttf;
#X text 364 360 -> careful: re calculate font data!, f 27;
#X obj 27 435 gl.image data/background.jpg;
#X obj 27 458 gl.plane 500 500;
#X obj 27 381 gl.text mytext center, f 42;
#X msg 270 126 position 0 100 100;
#X connect 1 0 56 0;
#X connect 2 0 56 1;
#X connect 3 0 56 2;
#X connect 8 0 56 0;
#X connect 9 0 56 0;
#X connect 10 0 56 0;
#X connect 11 0 10 0;
#X connect 12 0 56 0;
#X connect 13 0 15 0;
#X connect 14 0 56 0;
#X connect 17 0 16 0;
#X connect 19 0 18 0;
#X connect 20 0 56 0;
#X connect 21 0 56 0;
#X connect 32 0 22 0;
#X connect 32 1 25 0;
#X connect 32 2 26 0;
#X connect 32 3 27 0;
#X connect 32 4 28 0;
#X connect 34 0 56 0;
#X connect 35 0 56 0;
#X connect 36 0 56 0;
#X connect 39 0 40 0;
#X connect 40 0 56 0;
#X connect 41 0 56 0;
#X connect 43 0 42 0;
#X connect 45 0 56 0;
#X connect 46 0 56 0;
#X connect 48 0 56 0;
#X connect 52 0 56 0;
#X connect 54 0 55 0;
#X connect 56 0 54 0;
#X connect 56 1 32 0;
#X connect 57 0 56 0;
