#N canvas 517 235 632 406 12;
#X declare -lib ofelia;
#X obj 9 10 cnv 15 600 60 empty empty empty 20 12 0 14 -233017 -66577
0;
#X obj 137 130 tgl 15 0 empty empty empty 17 7 0 10 -262144 -1 -1 0
1;
#X obj 32 136 gl.draw;
#X obj 32 335 gl.box 100 100 100 5 5 5 line;
#X msg 137 149 active \$1;
#X msg 233 271 reset;
#X obj 234 229 tgl 15 0 empty empty empty 17 7 0 10 -262144 -1 -1 0
1;
#X msg 234 249 debug \$1;
#X msg 233 147 inertia \$1;
#X obj 233 126 tgl 15 0 empty empty empty 17 7 0 10 -262144 -1 -1 0
1;
#X msg 233 203 sensitivity 2;
#X floatatom 137 177 5 0 0 0 - - -;
#X msg 137 197 distance \$1;
#X obj 32 292 gl.view;
#X obj 431 336 gl.view 1 400 0 0.5 1;
#X text 432 315 default;
#X msg 234 175 drag 0.8;
#X text 25 49 Arguments: active \, distance \, sensitivity \, inertia
\, drag;
#X text 27 22 Interactive 3d view (Experimental);
#X obj 461 46 declare -lib ofelia;
#X obj 406 16 gl.window 500 500 30 create;
#X connect 1 0 4 0;
#X connect 2 0 13 0;
#X connect 4 0 13 0;
#X connect 5 0 13 0;
#X connect 6 0 7 0;
#X connect 7 0 13 0;
#X connect 8 0 13 0;
#X connect 9 0 8 0;
#X connect 10 0 13 0;
#X connect 11 0 12 0;
#X connect 12 0 13 0;
#X connect 13 0 3 0;
#X connect 16 0 13 0;
