#N canvas 571 121 659 458 12;
#X declare -lib ofelia;
#X obj 9 10 cnv 15 600 60 empty empty empty 20 12 0 14 -233017 -66577
0;
#X msg 35 108 create;
#X msg 51 147 destroy;
#X obj 35 377 print;
#X msg 246 108 cursor \$1;
#X obj 246 90 tgl 15 0 empty empty empty 17 7 0 10 -262144 -1 -1 0
1;
#X obj 247 132 tgl 15 0 empty empty empty 17 7 0 10 -262144 -1 -1 0
1;
#X msg 247 150 lighting \$1;
#X obj 247 174 tgl 15 0 empty empty empty 17 7 0 10 -262144 -1 -1 0
1;
#X msg 247 192 fullscreen \$1;
#X msg 248 263 color 0 64 128;
#X msg 248 297 get;
#X text 370 262 bg color;
#X text 360 147 activate lighting;
#X text 370 193 go fullscreen;
#X text 51 130 Close window;
#X text 35 84 Make Window;
#X text 61 170 Window size;
#X obj 461 41 declare -lib ofelia;
#X obj 247 217 tgl 15 0 empty empty empty 17 7 0 10 -262144 -1 -1 0
1;
#X msg 247 235 autoclear \$1;
#X msg 79 224 position 100 100;
#X text 370 236 autoclear the buffer;
#X msg 96 255 framerate 30;
#X obj 104 289 hradio 15 1 0 4 empty empty empty 0 -8 0 10 -262144
-1 -1 0;
#X msg 62 189 dimen 320 240;
#X msg 104 311 orientation \$1 0;
#X text 290 296 get current size and framerate;
#X obj 395 372 gl.draw;
#X text 360 107 show / hide cursor in window;
#X text 26 21 Make a new gl window context (Note: same object for all
windows), f 68;
#X obj 395 412 gl.triangle;
#X text 279 344 To draw something inside gl.window \, connect those:
, f 53;
#X obj 35 344 gl.window 640 480 30 fullscreen;
#X text 26 41 Arguments: width \, height \, framerate \, initmode (create/fullscreen)
, f 68;
#X connect 1 0 33 0;
#X connect 2 0 33 0;
#X connect 4 0 33 0;
#X connect 5 0 4 0;
#X connect 6 0 7 0;
#X connect 7 0 33 0;
#X connect 8 0 9 0;
#X connect 9 0 33 0;
#X connect 10 0 33 0;
#X connect 11 0 33 0;
#X connect 19 0 20 0;
#X connect 20 0 33 0;
#X connect 21 0 33 0;
#X connect 23 0 33 0;
#X connect 24 0 26 0;
#X connect 25 0 33 0;
#X connect 26 0 33 0;
#X connect 33 0 3 0;
