#N canvas 653 271 127 195 12;
#X obj 27 20 inlet;
#X obj 27 83 until;
#X obj 27 51 \$1;
#X obj 27 106 outlet;
#X obj 77 20 inlet;
#X connect 0 0 2 0;
#X connect 1 0 3 0;
#X connect 2 0 1 0;
#X connect 4 0 2 1;
