#N canvas 648 89 632 593 12;
#X declare -lib ofelia;
#X obj 9 10 cnv 15 600 60 empty empty empty 20 12 0 14 -233017 -66577
0;
#X obj 29 98 of.draw;
#X obj 29 528 of.plane 200 200 5 5;
#X obj 258 508 tgl 15 0 empty empty empty 17 7 0 10 -262144 -1 -1 0
1;
#X msg 55 142 open data/wood.jpg;
#X msg 56 191 open data/transparency.png;
#X obj 462 45 declare -lib ofelia;
#X obj 406 19 of.window 500 500 30 create;
#X text 52 123 open relative to patch;
#X text 54 169 open png with alpha channel;
#X text 58 220 open absolute path \, works also with online files;
#X msg 57 299 save image.png, f 16;
#X text 257 536 0 = load fail;
#X text 256 523 1 = load success;
#X msg 298 139 clear;
#X msg 298 169 crop 100 100 100 100;
#X text 449 169 witdh \, height \, posX \, posY;
#X text 345 139 clear all pixels;
#X text 297 80 allocate width \, height colortype;
#X msg 298 199 cropfrom img 100 100 300 300;
#X msg 55 372 get;
#X msg 299 290 drawsubsection 100 0 100 100 120 200;
#X text 299 308 posX \, posY \, witdh \, height \, cropfromX \, cropfromY
\, posCropX \, posCropY, f 42;
#X msg 55 338 draw 0 100;
#X text 297 93 0= Grayscale \, 1 =rgb \, 2 = rgba;
#X msg 299 250 setimagetype 0;
#X text 411 250 0= Grayscale \, 1 =rgb \, 2 = rgba;
#X floatatom 289 496 5 0 0 0 - - -;
#X floatatom 321 476 5 0 0 0 - - -;
#X floatatom 353 456 5 0 0 0 - - -;
#X obj 258 430 unpack 0 0 0 0;
#X text 89 372 get infos from right outlet;
#X msg 301 352 resize;
#X msg 301 372 mirror;
#X msg 301 392 rotate90;
#X text 331 497 width;
#X text 361 477 height;
#X msg 298 108 allocate 640 480 1;
#X text 132 338 useful?;
#X text 184 298 save to file;
#X text 36 509 2: draw center plane;
#X msg 57 239 open https://puredata.info/portal_css/Plone%20Default/logo.png
, f 31;
#X text 479 467 1 = rgb;
#X text 479 457 0 = grayscale;
#X text 479 477 3 = rgba;
#X text 401 457 Image type:;
#X msg 99 443 allocate 640 480 1;
#X obj 29 412 of.texture;
#X text 28 32 A simple Image Texture (To do);
#X connect 1 0 47 0;
#X connect 4 0 47 0;
#X connect 5 0 47 0;
#X connect 11 0 47 0;
#X connect 20 0 47 0;
#X connect 23 0 47 0;
#X connect 30 0 3 0;
#X connect 30 1 27 0;
#X connect 30 2 28 0;
#X connect 30 3 29 0;
#X connect 41 0 47 0;
#X connect 46 0 47 0;
