#N canvas 595 29 557 689 12;
#X declare -path abs;
#X declare -lib ofelia;
#X obj 29 387 of.translate, f 17;
#X obj 29 192 of.draw;
#X text 98 190 -> Draw from center like Gem;
#X floatatom 111 453 5 0 0 0 - - -;
#X text 155 449 rotate X \, Y \, Z;
#X floatatom 164 524 5 0 40 0 - - -;
#X text 334 647 -> line width...;
#X text 334 659 how to change also point size?;
#X obj 29 479 of.rotate 40 10 10;
#X obj 29 413 t b a;
#X obj 82 431 f;
#X obj 112 433 + 0.01;
#X text 152 290 -> Simple iteration;
#X msg 164 545 resw \$1;
#X floatatom 187 333 5 0 0 0 - - -;
#X floatatom 238 523 5 0 40 0 - - -;
#X msg 238 544 stroke \$1;
#X msg 73 521 draw line;
#X msg 73 542 draw point;
#X msg 73 563 draw fill;
#X floatatom 77 622 5 0 0 2 width - -;
#X floatatom 126 623 5 0 0 2 height - -;
#X floatatom 174 623 5 0 0 2 depth - -;
#X floatatom 223 622 5 0 0 2 resw - -;
#X floatatom 271 623 5 0 0 2 resh - -;
#X floatatom 320 623 5 0 0 2 resd - -;
#X obj 29 649 of.box 400 400 100 5 5 5 line 1, f 42;
#X obj 29 354 of.color 255 255 255 50;
#X text 228 330 -> Alpha;
#X text 210 356 -> 4 channels (0 - 255);
#X obj 29 265 of.view;
#X text 26 159 Rendering;
#X text 64 218 -> Show Axis;
#X msg 48 240 debug \$1;
#X obj 48 221 tgl 15 0 empty empty empty 17 7 0 10 -262144 -1 -1 0
1;
#X text 98 266 -> Interactive view (Click and drag on screen);
#X text 161 387 -> Matrix XYZ transformation;
#X obj 358 43 declare -path abs;
#X obj 358 23 declare -lib ofelia;
#X msg 21 68 create;
#X obj 207 25 tgl 15 0 empty empty empty 17 7 0 10 -262144 -1 -1 0
1;
#X msg 207 43 fullscreen \$1;
#X msg 208 65 color 0 64 128;
#X obj 21 110 of.window 640 480 30 1;
#X text 11 1 Windows creation;
#X msg 208 87 dimen 320 240;
#X msg 84 68 destroy;
#X obj 84 21 of.keyboard;
#X obj 84 43 select Esc;
#X text 356 3 Path and lib;
#X obj 29 312 of.repeat 10;
#X floatatom 110 290 5 0 0 0 - - -;
#X connect 0 0 9 0;
#X connect 1 0 30 0;
#X connect 3 0 8 2;
#X connect 5 0 13 0;
#X connect 8 0 26 0;
#X connect 9 0 8 0;
#X connect 9 1 10 0;
#X connect 10 0 11 0;
#X connect 11 0 3 0;
#X connect 11 0 10 1;
#X connect 13 0 26 0;
#X connect 14 0 27 4;
#X connect 15 0 16 0;
#X connect 16 0 26 0;
#X connect 17 0 26 0;
#X connect 18 0 26 0;
#X connect 19 0 26 0;
#X connect 20 0 26 1;
#X connect 21 0 26 2;
#X connect 22 0 26 3;
#X connect 23 0 26 4;
#X connect 24 0 26 5;
#X connect 25 0 26 6;
#X connect 27 0 0 0;
#X connect 30 0 50 0;
#X connect 33 0 30 0;
#X connect 34 0 33 0;
#X connect 39 0 43 0;
#X connect 40 0 41 0;
#X connect 41 0 43 0;
#X connect 42 0 43 0;
#X connect 45 0 43 0;
#X connect 46 0 43 0;
#X connect 47 0 48 0;
#X connect 48 0 46 0;
#X connect 50 0 27 0;
#X connect 51 0 50 1;
