#N canvas 712 78 512 631 12;
#X declare -path abs;
#X declare -lib ofelia;
#X floatatom 96 496 5 0 0 0 - - -;
#X obj 29 520 gl.rotate, f 15;
#X obj 29 181 gl.draw;
#X obj 29 573 gl.plane 200 200 5 5;
#X obj 29 548 gl.sphere 500 100 line;
#X obj 29 372 gl.image data/background.jpg;
#X text 242 378 arguments= relative path;
#X text 54 249 png with alpha channel;
#X obj 358 43 declare -path abs;
#X obj 358 23 declare -lib ofelia;
#X msg 21 48 create;
#X msg 84 48 destroy;
#X obj 207 21 tgl 15 0 empty empty empty 17 7 0 10 -262144 -1 -1 0
1;
#X msg 207 39 fullscreen \$1;
#X msg 208 61 color 0 64 128;
#X obj 21 110 gl.window 640 480 30 1;
#X text 21 21 Windows creation;
#X msg 208 87 dimen 320 240;
#X text 26 152 Rendering;
#X obj 29 401 t a b, f 10;
#X obj 96 422 i;
#X obj 96 445 + 1;
#X obj 96 468 mod 360;
#X text 58 300 works with online files;
#X obj 222 488 tgl 15 0 empty empty empty 17 7 0 10 -262144 -1 -1 1
1;
#X text 221 516 0 = load fail;
#X text 220 503 1 = load success;
#X floatatom 253 476 5 0 0 0 - - -;
#X floatatom 285 456 5 0 0 0 - - -;
#X floatatom 317 436 5 0 0 0 - - -;
#X obj 222 410 unpack 0 0 0 0;
#X text 295 477 width;
#X text 325 457 height;
#X text 443 447 1 = rgb;
#X text 443 437 0 = grayscale;
#X text 443 457 3 = rgba;
#X text 365 437 Image type:;
#X msg 55 222 open data/wood.jpg \, get;
#X msg 56 271 open data/transparency.png \, get;
#X msg 57 319 open https://puredata.info/portal_css/Plone%20Default/logo.png
\, get, f 61;
#X text 52 203 open image relative to patch and get infos;
#X connect 0 0 1 2;
#X connect 1 0 4 0;
#X connect 2 0 5 0;
#X connect 4 0 3 0;
#X connect 5 0 19 0;
#X connect 5 1 30 0;
#X connect 10 0 15 0;
#X connect 11 0 15 0;
#X connect 12 0 13 0;
#X connect 13 0 15 0;
#X connect 14 0 15 0;
#X connect 17 0 15 0;
#X connect 19 0 1 0;
#X connect 19 1 20 0;
#X connect 20 0 21 0;
#X connect 21 0 22 0;
#X connect 22 0 20 1;
#X connect 22 0 0 0;
#X connect 30 0 24 0;
#X connect 30 1 27 0;
#X connect 30 2 28 0;
#X connect 30 3 29 0;
#X connect 37 0 5 0;
#X connect 38 0 5 0;
#X connect 39 0 5 0;
