#N canvas 660 88 566 628 12;
#X declare -path abs;
#X declare -lib ofelia;
#X floatatom 96 496 5 0 0 0 - - -;
#X obj 29 520 gl.rotate, f 15;
#X obj 29 181 gl.draw;
#X obj 29 573 gl.plane 200 200 5 5;
#X obj 29 548 gl.sphere 500 100 line;
#X obj 29 372 gl.image data/background.jpg;
#X text 242 378 arguments= relative path;
#X text 54 259 png with alpha channel;
#X obj 358 43 declare -path abs;
#X obj 358 23 declare -lib ofelia;
#X msg 21 68 create;
#X obj 207 25 tgl 15 0 empty empty empty 17 7 0 10 -262144 -1 -1 0
1;
#X msg 207 43 fullscreen \$1;
#X msg 208 65 color 0 64 128;
#X obj 21 110 gl.window 640 480 30 1;
#X text 11 1 Windows creation;
#X msg 208 87 dimen 320 240;
#X text 25 153 Rendering;
#X obj 96 422 i;
#X obj 96 445 + 1;
#X text 58 310 works with online files;
#X obj 222 488 tgl 15 0 empty empty empty 17 7 0 10 -262144 -1 -1 0
1;
#X text 221 516 0 = load fail;
#X text 220 503 1 = load success;
#X floatatom 253 476 5 0 0 0 - - -;
#X floatatom 285 456 5 0 0 0 - - -;
#X floatatom 317 436 5 0 0 0 - - -;
#X obj 222 410 unpack 0 0 0 0;
#X text 295 477 width;
#X text 325 457 height;
#X text 443 447 1 = rgb;
#X text 443 437 0 = grayscale;
#X text 443 457 3 = rgba;
#X text 365 437 Image type:;
#X msg 55 232 open data/wood.jpg \, get;
#X msg 56 281 open data/transparency.png \, get;
#X msg 57 329 open https://puredata.info/portal_css/Plone%20Default/logo.png
\, get, f 69;
#X text 52 213 open image relative to patch and get infos;
#X msg 84 68 destroy;
#X obj 84 21 gl.keyboard;
#X obj 84 43 select Esc;
#X obj 29 401 t b b, f 10;
#X text 356 3 Path and lib;
#X obj 96 468 mod 359;
#X connect 0 0 1 2;
#X connect 1 0 4 0;
#X connect 2 0 5 0;
#X connect 4 0 3 0;
#X connect 5 0 41 0;
#X connect 5 1 27 0;
#X connect 10 0 14 0;
#X connect 11 0 12 0;
#X connect 12 0 14 0;
#X connect 13 0 14 0;
#X connect 16 0 14 0;
#X connect 18 0 19 0;
#X connect 19 0 43 0;
#X connect 27 0 21 0;
#X connect 27 1 24 0;
#X connect 27 2 25 0;
#X connect 27 3 26 0;
#X connect 34 0 5 0;
#X connect 35 0 5 0;
#X connect 36 0 5 0;
#X connect 38 0 14 0;
#X connect 39 0 40 0;
#X connect 40 0 38 0;
#X connect 41 0 1 0;
#X connect 41 1 18 0;
#X connect 43 0 18 1;
#X connect 43 0 0 0;
