#N canvas 702 61 549 657 12;
#X declare -path abs;
#X declare -lib ofelia;
#X floatatom 66 539 5 0 0 0 - - -;
#X obj 26 570 gl.rotate;
#X msg 142 181 play;
#X msg 142 206 pause;
#X msg 199 205 frame \$1;
#X floatatom 199 182 5 0 0 0 - - -;
#X msg 199 229 loop 1;
#X msg 142 231 stop;
#X msg 142 256 get;
#X obj 278 204 openpanel;
#X obj 278 182 bng 15 250 50 0 empty empty empty 17 7 0 10 -262144
-1 -1;
#X obj 29 201 gl.draw;
#X obj 26 616 gl.sphere 500 100 line;
#X text 385 299 Ok;
#X floatatom 236 496 5 0 0 0 isplaying - -;
#X floatatom 261 526 5 0 0 0 currentframe - -;
#X floatatom 310 583 5 0 0 0 width - -;
#X floatatom 335 613 5 0 0 0 height - -;
#X text 198 283 Relative paths;
#X text 341 233 absolute paths;
#X text 231 399 arguments= relative path \, autostart \, loop;
#X msg 199 253 speed 2;
#X floatatom 212 369 5 0 0 0 - - -;
#X floatatom 285 553 5 0 0 0 totalframe - -;
#X text 131 416 get method:;
#X obj 26 593 gl.box 200 200 200 5 5 5;
#X obj 212 432 unpack 0 0 0 0 0 0;
#X floatatom 212 466 5 0 0 0 isloaded - -;
#X text 384 332 No file;
#X text 26 172 Rendering;
#X obj 26 397 gl.movie data/video.mov 1 2;
#X obj 26 443 t a b;
#X obj 65 464 i;
#X obj 65 487 + 1;
#X msg 278 233 open \$1;
#X msg 197 302 open data/video.mov \, get;
#X msg 197 332 open data/nofile.mov \, get;
#X obj 358 43 declare -path abs;
#X obj 358 23 declare -lib ofelia;
#X msg 21 68 create;
#X obj 207 25 tgl 15 0 empty empty empty 17 7 0 10 -262144 -1 -1 0
1;
#X msg 207 43 fullscreen \$1;
#X msg 208 65 color 0 64 128;
#X obj 21 110 gl.window 640 480 30 1;
#X text 11 1 Windows creation;
#X msg 208 87 dimen 320 240;
#X msg 84 68 destroy;
#X obj 84 21 gl.keyboard;
#X obj 84 43 select Esc;
#X text 356 3 Path and lib;
#X obj 65 510 mod 359;
#X text 255 368 Go to frame... (might need to pause before);
#X text 231 411 (windows user might not be able to use loop 2);
#X connect 0 0 1 2;
#X connect 1 0 25 0;
#X connect 2 0 30 0;
#X connect 3 0 30 0;
#X connect 4 0 30 0;
#X connect 5 0 4 0;
#X connect 6 0 30 0;
#X connect 7 0 30 0;
#X connect 8 0 30 0;
#X connect 9 0 34 0;
#X connect 10 0 9 0;
#X connect 11 0 30 0;
#X connect 21 0 30 0;
#X connect 22 0 30 1;
#X connect 25 0 12 0;
#X connect 26 0 27 0;
#X connect 26 1 14 0;
#X connect 26 2 15 0;
#X connect 26 3 23 0;
#X connect 26 4 16 0;
#X connect 26 5 17 0;
#X connect 30 0 31 0;
#X connect 30 1 26 0;
#X connect 31 0 1 0;
#X connect 31 1 32 0;
#X connect 32 0 33 0;
#X connect 33 0 50 0;
#X connect 34 0 30 0;
#X connect 35 0 30 0;
#X connect 36 0 30 0;
#X connect 39 0 43 0;
#X connect 40 0 41 0;
#X connect 41 0 43 0;
#X connect 42 0 43 0;
#X connect 45 0 43 0;
#X connect 46 0 43 0;
#X connect 47 0 48 0;
#X connect 48 0 46 0;
#X connect 50 0 32 1;
#X connect 50 0 0 0;
