#N canvas 706 35 518 611 12;
#X declare -path abs;
#X declare -lib ofelia;
#X obj 358 43 declare -path abs;
#X obj 358 23 declare -lib ofelia;
#X floatatom 69 478 5 0 0 0 - - -;
#X obj 29 507 gl.rotate;
#X obj 29 168 gl.draw;
#X obj 29 535 gl.sphere 500 100 line;
#X obj 96 398 tgl 15 0 empty empty empty 17 7 0 10 -262144 -1 -1 0
1;
#X msg 123 294 dimen 640 480;
#X msg 123 172 listdev;
#X msg 124 237 close;
#X msg 124 267 get;
#X msg 123 204 open 0;
#X text 125 339 Args: Camera ID \, width heigth;
#X text 180 238 close device;
#X obj 96 366 unpack 0 0 0;
#X floatatom 136 397 5 0 0 0 - - -;
#X floatatom 177 397 5 0 0 0 - - -;
#X text 93 412 open;
#X text 133 412 width;
#X text 176 412 height;
#X text 164 267 get informations to right outlet;
#X text 231 294 change pixel size;
#X obj 29 340 gl.videoin;
#X text 186 204 Open device ID;
#X obj 29 560 gl.box 200 200 200 5 5 5;
#X obj 29 408 t a b;
#X obj 61 444 f;
#X obj 97 444 + 0.5;
#X text 185 173 list devices?;
#X msg 21 48 create;
#X msg 84 48 destroy;
#X obj 207 21 tgl 15 0 empty empty empty 17 7 0 10 -262144 -1 -1 0
1;
#X msg 207 39 fullscreen \$1;
#X msg 208 61 color 0 64 128;
#X obj 21 110 gl.window 640 480 30 1;
#X text 21 21 Windows creation;
#X msg 208 87 dimen 320 240;
#X connect 2 0 3 2;
#X connect 3 0 5 0;
#X connect 4 0 22 0;
#X connect 5 0 24 0;
#X connect 7 0 22 0;
#X connect 8 0 22 0;
#X connect 9 0 22 0;
#X connect 10 0 22 0;
#X connect 11 0 22 0;
#X connect 14 0 6 0;
#X connect 14 1 15 0;
#X connect 14 2 16 0;
#X connect 22 0 25 0;
#X connect 22 1 14 0;
#X connect 25 0 3 0;
#X connect 25 1 26 0;
#X connect 26 0 2 0;
#X connect 26 0 27 0;
#X connect 27 0 26 1;
#X connect 29 0 34 0;
#X connect 30 0 34 0;
#X connect 31 0 32 0;
#X connect 32 0 34 0;
#X connect 33 0 34 0;
#X connect 36 0 34 0;
