#N canvas 570 52 518 611 12;
#X declare -path abs;
#X declare -lib ofelia;
#X floatatom 61 472 5 0 0 0 - - -;
#X obj 29 507 of.rotate;
#X obj 29 168 of.draw;
#X obj 29 535 of.sphere 500 100 line;
#X obj 96 398 tgl 15 0 empty empty empty 17 7 0 10 -262144 -1 -1 0
1;
#X msg 123 294 dimen 640 480;
#X msg 123 172 listdev;
#X msg 124 237 close;
#X msg 124 267 get;
#X msg 123 204 open 0;
#X text 125 339 Args: Camera ID \, width heigth;
#X text 180 238 close device;
#X obj 96 366 unpack 0 0 0;
#X floatatom 136 397 5 0 0 0 - - -;
#X floatatom 177 397 5 0 0 0 - - -;
#X text 93 412 open;
#X text 133 412 width;
#X text 176 412 height;
#X text 164 267 get informations to right outlet;
#X text 231 294 change pixel size;
#X obj 29 340 of.videoin;
#X text 186 204 Open device ID;
#X obj 29 560 of.box 200 200 200 5 5 5;
#X obj 29 408 t a b;
#X obj 61 444 f;
#X text 185 173 list devices?;
#X obj 358 43 declare -path abs;
#X obj 358 23 declare -lib ofelia;
#X msg 21 68 create;
#X obj 207 25 tgl 15 0 empty empty empty 17 7 0 10 -262144 -1 -1 0
1;
#X msg 207 43 fullscreen \$1;
#X msg 208 65 color 0 64 128;
#X obj 21 110 of.window 640 480 30 1;
#X text 11 1 Windows creation;
#X msg 208 87 dimen 320 240;
#X msg 84 68 destroy;
#X obj 84 21 of.keyboard;
#X obj 84 43 select Esc;
#X text 356 3 Path and lib;
#X obj 136 444 mod 359;
#X obj 97 444 + 1;
#X connect 0 0 1 2;
#X connect 1 0 3 0;
#X connect 2 0 20 0;
#X connect 3 0 22 0;
#X connect 5 0 20 0;
#X connect 6 0 20 0;
#X connect 7 0 20 0;
#X connect 8 0 20 0;
#X connect 9 0 20 0;
#X connect 12 0 4 0;
#X connect 12 1 13 0;
#X connect 12 2 14 0;
#X connect 20 0 23 0;
#X connect 20 1 12 0;
#X connect 23 0 1 0;
#X connect 23 1 24 0;
#X connect 24 0 0 0;
#X connect 24 0 40 0;
#X connect 28 0 32 0;
#X connect 29 0 30 0;
#X connect 30 0 32 0;
#X connect 31 0 32 0;
#X connect 34 0 32 0;
#X connect 35 0 32 0;
#X connect 36 0 37 0;
#X connect 37 0 35 0;
#X connect 39 0 24 1;
#X connect 40 0 39 0;
