#N canvas 612 137 612 560 12;
#X declare -path abs;
#X declare -lib ofelia;
#X obj 22 169 gl.draw;
#X obj 22 421 gl.sphere 150 50;
#X obj 75 220 i;
#X obj 75 243 + 1;
#X floatatom 75 288 5 0 0 0 - - -;
#X obj 22 456 gl.color 255 0 0;
#X obj 22 509 gl.sphere 100 10;
#X obj 76 342 loadbang;
#X obj 22 483 gl.translate 800 600 0;
#X obj 22 393 gl.camera 0 100, f 32;
#X msg 76 365 debug 1;
#X obj 358 43 declare -path abs;
#X obj 358 23 declare -lib ofelia;
#X msg 21 68 create;
#X obj 207 25 tgl 15 0 empty empty empty 17 7 0 10 -262144 -1 -1 0
1;
#X msg 207 43 fullscreen \$1;
#X msg 208 65 color 0 64 128;
#X obj 21 110 gl.window 640 480 30 1;
#X text 11 1 Windows creation;
#X msg 208 87 dimen 320 240;
#X msg 84 68 destroy;
#X obj 84 21 gl.keyboard;
#X obj 84 43 select Esc;
#X text 356 3 Path and lib;
#X text 142 364 Activate Grid;
#X msg 75 312 orbit \$1 0 800 0 0 0 \, lookat 800 600 0;
#X obj 22 195 t b b, f 8;
#X text 20 148 Rendering;
#X obj 75 264 mod 359;
#X text 163 263 spin position around and look at red sphere, f 21
;
#X connect 0 0 26 0;
#X connect 1 0 5 0;
#X connect 2 0 3 0;
#X connect 3 0 28 0;
#X connect 4 0 25 0;
#X connect 5 0 8 0;
#X connect 7 0 10 0;
#X connect 8 0 6 0;
#X connect 9 0 1 0;
#X connect 10 0 9 0;
#X connect 13 0 17 0;
#X connect 14 0 15 0;
#X connect 15 0 17 0;
#X connect 16 0 17 0;
#X connect 19 0 17 0;
#X connect 20 0 17 0;
#X connect 21 0 22 0;
#X connect 22 0 20 0;
#X connect 25 0 9 0;
#X connect 26 0 9 0;
#X connect 26 1 2 0;
#X connect 28 0 4 0;
#X connect 28 0 2 1;
