#N canvas 578 135 536 560 12;
#X declare -path abs;
#X declare -lib ofelia;
#X obj 358 43 declare -path abs;
#X obj 358 23 declare -lib ofelia;
#X obj 216 150 gl.draw;
#X msg 21 48 create;
#X msg 84 48 destroy;
#X obj 207 21 tgl 15 0 empty empty empty 17 7 0 10 -262144 -1 -1 0
1;
#X msg 207 39 fullscreen \$1;
#X msg 208 61 color 0 64 128;
#X obj 21 110 gl.window 640 480 30 1;
#X text 21 21 Windows creation;
#X msg 208 87 dimen 320 240;
#X obj 216 442 gl.sphere 150 50;
#X obj 326 220 i;
#X obj 326 243 + 1;
#N canvas 349 305 450 300 poltocar 0;
#X floatatom 158 94 5 0 0 0 amplitude-> - -;
#X floatatom 234 76 5 0 0 1 <-phase - -;
#X obj 234 111 t b f;
#X obj 157 179 *;
#X obj 184 139 cos;
#X obj 268 142 sin;
#X obj 256 182 *;
#X obj 158 37 inlet;
#X obj 234 37 inlet;
#X obj 157 223 outlet;
#X obj 256 223 outlet;
#X connect 0 0 3 0;
#X connect 0 0 6 0;
#X connect 1 0 2 0;
#X connect 1 0 4 0;
#X connect 1 0 5 0;
#X connect 2 0 0 0;
#X connect 3 0 9 0;
#X connect 4 0 3 1;
#X connect 5 0 6 1;
#X connect 6 0 10 0;
#X connect 7 0 0 0;
#X connect 8 0 1 0;
#X restore 252 317 pd poltocar;
#X floatatom 252 289 5 0 0 0 - - -;
#X floatatom 326 290 5 0 0 0 - - -;
#X obj 326 268 * 0.01;
#X msg 25 250 lookat 0 0 0;
#X obj 216 477 gl.color 255 0 0;
#X obj 216 530 gl.sphere 100 10;
#X obj 38 343 loadbang;
#X text 184 289 Distance;
#X obj 252 240 loadbang;
#X msg 252 263 800;
#X floatatom 289 355 5 0 0 0 - - -;
#X text 278 336 Height;
#X obj 216 504 gl.translate 800 600 0;
#X msg 24 194 lookat 800 600 0;
#X obj 216 384 gl.camera 0 100, f 32;
#X msg 38 366 debug 1;
#X obj 216 176 t b b b, f 16;
#X text 20 173 look at red sphere;
#X text 23 225 look at white sphere;
#X connect 2 0 31 0;
#X connect 3 0 8 0;
#X connect 4 0 8 0;
#X connect 5 0 6 0;
#X connect 6 0 8 0;
#X connect 7 0 8 0;
#X connect 10 0 8 0;
#X connect 11 0 19 0;
#X connect 12 0 13 0;
#X connect 13 0 12 1;
#X connect 13 0 17 0;
#X connect 14 0 29 1;
#X connect 14 1 29 3;
#X connect 15 0 14 0;
#X connect 16 0 14 1;
#X connect 17 0 16 0;
#X connect 18 0 29 0;
#X connect 19 0 27 0;
#X connect 21 0 30 0;
#X connect 23 0 24 0;
#X connect 24 0 15 0;
#X connect 25 0 29 2;
#X connect 27 0 20 0;
#X connect 28 0 29 0;
#X connect 29 0 11 0;
#X connect 30 0 29 0;
#X connect 31 0 29 0;
#X connect 31 1 28 0;
#X connect 31 2 12 0;
