#N canvas 603 244 638 469 12;
#X declare -lib ofelia;
#X obj 9 10 cnv 15 600 60 empty empty empty 20 12 0 14 -233017 -66577
0;
#X floatatom 202 290 5 0 0 2 Cycle - -;
#X obj 462 45 declare -lib ofelia;
#X text 205 191 (0...255 / channel);
#X msg 41 253 color2 0 255 0 50;
#X obj 17 401 of.rectangle 100 100;
#X obj 17 163 of.repeat 10;
#X obj 17 369 of.translate 5 5 5;
#X floatatom 98 122 5 0 0 2 Steps - -;
#X obj 17 308 of.colorloop;
#X text 39 192 start color : r g b a;
#X text 39 232 end color : r g b a;
#X text 199 236 (0...255 / channel);
#X msg 39 212 color1 255 0 0 100;
#X obj 518 19 of.window 1;
#X obj 497 21 tgl 15 0 empty empty empty 17 7 0 10 -262144 -1 -1 0
1;
#X obj 17 119 of.draw;
#X text 114 159 -> iteration (default 10 steps);
#X text 29 43 Arguments(7): R1 \, G1 \, B1 \, A1 \, R2 \, G2 \, B2
\, cycle.;
#X text 29 19 Color in a loop for Red \, Green \, Blue \, Alpha (opacity)
;
#N canvas 601 39 487 469 square_loop_example 0;
#X floatatom 359 238 5 0 0 2 Cycle - -;
#X text 256 149 (0...255 / channel);
#X floatatom 149 80 5 0 0 2 Steps - -;
#X text 90 150 start color : r g b a;
#X text 90 190 end color : r g b a;
#X text 250 194 (0...255 / channel);
#X obj 68 25 of.draw;
#X text 165 117 -> iteration (default 10 steps);
#X obj 68 297 of.scale 0.8 0.8 0.8;
#X obj 68 73 spigot;
#X obj 162 41 tgl 15 0 empty empty empty 17 7 0 10 -262144 -1 -1 0
1;
#X msg 90 170 color1 255 255 255 20;
#X msg 92 211 color2 0 0 0 255;
#X obj 68 266 of.colorloop 0 0 255 10 255 255 255 100 20;
#X obj 68 121 of.repeat 20;
#X obj 68 329 of.rectangle 600 600;
#X connect 0 0 13 1;
#X connect 2 0 14 1;
#X connect 6 0 9 0;
#X connect 8 0 15 0;
#X connect 9 0 14 0;
#X connect 10 0 9 1;
#X connect 11 0 13 0;
#X connect 12 0 13 0;
#X connect 13 0 8 0;
#X connect 14 0 13 0;
#X restore 283 369 pd square_loop_example;
#X floatatom 58 346 5 0 0 2 X - -;
#X floatatom 105 346 5 0 0 2 Y - -;
#X connect 1 0 9 1;
#X connect 4 0 9 0;
#X connect 6 0 9 0;
#X connect 7 0 5 0;
#X connect 8 0 6 1;
#X connect 9 0 7 0;
#X connect 13 0 9 0;
#X connect 15 0 14 0;
#X connect 16 0 6 0;
#X connect 21 0 7 1;
#X connect 22 0 7 2;
