#N canvas 451 141 626 474 12;
#X declare -lib ofelia;
#X obj 9 10 cnv 15 600 60 empty empty empty 20 12 0 14 -233017 -66577
0;
#X obj 27 89 of.draw;
#X msg 423 205 width 50;
#X msg 71 113 draw line;
#X msg 71 135 draw point;
#X msg 71 157 draw fill;
#X floatatom 75 349 5 0 0 2 radius - -;
#X floatatom 123 350 5 0 0 2 height - -;
#X text 402 109 list of all parameters;
#X text 419 184 Single parameter;
#X msg 403 136 100 400 200 5 10 2 line 3;
#X msg 71 201 stroke 4;
#X floatatom 172 350 5 0 0 2 rres - -;
#X floatatom 220 350 5 0 0 2 hres - -;
#X floatatom 269 350 5 0 0 2 cres - -;
#X obj 462 45 declare -lib ofelia;
#X obj 27 376 of.cone 100 100 10 10 10 line 1;
#X text 24 40 Args: radius \, height \, radius segment \, height segment
\, cap segment \, drawmode \, strokeweight, f 49;
#X obj 403 240 of.cone;
#X text 25 20 Draw a cone, f 45;
#X msg 180 138 orientation 45 0 0;
#X msg 180 116 position 0 100 -100;
#X msg 180 160 scale 1 2 2;
#X text 88 95 style;
#X msg 180 183 lookat 180 120 60;
#X msg 71 300 texturemap 0 0 1 1;
#X msg 71 275 texture \$1;
#X obj 71 258 tgl 15 0 empty empty empty 17 7 0 10 -262144 -1 -1 0
1;
#X msg 71 223 normalsize 40;
#X msg 71 179 draw normal;
#X obj 518 19 of.window 1;
#X text 179 94 local transformation;
#X connect 1 0 16 0;
#X connect 2 0 18 0;
#X connect 3 0 16 0;
#X connect 4 0 16 0;
#X connect 5 0 16 0;
#X connect 6 0 16 1;
#X connect 7 0 16 2;
#X connect 10 0 18 0;
#X connect 11 0 16 0;
#X connect 12 0 16 3;
#X connect 13 0 16 4;
#X connect 14 0 16 5;
#X connect 20 0 16 0;
#X connect 21 0 16 0;
#X connect 22 0 16 0;
#X connect 24 0 16 0;
#X connect 25 0 16 0;
#X connect 26 0 16 0;
#X connect 27 0 26 0;
#X connect 28 0 16 0;
#X connect 29 0 16 0;
