#N canvas 542 106 626 388 12;
#X declare -lib ofelia;
#X obj 9 10 cnv 15 600 60 empty empty empty 20 12 0 14 -233017 -66577
0;
#X obj 27 99 of.draw;
#X msg 110 140 draw line;
#X msg 110 163 draw point;
#X msg 110 187 draw fill;
#X floatatom 112 238 5 0 0 2 width - -;
#X floatatom 197 237 5 0 0 2 height - -;
#X text 402 109 list of all parameters;
#X text 419 154 Single parameter;
#X msg 423 175 size 50;
#X msg 110 117 stroke 10;
#X floatatom 283 237 5 0 0 2 resolution - -;
#X msg 403 136 100 400 3 line 3;
#X obj 403 260 of.ellipse, f 21;
#X text 24 40 Args: width \, height \, resolution \, drawmode \, strokewidth
;
#X text 25 20 Draw an Ellipse;
#X obj 462 45 declare -lib ofelia;
#X obj 27 261 of.ellipse 100 100 20 line 1, f 37;
#X msg 200 159 scale 1 2 2;
#X text 118 95 style;
#X msg 437 234 debug \$1;
#X obj 437 213 tgl 15 0 empty empty empty 17 7 0 10 -262144 -1 -1 0
1;
#X text 457 211 Show center axis;
#X msg 200 137 orientation 45 20 0;
#X msg 200 116 position 50 10 0;
#X text 199 94 local transformation;
#X obj 518 19 of.window 1;
#X obj 497 21 tgl 15 0 empty empty empty 17 7 0 10 -262144 -1 -1 0
1;
#X connect 1 0 17 0;
#X connect 2 0 17 0;
#X connect 3 0 17 0;
#X connect 4 0 17 0;
#X connect 5 0 17 1;
#X connect 6 0 17 2;
#X connect 9 0 13 0;
#X connect 10 0 17 0;
#X connect 11 0 17 3;
#X connect 12 0 13 0;
#X connect 18 0 17 0;
#X connect 20 0 13 0;
#X connect 21 0 20 0;
#X connect 23 0 17 0;
#X connect 24 0 17 0;
#X connect 27 0 26 0;
