#N canvas 141 81 798 697 12;
#X declare -lib ofelia;
#X obj 9 10 cnv 15 600 60 empty empty empty 20 12 0 14 -233017 -66577
0;
#X text 128 393 get method:;
#X obj 467 42 declare -lib ofelia;
#X obj 521 16 of.window 1;
#X obj 30 113 of.draw;
#X text 28 47 Arguments: filename \, autostart \, loopmode \, speed
;
#X obj 30 518 of.plane 400 300;
#X obj 30 369 of.movie_pix data/video.mov;
#X obj 123 413 print pix;
#X text 28 15 A movie player with texture and pixel access (experimental)
;
#X floatatom 239 478 5 0 0 0 isplaying - -;
#X floatatom 263 508 5 0 0 0 currentframe - -;
#X floatatom 310 565 5 0 0 0 width - -;
#X floatatom 333 595 5 0 0 0 height - -;
#X floatatom 286 535 5 0 0 0 totalframes - -;
#X floatatom 216 448 5 0 0 0 isloaded - -;
#X floatatom 357 620 5 0 0 0 duration - -;
#X obj 216 424 unpack 0 0 0 0 0 0 0 0, f 24;
#X floatatom 381 642 5 0 0 0 frame/sec - -;
#X text 223 406 <- get infos as list;
#X msg 172 235 get;
#X floatatom 216 344 5 0 0 0 - - -;
#X msg 93 145 pause;
#X obj 170 144 openpanel;
#X obj 170 122 bng 15 250 50 0 empty empty empty 17 7 0 10 -262144
-1 -1;
#X msg 300 98 volume 1;
#X msg 170 173 open \$1;
#X msg 93 216 close;
#X msg 298 301 speed -1;
#X text 374 98 sound volume 0 -1;
#X floatatom 298 148 5 0 0 0 - - -;
#X msg 298 172 position \$1;
#X obj 301 129 hsl 128 15 0 1 0 0 empty empty empty -2 -8 0 10 -262144
-1 -1 0 1;
#X msg 93 92 open data/video.mov;
#X text 348 232 loop on;
#X msg 298 206 frame 30;
#X text 363 206 jump to frame...;
#X msg 171 203 update;
#X msg 93 122 play;
#X msg 93 192 stop;
#X msg 93 168 resume;
#X msg 298 278 speed 0.5;
#X text 192 122 open file...;
#X msg 547 159 position 1 \, speed -1 \, play;
#X msg 537 110 position 0 \, speed 1 \, play;
#X text 533 83 play from start at speed 1;
#X text 542 137 play from end in reverse (speed -1);
#X obj 537 290 t a;
#X text 383 170 (no sound);
#X text 256 368 (no sound);
#X msg 298 231 loop 1;
#X msg 298 255 speed 2;
#X text 358 254 double speed;
#X text 371 279 half speed;
#X text 368 301 play backward;
#X text 256 355 Go to frame... (need to "pause" or "play" with some
codec);
#X text 204 236 get infos;
#X text 338 148 go to position from 0 to 1;
#X msg 562 223 range 0 809;
#X text 553 198 (not yet implemented);
#N canvas 530 102 646 542 Encoding_information 0;
#X text 45 108 ffmpeg -i input.mp4 -vcodec libx264 -x264-params keyint=2
output.mp4, f 75;
#X text 45 214 -t duration (input/output), f 75;
#X text 45 243 -to hh:mm:ss, f 75;
#X text 45 142 Cut a sequence command (before -i):;
#X text 45 171 -ss hh:mm:ss (secs_to_skip) When used as an input option
(before -i) \, seeks in this input file to position., f 75;
#X text 45 312 -vf scale=640:480 (change resolution \, 640:-1 to keep
aspect ratio), f 75;
#X text 45 419 ffmpeg -ss hh:mm:ss -to hh:mm:ss -i input.mp4 -vf scale=640:480
-preset slow -crf 18 -vcodec libx264 -x264-params keyint=2 output.mp4
, f 75;
#X text 45 341 -preset slow -crf 18 (Very high quality), f 75;
#X text 45 390 Example:, f 75;
#X text 45 282 Resize:;
#X text 45 89 Good ffmpeg encoding with smooth framerate command:;
#X text 45 361 -ar 44100 (audiorate), f 75;
#X text 45 16 For smooth playback and frame by frame \, use PhotoJPG/Animation/Mjpeg
codec or set every frame as keyframe in your video exporter. On Apple
computer \, use Apple ProRes if possible., f 72;
#X text 46 485 -filter:v "setpts=0.5*PTS";
#X text 46 465 Two times faster:;
#X restore 504 436 pd Encoding_information;
#N canvas 975 420 305 198 Play_from->to_with_line 0;
#X obj 24 85 line;
#X floatatom 24 109 5 0 0 0 - - -;
#X msg 24 54 0 \, 123 2000;
#X text 20 30 ex: play from frame 0 to 123 in 2sec;
#X text 65 110 go to frame...;
#X connect 0 0 1 0;
#X connect 2 0 0 0;
#X restore 503 413 pd Play_from->to_with_line;
#X connect 4 0 7 0;
#X connect 7 0 6 0;
#X connect 7 1 8 0;
#X connect 7 2 17 0;
#X connect 17 0 15 0;
#X connect 17 1 10 0;
#X connect 17 2 11 0;
#X connect 17 3 14 0;
#X connect 17 4 12 0;
#X connect 17 5 13 0;
#X connect 17 6 16 0;
#X connect 17 7 18 0;
#X connect 20 0 7 0;
#X connect 21 0 7 1;
#X connect 22 0 7 0;
#X connect 23 0 26 0;
#X connect 24 0 23 0;
#X connect 24 0 7 0;
#X connect 25 0 7 0;
#X connect 26 0 7 0;
#X connect 27 0 7 0;
#X connect 28 0 7 0;
#X connect 30 0 31 0;
#X connect 30 0 7 0;
#X connect 31 0 7 0;
#X connect 32 0 30 0;
#X connect 32 0 7 0;
#X connect 33 0 7 0;
#X connect 35 0 7 0;
#X connect 37 0 7 0;
#X connect 38 0 7 0;
#X connect 39 0 7 0;
#X connect 40 0 7 0;
#X connect 41 0 7 0;
#X connect 43 0 47 0;
#X connect 44 0 47 0;
#X connect 47 0 7 0;
#X connect 50 0 7 0;
#X connect 51 0 7 0;
