#N canvas 573 347 637 355 12;
#X declare -lib ofelia;
#X obj 9 10 cnv 15 600 60 empty empty empty 20 12 0 14 -233017 -66577
0;
#X obj 462 45 declare -lib ofelia;
#X obj 21 105 of.mouse, f 18;
#X floatatom 144 147 5 0 0 0 - - -;
#X text 187 145 1 = left clic;
#X text 187 155 2 = middle clic;
#X text 187 165 3 = right clic;
#X floatatom 21 188 5 0 0 1 X - -;
#X floatatom 88 187 5 0 0 1 Y - -;
#X obj 21 146 unpack 0 0;
#X text 29 125 XY;
#N canvas 604 193 602 585 WORLD/PIXEL/NORMALIZED_mode? 0;
#X obj 19 248 of.mouse -1, f 13;
#X floatatom 19 300 5 0 0 1 X - -;
#X floatatom 86 299 5 0 0 1 Y - -;
#X obj 19 272 unpack 0 0;
#X floatatom 19 140 5 0 0 1 X - -;
#X floatatom 86 139 5 0 0 1 Y - -;
#X obj 19 112 unpack 0 0;
#X obj 19 88 of.mouse 1, f 13;
#X text 19 323 (0 \, 0 is at top left corner of window), f 67;
#X floatatom 24 506 5 0 0 1 X - -;
#X floatatom 91 505 5 0 0 1 Y - -;
#X obj 24 478 unpack 0 0;
#X obj 24 434 of.mouse 1 1, f 13;
#X text 128 436 -> This is always between 0 (leftmost pixel and 1(rightmost
pixel);
#X text 24 529 (0 \, 0 is corner top left of window \, 1 \, 1 is maximum
bottom right), f 67;
#X text 24 398 Normalized to 0-1 range for X (width) and Y (height)
for every windows size.;
#X text 18 15 First argument: draw order in WORLD mode;
#X text 123 90 -> This is WORLD (center) based coordinate;
#X text 123 250 -> This is PIXEL (corner) based coordinate;
#X obj 1 14 cnv 15 600 20 empty empty empty 20 12 0 14 -233017 -66577
0;
#X text 18 15 First argument: draw order in WORLD mode;
#X obj 2 374 cnv 15 600 20 empty empty empty 20 12 0 14 -233017 -66577
0;
#X text 15 375 Second argument: activate NORMALIZED mode;
#X text 147 137 -> 0 \, 0 is at CENTER of window;
#X text 19 195 - if draw order is < 0 and > 1000 = mouse X and Y are
PIXEL CORNER MODE (center is top left \, easier for screen & GUI),
f 78;
#X text 20 37 - if coordinate-mode is between 0 and 1000 = get X and
Y in WORLD CENTER MODE (center coordinate = 0 \, 0 \, 0) \, like [of.draw]
positions., f 79;
#X connect 0 0 3 0;
#X connect 3 0 1 0;
#X connect 3 1 2 0;
#X connect 6 0 4 0;
#X connect 6 1 5 0;
#X connect 7 0 6 0;
#X connect 11 0 9 0;
#X connect 11 1 10 0;
#X connect 12 0 11 0;
#X restore 10 291 pd WORLD/PIXEL/NORMALIZED_mode?;
#X text 21 19 Mouse position in world mode / pixel mode / normalized
mode;
#X obj 518 19 of.window 1;
#X obj 497 21 tgl 15 0 empty empty empty 17 7 0 10 -262144 -1 -1 0
1;
#X text 409 122 -> no perspective;
#X text 396 158 get mouse position X \, Y;
#X text 237 291 -> click to see how to change coordinate system;
#X text 22 84 default is center screen mode;
#X text 20 215 0 \, 0 = center of screen;
#X text 21 37 Arguments: coordinate-mode \, normalize. (default 1 0)
;
#X obj 328 255 of.text mouse 20 center;
#X msg 398 209 position \$1 \$2 \, text x:\$1 y:\$2;
#X text 400 234 set position X \, Y and text;
#X obj 328 123 of.ortho 1;
#X obj 328 91 of.draw;
#X obj 398 177 of.mouse;
#X connect 2 0 9 0;
#X connect 2 1 3 0;
#X connect 9 0 7 0;
#X connect 9 1 8 0;
#X connect 14 0 13 0;
#X connect 22 0 21 0;
#X connect 24 0 21 0;
#X connect 25 0 24 0;
#X connect 26 0 22 0;
