#N canvas 404 23 876 755 12;
#X obj 15 3 inlet;
#X obj 15 744 outlet;
#X obj 94 2 inlet;
#X obj 656 741 outlet;
#X msg 94 23 frame \$1;
#X text 618 725 RI;
#N canvas 0 23 563 185 Notes 0;
#X text 32 117 https://forum.openframeworks.cc/t/autoplay-behaviour-of-ofvideoplayer/35905
;
#X text 15 75 - Blank picture after windows re-creation (temp fix:
re-open in setup), f 70;
#X text 14 21 - Current frames returns a negative value on the last
frame (temp fix is to do ofClamp), f 71;
#X text 15 95 - Always autoplay after loading a file pb (OSX but not
on windows):, f 70;
#X text 14 56 - play backward have some jittery frames (might depends
on codec?), f 71;
#X restore 187 10 pd Notes;
#X obj 15 45 ofelia d -c12 videoplayer-\$0 \; local canvas = ofCanvas(this)
\; local args = canvas:getArgs() \; local outlet = ofOutlet(this) \;
local filename \, start \, loop \, speed \, position = args[1] \, args[2]
\, args[3] \, args[4] \, args[5] \; local loaded \, play = 0 \, 0 \;
local videoplayer\$0 = ofVideoPlayer() \; \; function M.new() \; ofWindow.addListener("setup"
\, this) \; if args[1] == nil then print("[of.movie] : No file") else
M.open(filename) end \; if args[4] == nil then speed = 1 end \; if
args[2] == nil then start = 0 end \; if args[3] == nil then loop =
0 end end \; \; function M.free() \; ofWindow.removeListener("setup"
\, this) \; videoplayer\$0:close() end \; \; function M.setup() if
ofWindow.exists then if filename ~= nil then M.open(filename) end end
end \; \; function M.open(string) ofSetDataPathRoot(ofCanvas(this \,
1):getDir()) filename = string \; if ofWindow.exists then videoplayer\$0:close()
videoplayer\$0:load(filename) end \; if start == 1 then videoplayer\$0:setSpeed(speed)
else videoplayer\$0:setSpeed(0) end \; if (videoplayer\$0:isLoaded())
then \; print("loaded " .. filename)end \; end \; function M.update()
videoplayer\$0:update() end \; function M.play() videoplayer\$0:setSpeed(speed)
videoplayer\$0:play() end \; function M.stop() videoplayer\$0:stop()
end \; function M.pause() videoplayer\$0:setPaused(true) end \; function
M.speed(f) speed = f videoplayer\$0:setSpeed(speed) end \; function
M.frame(float) videoplayer\$0:setFrame(float) end \; function M.position(f)
position = f videoplayer\$0:setPosition(position) end \; function M.volume(float)
videoplayer\$0:setVolume(float) end \; function M.loop(float) loop
= float end \; function M.close() videoplayer\$0:close() end \; function
M.get() outlet:outletList(1 \, ofTable (videoplayer\$0:isLoaded() \,
videoplayer\$0:isPlaying() \, ofClamp(videoplayer\$0:getCurrentFrame()
\, 0 \, videoplayer\$0:getTotalNumFrames()) \, videoplayer\$0:getTotalNumFrames()
\, videoplayer\$0:getWidth() \, videoplayer\$0:getHeight() \, videoplayer\$0:getDuration()))
end \; \; function M.bang() \; if loop == 0 then videoplayer\$0:setLoopState(OF_LOOP_NONE)
end \; if loop == 1 then videoplayer\$0:setLoopState(OF_LOOP_NORMAL)
end \; if loop == 2 then videoplayer\$0:setLoopState(OF_LOOP_PALINDROME)
end \; videoplayer\$0:update() \; videoplayer\$0:bind() \; outlet:outletBang(0)
\; videoplayer\$0:unbind() \; end \;;
#X f 126;
#X connect 0 0 7 0;
#X connect 2 0 4 0;
#X connect 4 0 7 0;
#X connect 7 0 1 0;
#X connect 7 1 3 0;
