#N canvas 501 129 722 649 12;
#X declare -lib ofelia;
#X obj 9 10 cnv 15 600 60 empty empty empty 20 12 0 14 -233017 -66577
0;
#X msg 62 134 play;
#X msg 62 159 pause;
#X msg 62 184 stop;
#X msg 136 291 get;
#X obj 321 105 openpanel;
#X obj 321 83 bng 15 250 50 0 empty empty empty 17 7 0 10 -262144 -1
-1;
#X floatatom 233 438 5 0 0 0 isplaying - -;
#X floatatom 258 468 5 0 0 0 currentframe - -;
#X floatatom 307 525 5 0 0 0 width(px) - -;
#X floatatom 332 555 5 0 0 0 height(px) - -;
#X text 388 134 absolute paths;
#X msg 138 185 speed 2;
#X floatatom 209 296 5 0 0 0 - - -;
#X floatatom 282 495 5 0 0 0 totalframe - -;
#X text 128 363 get method:;
#X floatatom 209 408 5 0 0 0 isloaded - -;
#X obj 467 42 declare -lib ofelia;
#X msg 322 184 volume 1;
#X msg 321 134 open \$1;
#X msg 62 210 close;
#X msg 138 161 loop 1;
#X msg 138 208 speed -1;
#X text 396 184 sound volume 0 -1;
#X floatatom 320 234 5 0 0 0 - - -;
#X msg 320 254 position \$1;
#X floatatom 356 580 5 0 0 0 duration(s) - -;
#X obj 209 384 unpack 0 0 0 0 0 0 0, f 21;
#X text 468 170 open relative paths;
#X text 364 232 position from 0 to 1;
#X obj 323 215 hsl 128 15 0 1 0 0 empty empty empty -2 -8 0 10 -262144
-1 -1 0 1;
#X text 343 83 load a file...;
#X obj 521 16 of.window 1;
#X msg 321 159 open data/video.mov;
#X text 188 162 loop on;
#X text 164 289 infos;
#X obj 30 93 of.draw;
#X msg 138 136 frame 30;
#X obj 30 339 of.movie2 data/video.mov;
#X text 253 326 -> To make it smooth: mp4 : set every frame a keyframe
in your video exporter \, or use PhotoJPG/Animation/Mjpeg codec.;
#X text 203 136 jump to frame...;
#X text 252 292 Jump to frame... (windows user might need to "pause"
or "play" before);
#X text 135 83 play from start;
#X msg 136 106 frame 0 \, speed 1 \, play;
#X msg 136 237 frame 60 \, speed -1 \, play;
#X text 135 256 play from end reverse;
#X text 28 47 Arguments: filename \, autostart \, loopmode \, speed
;
#X msg 434 252 update;
#N canvas 627 188 653 565 draw 0;
#X floatatom 41 9 5 0 0 0 - - -;
#X msg 70 94 drawsubsection 1 100 0 100 100 120 200;
#X obj 74 135 of.mouse;
#X text 242 30 active \, X \, Y \, Z \, width \, height;
#X text 349 92 active \, posX \, posY \, witdh \, height \, cropfromX
\, cropfromY \, posCropX \, posCropY, f 42;
#X msg 76 291 anchorpoint \$1 \$1;
#X floatatom 76 263 5 0 0 0 - - -;
#X text 82 7 pos Z;
#X text 117 263 change anchor point;
#X text 361 186 active \, posX \, posY \, witdh \, height \, cropfromX
\, cropfromY \, posCropX \, posCropY, f 42;
#X msg 41 34 draw 1 0 -100 \$1 100 100;
#X msg 59 63 draw 0 0 0;
#X msg 73 227 drawsubsection 0 0 0 0 0 0 0;
#X text 288 227 Desactivate drawsubsection;
#X text 149 63 Desactivate draw;
#X obj 20 319 outlet;
#X obj 74 162 spigot;
#X obj 149 147 tgl 15 0 empty empty empty 17 7 0 10 -262144 -1 -1 0
1;
#X msg 74 190 drawsubsection 1 -100 110 200 100 \$1 \$2;
#X text 175 144 -> acivate this to sroll in image with mouse;
#X connect 0 0 10 0;
#X connect 1 0 15 0;
#X connect 2 0 16 0;
#X connect 5 0 15 0;
#X connect 6 0 5 0;
#X connect 10 0 15 0;
#X connect 11 0 15 0;
#X connect 12 0 15 0;
#X connect 16 0 18 0;
#X connect 17 0 16 1;
#X connect 18 0 15 0;
#X restore 436 400 pd draw;
#X msg 436 430 getpixel 10 10;
#X text 436 451 get pixel X \, Y from middle outlet;
#X obj 30 488 of.plane 400 300;
#X text 28 15 A movie player with texture and pixel access, f 52;
#X connect 1 0 38 0;
#X connect 2 0 38 0;
#X connect 3 0 38 0;
#X connect 4 0 38 0;
#X connect 5 0 19 0;
#X connect 6 0 5 0;
#X connect 12 0 38 0;
#X connect 13 0 38 1;
#X connect 18 0 38 0;
#X connect 19 0 38 0;
#X connect 20 0 38 0;
#X connect 21 0 38 0;
#X connect 22 0 38 0;
#X connect 24 0 25 0;
#X connect 25 0 38 0;
#X connect 27 0 16 0;
#X connect 27 1 7 0;
#X connect 27 2 8 0;
#X connect 27 3 14 0;
#X connect 27 4 9 0;
#X connect 27 5 10 0;
#X connect 27 6 26 0;
#X connect 30 0 24 0;
#X connect 33 0 38 0;
#X connect 36 0 38 0;
#X connect 37 0 38 0;
#X connect 38 0 51 0;
#X connect 38 2 27 0;
#X connect 43 0 38 0;
#X connect 44 0 38 0;
