#N canvas 634 172 626 454 12;
#X declare -lib ofelia;
#X obj 9 10 cnv 15 600 60 empty empty empty 20 12 0 14 -233017 -66577
0;
#X obj 17 109 of.draw;
#X msg 453 185 width 50;
#X floatatom 145 323 5 0 50 2 grid_size - -;
#X floatatom 273 322 5 0 0 2 noiseamount - -;
#X text 432 122 list of all parameters;
#X text 449 164 Single parameter;
#X msg 433 146 100 400 5 5 center line 3;
#X obj 462 45 declare -lib ofelia;
#X msg 210 137 orientation 45 0 0;
#X msg 210 116 position 0 100 -100;
#X msg 91 129 draw line;
#X msg 91 150 draw point;
#X msg 91 108 draw fill;
#X text 108 91 style;
#X msg 467 234 debug \$1;
#X obj 467 213 tgl 15 0 empty empty empty 17 7 0 10 -262144 -1 -1 0
1;
#X text 522 176 ...;
#X text 487 211 Show center axis;
#X msg 210 179 lookat 180 120 60;
#X msg 91 257 texture \$1;
#X obj 91 240 tgl 15 0 empty empty empty 17 7 0 10 -262144 -1 -1 0
1;
#X msg 210 158 scale 3 2 2;
#X text 209 94 local transformation;
#X obj 518 19 of.window 1;
#X obj 497 21 tgl 15 0 empty empty empty 17 7 0 10 -262144 -1 -1 0
1;
#X text 184 327 carefull!;
#X text 25 20 Draw a plane with noise (experimental);
#X obj 433 350 of.noiseplane;
#X msg 210 254 mode \$1;
#X obj 210 228 hradio 15 1 0 8 empty empty empty 0 -8 0 10 -262144
-1 -1 0;
#X msg 356 269 time \$1;
#X floatatom 356 245 5 0 0 0 - - -;
#X obj 356 212 i;
#X obj 390 214 + 1;
#X obj 356 184 metro 40;
#X obj 356 155 tgl 15 0 empty empty empty 17 7 0 10 -262144 -1 -1 1
1;
#X text 207 207 Mesh Mode;
#X msg 91 192 stroke 5;
#X text 373 152 animate;
#X text 24 40 Args: grid_size \, noiseamount \, drawmode \, strokeweight
\, mode;
#X obj 17 351 of.noiseplane 10 10 line, f 37;
#X connect 1 0 41 0;
#X connect 2 0 28 0;
#X connect 3 0 41 1;
#X connect 4 0 41 2;
#X connect 7 0 28 0;
#X connect 9 0 41 0;
#X connect 10 0 41 0;
#X connect 11 0 41 0;
#X connect 12 0 41 0;
#X connect 13 0 41 0;
#X connect 15 0 28 0;
#X connect 16 0 15 0;
#X connect 19 0 41 0;
#X connect 20 0 41 0;
#X connect 21 0 20 0;
#X connect 22 0 41 0;
#X connect 25 0 24 0;
#X connect 29 0 41 0;
#X connect 30 0 29 0;
#X connect 31 0 41 0;
#X connect 32 0 31 0;
#X connect 33 0 34 0;
#X connect 33 0 32 0;
#X connect 34 0 33 1;
#X connect 35 0 33 0;
#X connect 36 0 35 0;
#X connect 38 0 41 0;
