#N canvas 466 393 851 522 12;
#X obj 21 15 inlet;
#X obj 21 450 outlet;
#X text 731 442 RI, f 4;
#X obj 88 16 inlet;
#X msg 88 37 ortho \$1;
#X obj 21 62 ofelia d view-\$0 \; local c = ofCanvas(this) \; local
args = c:getArgs() \; local outlet = ofOutlet(this) \; view\$0 = ofEasyCam()
\; local ortho = args[1] \; view\$0:disableMouseInput() view\$0:setDistance(400)
view\$0:removeAllInteractions() \; \; function M.new() \; ofWindow.addListener("setup"
\, this) \; if args[1] == nil then ortho = 1 end \; M.setup() \; end
\; function M.free() \; ofWindow.removeListener("setup" \, this) \;
end \; \; function M.setup() \; end \; \; function M.ortho(f) ortho
= f end \; \; function M.bang() \; if ortho > 0 then view\$0:enableOrtho()
view\$0:beginCamera() \; outlet:outletBang(0) \; view\$0:disableOrtho()
view\$0:endCamera() else outlet:outletBang(0) end end \;;
#X f 107;
#X connect 0 0 5 0;
#X connect 3 0 4 0;
#X connect 4 0 5 0;
#X connect 5 0 1 0;
