#N canvas 508 56 729 504 12;
#X declare -lib ofelia;
#X obj 9 10 cnv 15 600 60 empty empty empty 20 12 0 14 -233017 -66577
0;
#X obj 27 99 of.draw;
#X text 411 98 list of all parameters;
#X text 432 169 Single parameter;
#X obj 462 45 declare -lib ofelia;
#X msg 230 127 orientation 45 0 0;
#X msg 230 106 position 0 100 -100;
#X msg 230 148 scale 1 2 2;
#X text 229 84 transformation;
#X msg 111 119 draw line;
#X msg 111 140 draw point;
#X msg 111 98 draw fill;
#X text 128 81 style;
#X msg 450 239 debug \$1;
#X obj 450 218 tgl 15 0 empty empty empty 17 7 0 10 -262144 -1 -1 1
1;
#X text 505 181 ...;
#X text 470 216 Show center axis;
#X msg 230 169 lookat 180 120 60;
#X msg 231 229 texture \$1;
#X obj 231 208 tgl 15 0 empty empty empty 17 7 0 10 -262144 -1 -1 0
1;
#X obj 27 411 of.quad, f 49;
#X obj 27 215 of.videoin;
#X obj 416 315 of.quad;
#X obj 516 19 of.window 1;
#X floatatom 112 351 5 0 0 0 - - -;
#X msg 112 224 mode \$1;
#X floatatom 112 198 5 0 0 0 - - -;
#X text 151 197 polymode;
#X msg 112 381 -100 \$1;
#X msg 111 172 stroke 8;
#N canvas 560 163 559 249 Texture_coord 0;
#X obj 30 169 outlet;
#X floatatom 30 79 5 0 0 0 - - -;
#X msg 30 112 tex0 \$1 0;
#X text 22 35 (default 1 \, 0);
#X text 146 35 (default 0 \, 0);
#X text 272 35 (default 0 \, 1);
#X msg 279 112 tex2 0 1;
#X text 394 35 (default 1 \, 1);
#X text 22 15 Top left;
#X text 272 15 Bottom right;
#X text 146 15 Top right;
#X floatatom 161 79 5 0 0 0 - - -;
#X msg 161 112 tex1 \$1 \$1;
#X msg 392 112 tex3 \$1 \$1;
#X floatatom 392 79 5 0 0 0 - - -;
#X text 394 15 Bottom left;
#X text 147 174 Note: The Y is reverted (0 on top);
#X connect 1 0 2 0;
#X connect 2 0 0 0;
#X connect 6 0 0 0;
#X connect 11 0 12 0;
#X connect 12 0 0 0;
#X connect 13 0 0 0;
#X connect 14 0 13 0;
#X restore 108 297 pd Texture_coord;
#N canvas 374 178 460 249 Color 0;
#X obj 30 169 outlet;
#X msg 50 92 color1 1 0 0 1;
#X msg 70 122 color2 1 1 0;
#X msg 90 152 color3 0 1 0 0;
#X text 178 121 Bottom right;
#X text 208 151 Bottom left;
#X text 175 88 Top right;
#X msg 30 62 color0 0 1 1 0.3;
#X text 175 58 Top left;
#X text 22 20 Note: color in R G B A values;
#X connect 1 0 0 0;
#X connect 2 0 0 0;
#X connect 3 0 0 0;
#X connect 7 0 0 0;
#X restore 108 272 pd Color;
#X text 285 357 Bottom right;
#X text 189 351 Top right;
#X text 391 364 Bottom left;
#X msg 197 380 240 120;
#X msg 282 382 100 -240;
#X msg 367 385 -300 -100;
#X text 24 449 (-100 \, 100 \, 0);
#X text 138 448 (100 \, 100 \, 0);
#X text 268 449 (100 \, -100 \, 0);
#X text 407 449 (-100 \, -100 \, 0);
#X text 24 432 default corners:;
#X text 105 326 Top left corner (X \, Y \, Z or X \, Y);
#X msg 417 117 list -100 100 0 100 100 0 100 -100 0 -300 -100 0, f
25;
#X msg 436 190 stroke 4;
#X text 25 20 Draw a simple quad with color & texture;
#X text 24 40 Args: not yet implemented...;
#X connect 1 0 21 0;
#X connect 5 0 20 0;
#X connect 6 0 20 0;
#X connect 7 0 20 0;
#X connect 9 0 20 0;
#X connect 10 0 20 0;
#X connect 11 0 20 0;
#X connect 13 0 22 0;
#X connect 14 0 13 0;
#X connect 17 0 20 0;
#X connect 18 0 20 0;
#X connect 19 0 18 0;
#X connect 21 0 20 0;
#X connect 24 0 28 0;
#X connect 25 0 20 0;
#X connect 26 0 25 0;
#X connect 28 0 20 1;
#X connect 29 0 20 0;
#X connect 30 0 20 0;
#X connect 31 0 20 0;
#X connect 35 0 20 2;
#X connect 36 0 20 3;
#X connect 37 0 20 4;
#X connect 44 0 22 0;
#X connect 45 0 22 0;
