#N canvas 259 124 724 532 12;
#X obj 20 16 inlet;
#X obj 20 499 outlet;
#X obj 101 16 inlet;
#X obj 161 15 inlet;
#X obj 223 15 inlet;
#X msg 161 36 y \$1;
#X msg 101 36 x \$1;
#X msg 223 36 z \$1;
#X text 424 454 RI;
#X obj 20 73 ofelia d rotate-\$0 \; local c = ofCanvas(this) \; local
args = c:getArgs() \; local rot \, debug = ofVec3f() \, 0 \; \; function
M.new() \; if args[1] == nil then x = 0 else rot.x = args[1] end \;
if args[2] == nil then y = 0 else rot.y = args[2] end \; if args[3]
== nil then z = 0 else rot.z = args[3] end \; end \; function M.x(float)
rot.x=float end \; function M.y(float) rot.y=float end \; function
M.z(float) rot.z=float end \; function M.debug(float) debug=float*100
end \; \; function M.list(l) rot:set(table.unpack(l)) \; end \; \;
function M.bang() \; ofRotateXDeg(rot.x) \; ofRotateYDeg(rot.y) \;
ofRotateZDeg(rot.z) \; if debug > 0 then ofDisableLighting() ofDrawRotationAxes(debug
\, 1 \, 30) end if _lighting == 1 then ofEnableLighting() end \; return
(anything) \; end \;;
#X f 91;
#X connect 0 0 9 0;
#X connect 2 0 6 0;
#X connect 3 0 5 0;
#X connect 4 0 7 0;
#X connect 5 0 9 0;
#X connect 6 0 9 0;
#X connect 7 0 9 0;
#X connect 9 0 1 0;
