#N canvas 565 117 626 395 12;
#X declare -lib ofelia;
#X obj 9 10 cnv 15 600 60 empty empty empty 20 12 0 14 -233017 -66577
0;
#X floatatom 75 136 5 0 0 0 - - -;
#X text 74 121 valueX;
#X floatatom 123 136 5 0 0 0 - - -;
#X text 122 121 valueY;
#X floatatom 171 136 5 0 0 0 - - -;
#X text 170 121 valueZ;
#X obj 27 89 of.draw;
#X text 412 145 Single axis;
#X text 449 115 list of xyz;
#X msg 363 145 x 30;
#X msg 343 115 45 30 90;
#X obj 343 210 of.rotate 2 1 1, f 21;
#X obj 462 45 declare -lib ofelia;
#X text 25 30 Rotation matrix X \, Y \, Z;
#X text 23 46 Arguments: rotationX \, rotationY \, rotationZ;
#X obj 27 168 of.rotate 1 1 20, f 21;
#X obj 27 241 of.rectangle 100 100 line;
#X text 38 198 -> all sub-tree shapes will be rotated, f 25;
#X msg 376 180 debug 1;
#X obj 518 19 of.window 1;
#X obj 497 21 tgl 15 0 empty empty empty 17 7 0 10 -262144 -1 -1 0
1;
#X text 440 181 show axis;
#X floatatom 77 280 5 0 0 0 - - -;
#X msg 77 302 orientation \$1 0 0;
#X text 118 282 -> local orientation, f 23;
#X text 194 167 -> global rotation;
#X obj 27 335 of.circle 10;
#X connect 1 0 16 1;
#X connect 3 0 16 2;
#X connect 5 0 16 3;
#X connect 7 0 16 0;
#X connect 10 0 12 0;
#X connect 11 0 12 0;
#X connect 16 0 17 0;
#X connect 17 0 27 0;
#X connect 19 0 12 0;
#X connect 21 0 20 0;
#X connect 23 0 24 0;
#X connect 24 0 27 0;
