#N canvas 417 34 863 709 12;
#X obj 31 14 inlet;
#X obj 31 622 outlet;
#X obj 93 14 inlet;
#X obj 163 14 inlet;
#X text 800 605 RI;
#X obj 243 14 inlet;
#X msg 243 40 radius \$1;
#X msg 93 40 width \$1;
#X msg 163 40 height \$1;
#X obj 31 75 ofelia d rectrounded-\$0 \; local c = ofCanvas(this) \;
local args = c:getArgs() \; local node\$0 = ofNode() \; local width
\, height \, radius \, rectmode \, drawmode \, strokeweight \, debug
= args[1] \, args[2] \, args[3] \, args[4] \, args[5] \, args[6] \;
local position \, orientation \, scale = ofVec3f(0 \, 0 \, 0) \, ofVec3f(0
\, 0 \, 0) \, ofVec3f(1 \, 1 \, 1) \; \; function M.new() \; if args[1]
== nil then width = 100 end \; if args[2] == nil then height = 100
end \; if args[3] == nil then radius = 20 end \; if args[4] == nil
then rectmode = "center" end \; if args[5] == nil then drawmode = "fill"
end \; if args[6] == nil then strokeweight = 1 end \; end \; \; function
M.width(f) width=f end \; function M.height(f) height=f end \; function
M.radius(f) radius=f end \; function M.rectmode(s) rectmode = s end
\; function M.draw(s) drawmode = s end \; function M.stroke(f) strokeweight
= f end \; function M.debug(f) debug = f end \; function M.position(l)
position:set (table.unpack(l)) node\$0:setPosition(position:vec3())
end \; function M.orientation(l) orientation:set (table.unpack(l))
node\$0:setOrientation(orientation:vec3()) end \; function M.scale(l)
scale:set (table.unpack(l)) node\$0:setScale(scale:vec3()) end \; function
M.lookat(l) lookat:set (table.unpack(l)) node\$0:lookAt(lookat:vec3())
end \; \; function M.bang() \; ofSetLineWidth(strokeweight) \; if rectmode
== "corner" then ofSetRectMode(OF_RECTMODE_CORNER) end \; if rectmode
== "center" then ofSetRectMode(OF_RECTMODE_CENTER) end \; if drawmode
== "line" then ofNoFill() else ofFill() end \; node\$0:transformGL()
\; ofDrawRectRounded(position:vec3() \, width \, height \, radius)
\; node\$0:restoreTransformGL() \; if debug == 1 then node\$0:draw()
end \; ofFill() \; return anything \; end \;;
#X f 115;
#X connect 0 0 9 0;
#X connect 2 0 7 0;
#X connect 3 0 8 0;
#X connect 5 0 6 0;
#X connect 6 0 9 0;
#X connect 7 0 9 0;
#X connect 8 0 9 0;
#X connect 9 0 1 0;
