#N canvas 604 67 626 418 12;
#X declare -lib ofelia;
#X obj 9 10 cnv 15 600 60 empty empty empty 20 12 0 14 -233017 -66577
0;
#X obj 27 89 of.draw;
#X msg 463 215 width 50;
#X msg 59 130 draw line;
#X msg 59 153 draw point;
#X msg 59 176 draw fill;
#X floatatom 117 295 5 0 0 2 width - -;
#X floatatom 207 295 5 0 0 2 height - -;
#X text 442 129 list of all parameters;
#X text 459 194 Single parameter;
#X floatatom 297 295 5 0 0 2 round - -;
#X obj 443 270 of.rectrounded, f 15;
#X text 26 21 Draw a rounded rectangle;
#X msg 443 154 200 300 30 center fill 4;
#X obj 462 45 declare -lib ofelia;
#X text 63 107 style;
#X msg 170 148 orientation 0 0 45;
#X msg 59 199 stroke 4;
#X text 169 104 local transformation;
#X obj 518 19 of.window 1;
#X obj 497 21 tgl 15 0 empty empty empty 17 7 0 10 -262144 -1 -1 0
1;
#X msg 169 206 mode corner;
#X msg 169 229 mode center;
#X msg 321 161 topleft \$1;
#X floatatom 321 135 5 0 0 0 - - -;
#X msg 321 205 bottomleft 10;
#X msg 321 227 bottomright 90;
#X text 24 40 Args: width \, height \, round \, drawmode \, strokewidth
\, rectmode;
#X text 340 284 four corner (0-90), f 11;
#X text 317 114 radius (0-90);
#X obj 27 321 of.rectrounded 100 100 10 50 90 0 line 1 center;
#X msg 321 183 topright 5;
#X msg 170 170 scale 1 2 1;
#X msg 170 126 position -10 20 0;
#X connect 1 0 30 0;
#X connect 2 0 11 0;
#X connect 3 0 30 0;
#X connect 4 0 30 0;
#X connect 5 0 30 0;
#X connect 6 0 30 1;
#X connect 7 0 30 2;
#X connect 10 0 30 3;
#X connect 13 0 11 0;
#X connect 16 0 30 0;
#X connect 17 0 30 0;
#X connect 20 0 19 0;
#X connect 21 0 30 0;
#X connect 22 0 30 0;
#X connect 23 0 30 0;
#X connect 24 0 23 0;
#X connect 25 0 30 0;
#X connect 26 0 30 0;
#X connect 31 0 30 0;
#X connect 32 0 30 0;
#X connect 33 0 30 0;
