#N canvas 593 77 626 352 12;
#X declare -lib ofelia;
#X obj 9 10 cnv 15 600 60 empty empty empty 20 12 0 14 -233017 -66577
0;
#X obj 27 89 of.draw;
#X floatatom 108 99 5 0 0 2 repetition_cycles - -;
#X obj 462 45 declare -lib ofelia;
#X obj 27 197 of.translate 10;
#X obj 27 129 of.repeat 10;
#X obj 27 286 of.circle 100 100 line;
#X text 25 20 Repeat the transformation stack;
#X obj 57 227 loadbang;
#X msg 57 256 position -100 0 0;
#X text 24 40 Args: repetition-cycles;
#X floatatom 61 173 5 0 0 2 translate_scale - -;
#X obj 518 19 of.window 1;
#X obj 300 172 tgl 15 0 empty empty empty 17 7 0 10 -262144 -1 -1 0
1;
#N canvas 542 330 450 401 Shuriken_example 0;
#X obj 85 11 of.draw;
#X floatatom 166 106 5 0 0 2 repetition_cycles - -;
#X obj 85 136 of.repeat 10;
#X floatatom 119 180 5 0 0 2 translate_scale - -;
#X obj 85 248 of.rotate 0 0 30;
#X obj 85 204 of.translate 30;
#X obj 85 93 spigot;
#X obj 124 70 tgl 15 0 empty empty empty 17 7 0 10 -262144 -1 -1 0
1;
#X obj 85 270 of.color 255 255 255 100;
#X obj 85 316 of.triangle 100 100;
#X text 141 68 -> activate;
#X obj 124 40 inlet;
#X floatatom 236 231 5 0 0 2 rotateZ - -;
#X connect 0 0 6 0;
#X connect 1 0 2 1;
#X connect 2 0 5 0;
#X connect 3 0 5 1;
#X connect 4 0 8 0;
#X connect 5 0 4 0;
#X connect 6 0 2 0;
#X connect 7 0 6 1;
#X connect 8 0 9 0;
#X connect 11 0 7 0;
#X connect 12 0 4 3;
#X restore 300 195 pd Shuriken_example;
#X text 322 172 activate;
#X connect 1 0 5 0;
#X connect 2 0 5 1;
#X connect 4 0 6 0;
#X connect 5 0 4 0;
#X connect 8 0 9 0;
#X connect 9 0 6 0;
#X connect 11 0 4 1;
#X connect 13 0 14 0;
