#N canvas 625 75 626 416 12;
#X declare -lib ofelia;
#X obj 9 10 cnv 15 600 60 empty empty empty 20 12 0 14 -233017 -66577
0;
#X obj 27 89 of.draw;
#X msg 423 155 width 50;
#X msg 53 131 draw line;
#X msg 53 155 draw point;
#X msg 53 179 draw fill;
#X floatatom 155 282 5 0 0 2 width - -;
#X floatatom 283 283 5 0 0 2 height - -;
#X msg 403 116 100 400 center line 3;
#X text 402 89 list of all parameters;
#X text 419 134 Single parameter;
#X text 25 20 Draw a rectangle;
#X obj 462 45 declare -lib ofelia;
#X msg 190 137 orientation 45 0 0;
#X msg 190 116 position 0 100 -100;
#X msg 190 159 scale 1 2 2;
#X msg 437 214 debug \$1;
#X obj 437 193 tgl 15 0 empty empty empty 17 7 0 10 -262144 -1 -1 1
1;
#X text 457 191 Show center axis;
#X msg 53 203 stroke 4;
#X msg 190 181 lookat 180 120 60;
#X obj 27 311 of.rectangle 100 100 line 1 center, f 37;
#X text 24 40 Args: width \, height \, drawmode \, strokewidth \, rectmode
;
#X text 28 331 Note: no texture coordinates are implemented yet \,
so use of.plane to use texture;
#X text 190 94 local transformation;
#X obj 518 19 of.window 1;
#X obj 497 21 tgl 15 0 empty empty empty 17 7 0 10 -262144 -1 -1 0
1;
#X text 60 107 style;
#X obj 403 275 of.rectangle;
#X msg 188 213 mode corner;
#X msg 188 237 mode center;
#X connect 1 0 21 0;
#X connect 2 0 28 0;
#X connect 3 0 21 0;
#X connect 4 0 21 0;
#X connect 5 0 21 0;
#X connect 6 0 21 1;
#X connect 7 0 21 2;
#X connect 8 0 28 0;
#X connect 13 0 21 0;
#X connect 14 0 21 0;
#X connect 15 0 21 0;
#X connect 16 0 28 0;
#X connect 17 0 16 0;
#X connect 19 0 21 0;
#X connect 20 0 21 0;
#X connect 26 0 25 0;
#X connect 29 0 21 0;
#X connect 30 0 21 0;
