#N canvas 529 221 626 435 12;
#X declare -lib ofelia;
#X obj 9 10 cnv 15 600 60 empty empty empty 20 12 0 14 -233017 -66577
0;
#X obj 27 89 of.draw;
#X msg 71 123 draw line;
#X msg 71 146 draw point;
#X msg 71 169 draw fill;
#X floatatom 134 341 5 0 0 2 radius - -;
#X floatatom 241 342 5 0 0 2 resolution - -;
#X text 402 89 list of all parameters;
#X obj 27 368 of.sphere 100 10 line 1, f 31;
#X obj 462 45 declare -lib ofelia;
#X msg 210 147 orientation 45 0 0;
#X msg 210 126 position 0 100 -100;
#X text 88 105 style;
#X text 419 144 Single parameter;
#X msg 437 334 debug \$1;
#X obj 437 313 tgl 15 0 empty empty empty 17 7 0 10 -262144 -1 -1 0
1;
#X text 492 166 ...;
#X text 457 311 Show center axis;
#X msg 423 165 radius 50;
#X text 25 20 Draw a 3d Sphere;
#X text 25 40 Args: radius \, resolution \, drawmode \, strokeweight
;
#X msg 403 116 100 10 1 line 3;
#X msg 71 215 stroke 2;
#X msg 71 238 normalsize 40;
#X msg 71 192 draw normal;
#X msg 72 304 texturemap 0 0 1 1;
#X msg 71 279 texture \$1;
#X obj 71 262 tgl 15 0 empty empty empty 17 7 0 10 -262144 -1 -1 0
1;
#X msg 210 189 lookat 180 120 60;
#X msg 210 168 scale 3 1 2;
#X obj 403 360 of.box;
#X text 209 104 local transformation;
#X obj 518 19 of.window 1;
#X obj 497 21 tgl 15 0 empty empty empty 17 7 0 10 -262144 -1 -1 0
1;
#X connect 1 0 8 0;
#X connect 2 0 8 0;
#X connect 3 0 8 0;
#X connect 4 0 8 0;
#X connect 5 0 8 1;
#X connect 6 0 8 2;
#X connect 10 0 8 0;
#X connect 11 0 8 0;
#X connect 14 0 30 0;
#X connect 15 0 14 0;
#X connect 18 0 30 0;
#X connect 21 0 30 0;
#X connect 22 0 8 0;
#X connect 23 0 8 0;
#X connect 24 0 8 0;
#X connect 25 0 8 0;
#X connect 26 0 8 0;
#X connect 27 0 26 0;
#X connect 28 0 8 0;
#X connect 29 0 8 0;
#X connect 33 0 32 0;
