#N canvas 252 175 638 596 12;
#X declare -lib ofelia;
#X obj 9 10 cnv 15 600 60 empty empty empty 20 12 0 14 -233017 -66577
0;
#X msg 60 114 play;
#X msg 70 139 pause;
#X msg 90 184 stop;
#X msg 149 284 get;
#X obj 261 105 openpanel;
#X obj 261 83 bng 15 250 50 0 empty empty empty 17 7 0 10 -262144 -1
-1;
#X floatatom 96 449 5 0 0 0 isplaying - -;
#X floatatom 132 479 5 0 0 0 currentposition - -;
#X text 328 134 absolute paths;
#X msg 110 232 speed 2;
#X floatatom 260 320 5 0 0 0 - - -;
#X floatatom 169 506 5 0 0 0 speed - -;
#X floatatom 60 419 5 0 0 0 isloaded - -;
#X obj 467 42 declare -lib ofelia;
#X msg 262 184 volume 1;
#X msg 261 134 open \$1;
#X text 336 184 sound volume 0 -1;
#X floatatom 260 228 5 0 0 0 - - -;
#X msg 260 248 position \$1;
#X text 304 226 position from 0 to 1;
#X text 28 47 Arguments: file \, autostart \, loopmode;
#X obj 263 209 hsl 128 15 0 1 0 0 empty empty empty -2 -8 0 10 -262144
-1 -1 0 1;
#X msg 80 162 resume;
#X obj 60 395 unpack 0 0 0 0, f 16;
#X text 101 113 from start;
#X obj 475 225 tgl 15 0 empty empty empty 17 7 0 10 -262144 -1 -1 0
1;
#X msg 475 245 multi \$1;
#X text 494 223 play simultaneous files;
#X msg 473 282 unload;
#X text 28 15 A simple sound player (mp3 \, wav \, mp4...), f 52;
#X text 409 160 open ...;
#X text 113 138 need resume;
#X text 283 83 open any file...;
#X text 263 489 This will play sound out of PureData!;
#X text 263 509 (direct to soundcard);
#X msg 261 159 open data/piece.wav;
#X obj 260 410 print;
#X obj 60 349 of.soundplayer data/sound.mp3;
#X text 257 303 position (in ms), f 55;
#X text 280 379 end of sound (last one in multi);
#X text 181 284 infos;
#X text 69 370 <- get infos;
#X text 133 160 continue;
#X msg 120 255 speed 0.5;
#X text 191 256 half;
#X text 168 232 2x;
#X text 154 208 loop 0/1;
#X msg 100 208 loop 1;
#X text 136 184 stop;
#X obj 261 373 bng 15 250 50 0 empty empty empty 17 7 0 10 -262144
-1 -1;
#X text 531 282 free the player;
#X connect 1 0 38 0;
#X connect 2 0 38 0;
#X connect 3 0 38 0;
#X connect 4 0 38 0;
#X connect 5 0 16 0;
#X connect 6 0 5 0;
#X connect 10 0 38 0;
#X connect 11 0 38 1;
#X connect 15 0 38 0;
#X connect 16 0 38 0;
#X connect 18 0 19 0;
#X connect 19 0 38 0;
#X connect 22 0 18 0;
#X connect 23 0 38 0;
#X connect 24 0 13 0;
#X connect 24 1 7 0;
#X connect 24 2 8 0;
#X connect 24 3 12 0;
#X connect 26 0 27 0;
#X connect 27 0 38 0;
#X connect 36 0 38 0;
#X connect 38 0 24 0;
#X connect 38 1 50 0;
#X connect 44 0 38 0;
#X connect 48 0 38 0;
#X connect 50 0 37 0;
