#N canvas 577 168 703 613 12;
#X declare -lib ofelia;
#X declare -lib ceammc;
#X declare -stdpath ofelia;
#X declare -stdpath ceammc;
#X declare -stdpath of;
#X declare -stdpath internals;
#X obj 9 10 cnv 15 600 60 empty empty empty 20 12 0 14 -233017 -66577
0;
#X floatatom 78 158 5 0 0 0 - - -;
#X msg 58 130 active \$1;
#X obj 58 107 tgl 15 0 empty empty empty 17 7 0 10 -262144 -1 -1 0
1;
#X floatatom 79 208 5 0 10 0 - - -;
#X msg 79 231 attenuation \$1;
#X msg 113 399 debug \$1;
#X obj 113 377 tgl 15 0 empty empty empty 17 7 0 10 -262144 -1 -1 1
1;
#X obj 130 426 tgl 15 0 empty empty empty 17 7 0 10 -262144 -1 -1 0
1;
#X msg 130 452 smooth \$1;
#X text 148 422 light smothing (default 1), f 29;
#X msg 461 406 ambient \$1 0.5 0.3;
#X floatatom 461 346 5 0 0 0 - - -;
#X text 135 378 show light source (also turn on lighting);
#X text 121 206 light attenuation (default 1);
#X text 76 105 light on/off (default 1);
#X text 499 345 red ambient color;
#X floatatom 461 378 5 0 0 0 - - -;
#X msg 461 430 diffuse 0 0.2 \$1;
#X msg 113 328 cutoff \$1;
#X floatatom 113 305 5 0 0 0 - - -;
#X floatatom 92 257 5 0 127 0 - - -;
#X msg 92 280 spotconcentration \$1;
#X msg 461 454 specular 0 1.5 0.5;
#X text 499 375 Blue diffuse color;
#X text 457 326 color control:;
#X floatatom 245 154 5 0 0 0 - - -;
#X msg 245 177 orientation 0 \$1 0;
#X obj 470 50 declare -lib ofelia;
#X floatatom 487 163 5 0 0 0 size - -;
#X floatatom 569 164 5 0 0 0 geo - -;
#X obj 446 195 of.plane 400 400 100 100;
#X floatatom 500 235 5 0 0 0 size - -;
#X floatatom 555 236 5 0 0 0 geo - -;
#X obj 446 267 of.sphere 100 50;
#X text 545 94 draw objects;
#N canvas 179 358 416 120 declare 0;
#X obj 5 9 declare -lib ceammc;
#X obj 5 72 declare -stdpath ofelia;
#X obj 5 30 declare -stdpath ceammc;
#X obj 5 92 declare -stdpath of;
#X text 149 8 load ceammc library;
#X text 179 28 search new path in application:;
#X obj 5 51 declare -stdpath internals;
#X restore 989 6 pd declare;
#X text 29 567 More infos on lighting: https://openframeworks.cc/documentation/gl/ofLight/
, f 81;
#X text 25 529 Spot light : Light originates from a single point and
spreads outward in a cone of variable diameter and length, f 81;
#X text 16 19 Create a spot light;
#X text 588 452 (default 1 \, 1 \, 1);
#X text 588 430 (default 1 \, 1 \, 1);
#X text 598 407 (default 0.2 \, 0.2 \, 0.2);
#X text 284 155 orientation Y;
#X text 117 159 position X;
#X obj 446 129 of.translate 0 0 -200;
#X obj 446 98 of.draw 1 1;
#X obj 26 84 of.draw 2;
#X msg 403 19 lighting \$1;
#X obj 380 21 tgl 15 0 empty empty empty 17 7 0 10 -262144 -1 -1 0
1;
#X obj 518 19 of.window 1;
#X obj 497 21 tgl 15 0 empty empty empty 17 7 0 10 -262144 -1 -1 0
1;
#X obj 115 353 loadbang;
#X msg 78 181 position \$1 0 100;
#X obj 26 508 of.spotlight 1;
#X text 16 39 Arguments: active \, attenuation \, cutoff \, concentration
\, smooth \, debug (default: 0 1 40 20 1 0);
#X connect 1 0 53 0;
#X connect 2 0 54 0;
#X connect 3 0 2 0;
#X connect 4 0 5 0;
#X connect 5 0 54 0;
#X connect 6 0 54 0;
#X connect 7 0 6 0;
#X connect 8 0 9 0;
#X connect 9 0 54 0;
#X connect 11 0 54 0;
#X connect 12 0 11 0;
#X connect 17 0 18 0;
#X connect 18 0 54 0;
#X connect 19 0 54 0;
#X connect 20 0 19 0;
#X connect 21 0 22 0;
#X connect 22 0 54 0;
#X connect 23 0 54 0;
#X connect 26 0 27 0;
#X connect 27 0 54 0;
#X connect 29 0 31 1;
#X connect 29 0 31 2;
#X connect 30 0 31 3;
#X connect 30 0 31 4;
#X connect 31 0 34 0;
#X connect 32 0 34 1;
#X connect 33 0 34 2;
#X connect 45 0 31 0;
#X connect 46 0 45 0;
#X connect 47 0 54 0;
#X connect 48 0 50 0;
#X connect 49 0 48 0;
#X connect 51 0 50 0;
#X connect 52 0 7 0;
#X connect 53 0 54 0;
