#N canvas 82 148 595 464 12;
#X obj 40 16 inlet;
#X obj 40 409 outlet;
#X obj 121 16 inlet;
#X obj 191 15 inlet;
#X obj 263 15 inlet;
#X msg 191 36 y \$1;
#X msg 121 36 x \$1;
#X msg 263 36 z \$1;
#X text 447 386 RI;
#X obj 40 73 ofelia d scale-\$0 \; local c = ofCanvas(this) \; local
args = c:getArgs() \; local scale \, debug = ofVec3f() \, 0 \; function
M.new() \; if args[1] == nil then scale.x = 1 else scale.x = args[1]
end \; if args[2] == nil then scale.y = 1 else scale.y = args[2] end
\; if args[3] == nil then scale.z = 1 else scale.z = args[3] end \;
end \; function M.x(float) scale.x=float end \; function M.y(float)
scale.y=float end \; function M.z(float) scale.z=float end \; \; function
M.list(l) scale:set(table.unpack(l)) \; end \; \; function M.bang()
\; ofScale(scale.x \, scale.y \, scale.z) \; return (anything) \; end
\;;
#X f 77;
#X connect 0 0 9 0;
#X connect 2 0 6 0;
#X connect 3 0 5 0;
#X connect 4 0 7 0;
#X connect 5 0 9 0;
#X connect 6 0 9 0;
#X connect 7 0 9 0;
#X connect 9 0 1 0;
