#N canvas 600 76 745 631 12;
#X declare -lib ofelia;
#X obj 9 10 cnv 15 600 60 empty empty empty 20 12 0 14 -233017 -66577
0;
#X obj 18 89 of.draw;
#X text 44 108 style;
#X msg 42 175 draw line;
#X msg 41 348 fontsize 54;
#X msg 302 330 aliasing \$1;
#X obj 302 309 tgl 15 0 empty empty empty 17 7 0 10 -262144 -1 -1 0
1;
#X msg 42 129 draw pix;
#X msg 301 356 get;
#X obj 309 576 tgl 15 0 empty empty empty 17 7 0 10 -262144 -1 -1 0
1;
#X text 308 604 0 = load fail;
#X text 307 591 1 = load success;
#X floatatom 336 564 5 0 0 0 - - -;
#X floatatom 363 544 5 0 0 0 - - -;
#X floatatom 390 524 5 0 0 0 - - -;
#X floatatom 418 501 5 0 0 0 - - -;
#X text 401 545 text width;
#X text 426 525 text height;
#X text 460 505 total char set;
#X obj 309 468 unpack 0 0 0 0 0;
#X text 378 565 current nb of char;
#X msg 198 173 align right;
#X msg 198 126 align left;
#X msg 198 149 align center;
#X text 209 108 align;
#X text 300 196 new text;
#X msg 301 169 scale 1 2 2;
#X msg 301 147 orientation 65 0 0;
#X msg 42 152 draw shape;
#X text 330 353 get data to right outlet, f 17;
#X text 44 222 change font;
#X msg 301 125 position 0 100 100;
#N canvas 85 247 484 187 Notes 0;
#X text 36 48 The object try to find a default file "font.ttf" in the
current patch directory \, it is loaded only if the file exist.;
#X text 33 96 (pd might crash if we tell ofTrueTypeFont to load an
empty font);
#X text 37 12 Font loading process:;
#X restore 400 14 pd Notes;
#X msg 43 269 open data/font.ttf;
#X msg 43 294 open data/zoologic.ttf;
#X msg 42 324 dpi 50;
#X msg 43 244 open data/Minipax.ttf;
#X msg 437 213 text;
#X text 434 193 empty;
#X text 300 103 local transformation;
#X obj 518 19 of.window 1;
#X obj 497 21 tgl 15 0 empty empty empty 17 7 0 10 -262144 -1 -1 0
1;
#X obj 462 45 declare -lib ofelia;
#X text 13 467 Notes: issues with "shape" mode alignement should be
fixed in openframeworks 0.11, f 33;
#X msg 302 213 text Hello world;
#X text 105 129 default;
#X msg 302 247 string 111 107;
#X msg 302 282 97 44 10 98 59 10 99;
#X text 299 231 new string;
#X text 302 265 codepoint allows comma etc;
#X text 119 151 (issue);
#X obj 199 408 t a;
#X msg 41 198 draw mesh;
#X obj 18 441 of.text, f 42;
#X text 48 368 -> careful \, re-import and re-calculate font!, f 13
;
#X floatatom 508 154 5 0 0 0 - - -;
#X msg 508 176 letterspace \$1;
#X msg 508 126 direction \$1;
#X obj 508 103 tgl 15 0 empty empty empty 17 7 0 10 -262144 -1 -1 0
1;
#X msg 508 231 lineheight \$1;
#X floatatom 508 207 5 0 0 0 - - -;
#X msg 508 358 debug \$1;
#X obj 508 335 tgl 15 0 empty empty empty 17 7 0 10 -262144 -1 -1 0
1;
#X text 547 208 for multiple lines text;
#X obj 508 384 t a;
#X msg 508 261 simplify 2;
#X msg 508 310 fullchar \$1;
#X obj 508 288 tgl 15 0 empty empty empty 17 7 0 10 -262144 -1 -1 0
1;
#X text 593 261 (default 0);
#X text 24 42 Arguments(4): text \, fontsize \, align \, drawmode;
#X text 25 20 Draw a Text with specified font;
#X connect 1 0 53 0;
#X connect 3 0 53 0;
#X connect 4 0 53 0;
#X connect 5 0 51 0;
#X connect 6 0 5 0;
#X connect 6 0 51 0;
#X connect 7 0 53 0;
#X connect 8 0 51 0;
#X connect 19 0 9 0;
#X connect 19 1 12 0;
#X connect 19 2 13 0;
#X connect 19 3 14 0;
#X connect 19 4 15 0;
#X connect 21 0 51 0;
#X connect 22 0 51 0;
#X connect 23 0 51 0;
#X connect 26 0 51 0;
#X connect 27 0 51 0;
#X connect 28 0 53 0;
#X connect 31 0 51 0;
#X connect 33 0 53 0;
#X connect 34 0 53 0;
#X connect 35 0 53 0;
#X connect 36 0 53 0;
#X connect 41 0 40 0;
#X connect 44 0 51 0;
#X connect 46 0 51 0;
#X connect 47 0 51 0;
#X connect 51 0 53 0;
#X connect 52 0 53 0;
#X connect 53 1 19 0;
#X connect 55 0 56 0;
#X connect 55 0 64 0;
#X connect 56 0 64 0;
#X connect 57 0 64 0;
#X connect 58 0 57 0;
#X connect 58 0 64 0;
#X connect 59 0 64 0;
#X connect 60 0 59 0;
#X connect 60 0 64 0;
#X connect 61 0 64 0;
#X connect 62 0 61 0;
#X connect 62 0 64 0;
#X connect 64 0 51 0;
#X connect 65 0 64 0;
#X connect 66 0 64 0;
#X connect 67 0 66 0;
