#N canvas 620 233 745 631 12;
#X declare -lib ofelia;
#X obj 9 10 cnv 15 600 60 empty empty empty 20 12 0 14 -233017 -66577
0;
#X obj 18 89 of.draw;
#X msg 342 330 aliasing \$1;
#X obj 342 309 tgl 15 0 empty empty empty 17 7 0 10 -262144 -1 -1 0
1;
#X floatatom 528 154 5 0 0 0 - - -;
#X msg 528 176 letterspace \$1;
#X msg 528 126 direction \$1;
#X obj 528 103 tgl 15 0 empty empty empty 17 7 0 10 -262144 -1 -1 0
1;
#X msg 528 231 lineheight \$1;
#X floatatom 528 207 5 0 0 0 - - -;
#X msg 341 356 get;
#X obj 309 576 tgl 15 0 empty empty empty 17 7 0 10 -262144 -1 -1 0
1;
#X text 308 604 0 = load fail;
#X text 307 591 1 = load success;
#X floatatom 336 564 5 0 0 0 - - -;
#X floatatom 363 544 5 0 0 0 - - -;
#X floatatom 390 524 5 0 0 0 - - -;
#X floatatom 418 501 5 0 0 0 - - -;
#X text 401 545 text width;
#X text 426 525 text height;
#X text 460 505 total char set;
#X obj 309 468 unpack 0 0 0 0 0;
#X text 378 565 current nb of char;
#X msg 244 170 align right;
#X msg 244 123 align left;
#X msg 244 146 align center;
#X text 255 105 align;
#X msg 528 358 debug \$1;
#X obj 528 335 tgl 15 0 empty empty empty 17 7 0 10 -262144 -1 -1 0
1;
#X msg 341 147 orientation 65 0 0;
#X text 370 353 get data to right outlet, f 17;
#X msg 341 125 position 0 100 100;
#N canvas 85 247 484 187 Notes 0;
#X text 36 48 The object try to find a default file "font.ttf" in the
current patch directory \, it is loaded only if the file exist.;
#X text 33 96 (pd might crash if we tell ofTrueTypeFont to load an
empty font);
#X text 37 12 Font loading process:;
#X restore 398 18 pd Notes;
#X text 382 188 empty;
#X text 340 103 local transformation;
#X obj 518 19 of.window 1;
#X obj 497 21 tgl 15 0 empty empty empty 17 7 0 10 -262144 -1 -1 0
1;
#X obj 462 45 declare -lib ofelia;
#X text 13 467 Notes: issues with "shape" mode alignement should be
fixed in openframeworks 0.11, f 33;
#X text 567 208 for multiple lines text;
#X msg 342 245 string 111 107;
#X msg 342 282 97 44 10 98 59 10 99;
#X text 339 229 new string;
#X text 338 264 codepoint allows comma etc;
#X obj 244 401 t a;
#X obj 528 384 t a;
#X text 119 345 default 96;
#X text 147 368 default 32;
#X text 44 108 style;
#X msg 42 175 draw line;
#X msg 42 129 draw pix;
#X msg 42 152 draw shape;
#X text 105 129 default;
#X text 119 151 (issue);
#X msg 41 198 draw mesh;
#X msg 528 310 fullchar \$1;
#X obj 528 288 tgl 15 0 empty empty empty 17 7 0 10 -262144 -1 -1 0
1;
#X msg 61 368 fontsize 50;
#X text 25 20 Draw a Text with any font (Unicode supported);
#X text 613 261 (default 0);
#N canvas 383 131 199 233 Alphabet_ranges_list 0;
#X text 43 35 0 "Emoji" \; 1 "Japanese" \; 2 "Chinese" \; 3 "Korean"
\; 4 "Arabic" \; 5 "Devanagari" \; 6 "Latin" \; 7 "Greek" \; 8 "Cyrillic"
\;;
#X restore 73 321 pd Alphabet_ranges_list;
#X msg 341 169 scale 3 4 3;
#X obj 18 441 of.textunicode of.textunicode 32 center, f 42;
#X msg 528 261 simplify 4;
#X msg 62 344 dpi 48;
#X text 24 42 Arguments(4): text \, fontsize \, align \, drawmode;
#X msg 346 208 text;
#X msg 56 247 range 3 \, open data/kr.ttf \, text 안녕하세요;
#X msg 62 272 range 2 \, open data/ch.ttf \, text 你好;
#X msg 69 295 range 6 \, open data/ch.ttf \, text hello;
#X text 54 226 load font in range:;
#X msg 528 411 23;
#X obj 528 434 makefilename %s;
#X msg 528 457 text \$1;
#X text 566 410 number -> symbol;
#X connect 1 0 62 0;
#X connect 2 0 44 0;
#X connect 3 0 2 0;
#X connect 4 0 5 0;
#X connect 4 0 45 0;
#X connect 5 0 45 0;
#X connect 6 0 45 0;
#X connect 7 0 6 0;
#X connect 7 0 45 0;
#X connect 8 0 45 0;
#X connect 9 0 8 0;
#X connect 9 0 45 0;
#X connect 10 0 44 0;
#X connect 21 0 11 0;
#X connect 21 1 14 0;
#X connect 21 2 15 0;
#X connect 21 3 16 0;
#X connect 21 4 17 0;
#X connect 23 0 44 0;
#X connect 24 0 44 0;
#X connect 25 0 44 0;
#X connect 27 0 45 0;
#X connect 28 0 27 0;
#X connect 28 0 45 0;
#X connect 29 0 44 0;
#X connect 31 0 44 0;
#X connect 36 0 35 0;
#X connect 40 0 44 0;
#X connect 41 0 44 0;
#X connect 44 0 62 0;
#X connect 45 0 44 0;
#X connect 49 0 62 0;
#X connect 50 0 62 0;
#X connect 51 0 62 0;
#X connect 54 0 62 0;
#X connect 55 0 45 0;
#X connect 56 0 55 0;
#X connect 57 0 62 0;
#X connect 61 0 44 0;
#X connect 62 1 21 0;
#X connect 63 0 45 0;
#X connect 64 0 62 0;
#X connect 66 0 44 0;
#X connect 67 0 62 0;
#X connect 68 0 62 0;
#X connect 69 0 62 0;
#X connect 71 0 72 0;
#X connect 72 0 73 0;
#X connect 73 0 44 0;
