#N canvas 56 122 1224 622 12;
#X obj 21 14 inlet;
#X obj 90 12 inlet;
#X obj 220 12 inlet;
#X text 988 750 RI;
#X text 437 39 https://forum.openframeworks.cc/t/extrude-text-into-3d/6938/2
, f 72;
#X text 310 24 TODO:;
#X text 297 40 - 3d extrusion text :;
#X obj 21 887 outlet;
#X obj 1009 880 outlet;
#X msg 90 38 letterspace \$1;
#X msg 220 38 fontsize \$1;
#X obj 21 64 ofelia d -c12 \$0-box \; local c = ofCanvas(this) \; local
args = c:getArgs() \; local outlet = ofOutlet(this) \; local text \,
fontname \, fontsize \, antialias \, fullchar \, contours \, simplify
\, dpi \, drawmode \, posX \, posY \, align \, debug = "of.text" \,
"font.ttf" \, 32 \, true \, true \, true \, 0 \, 96 \, "pix" \, 0 \,
0 \, "center" \, 0 \; local position \, orientation \, scale = ofVec3f()
\, ofVec3f() \, ofVec3f(1 \, 1 \, 1) \; \; function M.new() \; ofWindow.addListener("setup"
\, this) \; if args[1] == nil then text = "of.text" else text = args[1]
end \; if args[2] == nil then align = "left" else align = args[2] end
\; if args[3] == nil then fontsize = 32 else fontsize = args[3] end
\; font\$0 = ofTrueTypeFont() node\$0 = ofNode() \; fontname = (c:getDir()
.. "/" .. fontname) M.load() M.align(align) end \; function M.free()
\; ofWindow.removeListener("setup" \, this) end \; \; function M.setup()
M.load() M.align(align) \; node\$0:setPosition(position:vec3()) node\$0:setOrientation(orientation:vec3())
node\$0:setScale(scale:vec3()) end \; \; function M.open(s) fontname
= (ofCanvas(this \, 1):getDir() .. "/" .. s) if (io.type(io.open(fontname
\, "r"))) then M.load() end end \; function M.draw(s) drawmode = s
end \; function M.text(l) if type(l) == "table" then text = (table.concat
(l \, " ")) else text = l M.align(align) end end \; function M.string(l)
if type(l) == "table" then text = (string.char(table.unpack(l))) else
text = (string.char(l)) M.align(align) end end \; function M.list(l)
if type(l) == "table" then text = (string.char(table.unpack(l))) else
text = (string.char(l)) M.align(align) end end \; function M.load()
if ofWindow.exists then font\$0:load(fontname \, fontsize \, antialias
\, fullchar \, contours \, simplify \, dpi) if font\$0:isLoaded() then
print ("loaded " .. fontname) end end end \; function M.fontsize(f)
fontsize = f M.load() end \; function M.align(s) align = s if align
== "center" then posX = 0-font\$0:stringWidth(text)/2 end if align
== "left" then posX=0 end if align == "right" then posX = 0-font\$0:stringWidth(text)
end end \; function M.letterspace(f) font\$0:setLetterSpacing(f) end
\; function M.lineheight(f) font\$0:setLineHeight(f) end \; function
M.spacesize(f) font\$0:setSpaceSize(f) end \; function M.direction(f)
font\$0:setDirection(f) end \; function M.aliasing(f) antialias = (f
~= 0) M.load() end \; function M.simplify(f) simplify = f M.load()
end \; function M.dpi(f) dpi = (f) M.load() end \; function M.fullchar(f)
fullchar = (f ~= 0) M.load() end \; function M.debug(f) debug = f end
\; function M.position(l) position:set (l[1] \, l[2] \, l[3]) node\$0:setPosition(position:vec3())
end \; function M.orientation(l) orientation:set (l[1] \, l[2] \, l[3])
node\$0:setOrientation(orientation:vec3()) end \; function M.scale(l)
scale:set (l[1] \, l[2] \, l[3]) node\$0:setScale(scale:vec3()) end
\; function M.get() outlet:outletList(1 \, ofTable(font\$0:isLoaded()
\, string.len(text) \, font\$0:stringWidth(text) \, font\$0:stringHeight(text)
\, font\$0:getNumCharacters())) end \; \; function M.bang() \; node\$0:transformGL()
\; if drawmode == "pix" then font\$0:drawString(text \, posX \, posY)
end \; if drawmode == "shape" then font\$0:drawStringAsShapes(text
\, posX \, posY+(fontsize/32*25)) end \; if drawmode == "line" then
ofNoFill() ofScale(1 \, -1 \, 1) font\$0:drawStringAsShapes(text \,
posX \, posY) ofFill() end \; node\$0:restoreTransformGL() \; if debug
== 1 then ofDisableLighting() node\$0:draw() end if _lighting == 1
then ofEnableLighting() end \; outlet:outletBang(0) \; end \;;
#X f 150;
#X connect 0 0 11 0;
#X connect 1 0 9 0;
#X connect 2 0 10 0;
#X connect 9 0 11 0;
#X connect 10 0 11 0;
#X connect 11 0 7 0;
#X connect 11 1 8 0;
