#N canvas 619 130 626 345 12;
#X declare -lib ofelia;
#X obj 9 10 cnv 15 600 60 empty empty empty 20 12 0 14 -233017 -66577
0;
#X obj 27 99 of.draw;
#X msg 110 127 draw line;
#X msg 110 150 draw point;
#X msg 110 173 draw fill;
#X floatatom 111 222 5 0 0 2 x1 - -;
#X floatatom 156 221 5 0 0 2 y1 - -;
#X text 402 103 list of all parameters;
#X text 419 148 Single parameter;
#X msg 110 104 stroke 10;
#X floatatom 202 221 5 0 0 2 x2 - -;
#X obj 462 45 declare -lib ofelia;
#X floatatom 248 221 5 0 0 2 y2 - -;
#X floatatom 292 221 5 0 0 2 x3 - -;
#X floatatom 338 221 5 0 0 2 y3 - -;
#X obj 403 254 of.triangle, f 21;
#X obj 27 255 of.triangle 0 -100 100 100 -100 100 line 1;
#X msg 200 106 position 0 100 -100;
#X msg 200 149 scale 1 2 2;
#X text 108 85 style;
#X msg 423 169 x1 50;
#X msg 200 127 orientation 45 0 45;
#X msg 437 228 debug \$1;
#X obj 437 207 tgl 15 0 empty empty empty 17 7 0 10 -262144 -1 -1 0
1;
#X text 457 205 Show center axis;
#X msg 403 120 0 -100 100 100 -100 100 line 1;
#X msg 200 170 lookat 180 120 60;
#X obj 518 19 of.window 1;
#X text 199 84 local transformation;
#X text 24 40 Args: x1 \, y1 \, x2 \, y2 \, x3 \, y3 \, drawmode \,
strokewidth;
#X text 25 20 Draw a Triangle;
#X connect 1 0 16 0;
#X connect 2 0 16 0;
#X connect 3 0 16 0;
#X connect 4 0 16 0;
#X connect 5 0 16 1;
#X connect 6 0 16 2;
#X connect 9 0 16 0;
#X connect 10 0 16 3;
#X connect 12 0 16 4;
#X connect 13 0 16 5;
#X connect 14 0 16 6;
#X connect 17 0 16 0;
#X connect 18 0 16 0;
#X connect 20 0 15 0;
#X connect 21 0 16 0;
#X connect 22 0 15 0;
#X connect 23 0 22 0;
#X connect 25 0 15 0;
#X connect 26 0 16 0;
