#N canvas 180 144 511 559 12;
#X obj 21 21 inlet;
#X obj 21 481 outlet;
#X obj 102 21 inlet;
#X obj 162 20 inlet;
#X obj 224 20 inlet;
#X msg 162 41 y \$1;
#X msg 102 41 x \$1;
#X msg 224 41 z \$1;
#X text 438 450 RI;
#X obj 21 78 ofelia d translate-\$0 \; local c = ofCanvas(this) \;
local args = c:getArgs() \; local x \, y \, z \, debug = args[1] \,
args[2] \, args[3] \, 0 \; \; function M.new() \; if args[1] == nil
then x = 0 end \; if args[2] == nil then y = 0 end \; if args[3] ==
nil then z = 0 end \; end \; function M.x(float) x=float end \; function
M.y(float) y=float end \; function M.z(float) z=float end \; function
M.debug(float) debug=float*100 end \; \; function M.list(l) \; x=l[1]
\; y=l[2] \; z=l[3] \; \; end \; \; function M.bang() \; if debug >
0 then ofDisableLighting() ofDrawAxis(debug) if _lighting == 1 then
ofEnableLighting() end end \; ofTranslate(x \, y \, z) \; return (anything)
\; end \;;
#X f 69;
#X connect 0 0 9 0;
#X connect 2 0 6 0;
#X connect 3 0 5 0;
#X connect 4 0 7 0;
#X connect 5 0 9 0;
#X connect 6 0 9 0;
#X connect 7 0 9 0;
#X connect 9 0 1 0;
