#N canvas 444 149 544 559 12;
#X obj 21 21 inlet;
#X obj 21 481 outlet;
#X obj 102 21 inlet;
#X obj 162 20 inlet;
#X obj 224 20 inlet;
#X msg 162 41 y \$1;
#X msg 102 41 x \$1;
#X msg 224 41 z \$1;
#X text 438 450 RI;
#X obj 21 78 ofelia d translate-\$0 \; local c = ofCanvas(this) \;
local args = c:getArgs() \; local pos \, debug = ofVec3f() \, 0 \;
\; function M.new() \; if args[1] == nil then pos.x = 0 else pos.x
= args[1] end \; if args[2] == nil then pos.y = 0 else pos.y = args[2]
end \; if args[3] == nil then pos.z = 0 else pos.z = args[3] end \;
end \; function M.x(float) pos.x=float end \; function M.y(float) pos.y=float
end \; function M.z(float) pos.z=float end \; function M.debug(float)
debug=float*100 end \; \; function M.list(l) pos:set(table.unpack(l))
\; end \; \; function M.bang() \; if debug > 0 then ofDisableLighting()
ofDrawAxis(debug) if _lighting == 1 then ofEnableLighting() end end
\; ofTranslate(pos.x \, pos.y \, pos.z) \; return (anything) \; end
\;;
#X f 69;
#X connect 0 0 9 0;
#X connect 2 0 6 0;
#X connect 3 0 5 0;
#X connect 4 0 7 0;
#X connect 5 0 9 0;
#X connect 6 0 9 0;
#X connect 7 0 9 0;
#X connect 9 0 1 0;
