#N canvas 511 262 626 387 12;
#X declare -lib ofelia;
#X obj 9 10 cnv 15 600 60 empty empty empty 20 12 0 14 -233017 -66577
0;
#X floatatom 75 136 5 0 0 0 - - -;
#X floatatom 123 136 5 0 0 0 - - -;
#X floatatom 171 136 5 0 0 0 - - -;
#X obj 27 168 of.translate 0 0 0, f 21;
#X obj 343 210 of.translate 0 0 0, f 21;
#X msg 343 105 100 -100 -100;
#X msg 363 135 x 120;
#X text 412 135 Single axis;
#X text 449 105 list of xyz;
#X obj 27 89 of.draw;
#X obj 462 45 declare -lib ofelia;
#X text 28 42 Arguments: positionX \, positionY \, positionZ;
#X obj 27 241 of.rectangle 100 100 line;
#X text 28 22 Translation matrix;
#X text 38 198 -> all sub-tree shapes will be translated, f 25;
#X obj 518 19 of.window 1;
#X obj 497 21 tgl 15 0 empty empty empty 17 7 0 10 -262144 -1 -1 0
1;
#X msg 375 168 debug 1;
#X text 439 168 show axis;
#X text 74 121 posX;
#X text 122 121 posY;
#X text 170 121 posZ;
#X obj 27 325 of.circle 10;
#X text 194 167 -> global translation, f 14;
#X msg 77 292 position \$1 0 0;
#X floatatom 77 270 5 0 0 0 - - -;
#X text 118 272 -> local position, f 18;
#X connect 1 0 4 1;
#X connect 2 0 4 2;
#X connect 3 0 4 3;
#X connect 4 0 13 0;
#X connect 6 0 5 0;
#X connect 7 0 5 0;
#X connect 10 0 4 0;
#X connect 13 0 23 0;
#X connect 17 0 16 0;
#X connect 18 0 5 0;
#X connect 25 0 23 0;
#X connect 26 0 25 0;
