#N canvas 544 103 620 490 12;
#X declare -lib ofelia;
#X obj 9 10 cnv 15 600 60 empty empty empty 20 12 0 14 -233017 -66577
0;
#X floatatom 69 361 5 0 0 0 - - -;
#X obj 29 390 of.rotate;
#X obj 29 101 of.draw;
#X obj 29 443 of.plane 200 200 5 5;
#X obj 29 418 of.sphere 500 100 line;
#X obj 109 339 tgl 15 0 empty empty empty 17 7 0 10 -262144 -1 -1 0
1;
#X msg 123 207 dimen 640 480;
#X msg 123 105 listdev;
#X msg 124 170 close;
#X msg 125 240 get;
#X msg 123 137 open 0;
#X text 125 272 Args: Camera ID \, width heigth;
#X text 180 171 close device;
#X floatatom 149 338 5 0 0 0 - - -;
#X floatatom 190 338 5 0 0 0 - - -;
#X text 106 353 open;
#X text 146 353 width;
#X text 189 353 height;
#X text 165 240 get informations to right outlet;
#X text 231 207 change pixel size;
#X obj 462 45 declare -lib ofelia;
#X obj 109 307 unpack 0 0 0;
#X text 28 43 Arguments : deviceID \, width \, height;
#X text 186 137 Open device ID;
#X text 185 106 Get a device list (need a way to catch ID);
#X obj 518 19 of.window 1;
#N canvas 627 188 653 565 draw 0;
#X floatatom 41 9 5 0 0 0 - - -;
#X msg 70 94 drawsubsection 1 100 0 100 100 120 200;
#X obj 74 135 of.mouse;
#X text 242 30 active \, X \, Y \, Z \, width \, height;
#X text 349 92 active \, posX \, posY \, witdh \, height \, cropfromX
\, cropfromY \, posCropX \, posCropY, f 42;
#X msg 76 291 anchorpoint \$1 \$1;
#X floatatom 76 263 5 0 0 0 - - -;
#X text 82 7 pos Z;
#X text 117 263 change anchor point;
#X text 361 186 active \, posX \, posY \, witdh \, height \, cropfromX
\, cropfromY \, posCropX \, posCropY, f 42;
#X msg 41 34 draw 1 0 -100 \$1 100 100;
#X msg 59 63 draw 0 0 0;
#X msg 73 227 drawsubsection 0 0 0 0 0 0 0;
#X text 288 227 Desactivate drawsubsection;
#X text 149 63 Desactivate draw;
#X obj 20 319 outlet;
#X obj 74 162 spigot;
#X obj 149 147 tgl 15 0 empty empty empty 17 7 0 10 -262144 -1 -1 0
1;
#X msg 74 190 drawsubsection 1 -100 110 200 100 \$1 \$2;
#X text 175 144 -> acivate this to sroll in image with mouse;
#X connect 0 0 10 0;
#X connect 1 0 15 0;
#X connect 2 0 16 0;
#X connect 5 0 15 0;
#X connect 6 0 5 0;
#X connect 10 0 15 0;
#X connect 11 0 15 0;
#X connect 12 0 15 0;
#X connect 16 0 18 0;
#X connect 17 0 16 1;
#X connect 18 0 15 0;
#X restore 426 232 pd draw;
#X obj 29 273 of.videoin2;
#X obj 66 307 print;
#X msg 426 262 getpixel 10 10;
#X text 28 23 A Video grabber with pixel and texture access;
#X connect 1 0 2 2;
#X connect 2 0 5 0;
#X connect 3 0 28 0;
#X connect 5 0 4 0;
#X connect 7 0 28 0;
#X connect 8 0 28 0;
#X connect 9 0 28 0;
#X connect 10 0 28 0;
#X connect 11 0 28 0;
#X connect 22 0 6 0;
#X connect 22 1 14 0;
#X connect 22 2 15 0;
#X connect 27 0 28 0;
#X connect 28 0 2 0;
#X connect 28 1 29 0;
#X connect 30 0 28 0;
