#N canvas 614 112 620 593 12;
#X declare -lib ofelia;
#X obj 9 10 cnv 15 600 60 empty empty empty 20 12 0 14 -233017 -66577
0;
#X floatatom 69 436 5 0 0 0 - - -;
#X obj 29 460 of.rotate;
#X obj 29 81 of.draw;
#X obj 82 401 tgl 15 0 empty empty empty 17 7 0 10 -262144 -1 -1 1
1;
#X msg 114 137 dimen 640 480;
#X msg 114 165 listdev;
#X msg 115 110 close;
#X msg 117 289 get;
#X msg 114 87 open 0;
#X text 171 111 close device;
#X floatatom 123 400 5 0 0 0 - - -;
#X floatatom 164 400 5 0 0 0 - - -;
#X text 120 415 width;
#X text 163 415 height;
#X text 157 289 get informations to right outlet;
#X text 222 137 change pixel size;
#X obj 462 45 declare -lib ofelia;
#X text 28 43 Arguments : deviceID \, width \, height;
#X text 177 87 Open device ID;
#X text 177 166 Get a device list (need a way to catch ID);
#X text 28 23 A simple Video grabber;
#X obj 518 19 of.window 1;
#X obj 497 21 tgl 15 0 empty empty empty 17 7 0 10 -262144 -1 -1 0
1;
#X text 277 196 draw: active \, X \, Y \, width \, height;
#X text 199 223 draw: inactive;
#X msg 116 247 anchorpoint 50 50;
#X text 243 246 change draw anchor point;
#X text 77 415 init;
#X obj 29 323 of.video;
#X obj 29 488 of.sphere 400 100 line;
#X msg 117 198 draw 1 100 0 100 100;
#X msg 117 222 draw 0 0;
#X obj 82 369 unpack 0 0 0 0, f 18;
#X floatatom 205 400 5 0 0 0 - - -;
#X text 211 415 ratio;
#X text 113 434 -> rotate on Y axix;
#X text 92 347 -> get infos as a list;
#X text 100 322 -> Arguments: deviceID \, width heigth;
#X obj 29 513 of.plane 200 200;
#X connect 1 0 2 2;
#X connect 2 0 30 0;
#X connect 3 0 29 0;
#X connect 5 0 29 0;
#X connect 6 0 29 0;
#X connect 7 0 29 0;
#X connect 8 0 29 0;
#X connect 9 0 29 0;
#X connect 23 0 22 0;
#X connect 26 0 29 0;
#X connect 29 0 2 0;
#X connect 29 1 33 0;
#X connect 30 0 39 0;
#X connect 31 0 29 0;
#X connect 32 0 29 0;
#X connect 33 0 4 0;
#X connect 33 1 11 0;
#X connect 33 2 12 0;
#X connect 33 3 34 0;
