#N canvas 511 85 643 625 12;
#X declare -lib ofelia;
#X obj 9 10 cnv 15 600 60 empty empty empty 20 12 0 14 -233017 -66577
0;
#X msg 35 108 create;
#X msg 51 134 destroy;
#X obj 35 407 print;
#X msg 286 108 cursor \$1;
#X obj 286 90 tgl 15 0 empty empty empty 17 7 0 10 -262144 -1 -1 0
1;
#X obj 287 132 tgl 15 0 empty empty empty 17 7 0 10 -262144 -1 -1 0
1;
#X msg 287 150 lighting \$1;
#X obj 287 174 tgl 15 0 empty empty empty 17 7 0 10 -262144 -1 -1 0
1;
#X msg 287 192 fullscreen \$1;
#X msg 288 263 color 0 64 128;
#X msg 288 292 get;
#X text 390 147 activate lighting;
#X text 400 193 go fullscreen;
#X obj 287 217 tgl 15 0 empty empty empty 17 7 0 10 -262144 -1 -1 0
1;
#X msg 287 235 autoclear \$1;
#X msg 73 224 position 100 100;
#X msg 86 255 framerate 30;
#X obj 101 286 hradio 15 1 0 4 empty empty empty 0 -8 0 10 -262144
-1 -1 0;
#X msg 62 189 dimen 320 240;
#X msg 101 308 orientation \$1 0;
#X text 360 107 show / hide cursor in window;
#X text 400 262 background color;
#X obj 27 501 cnv 15 20 60 empty empty empty 20 12 0 14 -233017 -66577
0;
#X obj 36 501 of.draw;
#X obj 470 74 declare -lib ofelia;
#X msg 124 337 title myWindow;
#X msg 288 315 vsync 1;
#X text 348 311 activate vertical sync;
#X msg 288 338 clear;
#X text 334 339 clear buffer;
#X text 380 236 autoclear the buffer (default 1);
#X msg 114 107 1;
#X msg 139 135 0;
#X text 89 106 or;
#X text 110 133 or;
#X text 61 170 Window size (width height);
#X text 35 84 Window state;
#X obj 365 501 tgl 15 0 empty empty empty 17 7 0 10 -262144 -1 -1 0
1;
#N canvas 441 171 671 369 Buffer_mouse 0;
#X obj 28 130 of.window;
#X msg 28 95 autoclear \$1;
#X obj 28 44 inlet;
#X obj 264 86 of.draw 0;
#X obj 264 184 of.circle 10;
#X obj 264 12 of.mouse;
#X obj 264 54 t b a b, f 15;
#X msg 316 154 position \$1 \$2 0;
#X obj 28 69 == 0;
#X text 337 13 draw with mouse;
#X text 342 85 -> desactivate auto update draw \, draw on every mouse
position update, f 38;
#X obj 264 253 of.rectangle 640 480;
#X obj 264 221 of.color 0 0 0 40;
#X text 361 187 -> draw my mouse position, f 29;
#X text 418 253 -> draw the rectangle, f 23;
#X text 397 219 -> turn black 40 opacity, f 26;
#X text 15 19 disable autoclear in window;
#X obj 264 125 of.ortho 1;
#X obj 86 42 closebang;
#X msg 86 66 1;
#X connect 1 0 0 0;
#X connect 2 0 8 0;
#X connect 3 0 17 0;
#X connect 4 0 12 0;
#X connect 5 0 6 0;
#X connect 6 0 3 0;
#X connect 6 1 7 0;
#X connect 7 0 4 0;
#X connect 8 0 1 0;
#X connect 12 0 11 0;
#X connect 17 0 4 0;
#X connect 18 0 19 0;
#X connect 19 0 1 0;
#X restore 365 526 pd Buffer_mouse;
#X text 33 431 get: sizeX \, sizeY \, framerate \, window mode \, orientation
;
#X text 19 43 Arguments: window_state \, width \, height \, framerate
\, autoclear \, posX \, posY, f 78;
#X text 151 107 = create;
#X text 175 136 = destroy;
#X text 19 20 Make a window rendering context (same object interface
for all windows), f 73;
#X text 320 291 get: size framerate \, window mode \, orientation;
#X obj 35 374 of.window 1 640 480;
#X text 187 371 -> Arguments: window_state \, width \, height \, framerate
\, autoclear \, posX \, posY, f 28;
#X text 33 444 On resizing window with mouse: sizeX \, sizeY;
#X text 97 489 To draw something inside of.window \, connect of.draw
to a shape or a text:, f 32;
#X text 390 498 draw without autoclear test, f 32;
#X msg 419 367 glversion 3 2;
#X text 524 363 set openGL version, f 12;
#X text 524 396 set openGLES version, f 12;
#X msg 419 397 glesversion 2;
#X obj 36 541 of.text of.window-help 32 center;
#X connect 1 0 46 0;
#X connect 2 0 46 0;
#X connect 4 0 46 0;
#X connect 5 0 4 0;
#X connect 6 0 7 0;
#X connect 7 0 46 0;
#X connect 8 0 9 0;
#X connect 9 0 46 0;
#X connect 10 0 46 0;
#X connect 11 0 46 0;
#X connect 14 0 15 0;
#X connect 15 0 46 0;
#X connect 16 0 46 0;
#X connect 17 0 46 0;
#X connect 18 0 20 0;
#X connect 19 0 46 0;
#X connect 20 0 46 0;
#X connect 24 0 55 0;
#X connect 26 0 46 0;
#X connect 29 0 46 0;
#X connect 38 0 39 0;
#X connect 46 0 3 0;
