#N canvas 437 23 865 682 12;
#X declare -lib ceammc;
#X declare -stdpath ofelia;
#X declare -stdpath ceammc;
#X declare -stdpath of;
#N canvas 671 136 435 113 INIT 0;
#X obj 5 9 declare -lib ceammc;
#X obj 5 52 declare -stdpath ofelia;
#X obj 5 30 declare -stdpath ceammc;
#X obj 5 73 declare -stdpath of;
#X text 149 8 charge librarie ceammc;
#X text 179 28 chemin dossier librairie ceammc;
#X text 177 50 chemin dossier librairie ofelia;
#X text 147 75 chemin dossier vers abstractions of;
#X restore 773 6 pd INIT;
#X obj 102 93 of.window;
#X msg 102 60 create;
#X obj 102 31 loadbang;
#X text 98 10 1/ Créer la fenêtre d'affichage;
#X obj 105 290 of.translate, f 28;
#X floatatom 146 252 5 0 0 0 - - -;
#X floatatom 215 253 5 0 0 0 - - -;
#X text 188 253 X;
#X text 257 254 Y;
#X floatatom 297 253 5 0 0 0 - - -;
#X text 329 244 Z;
#X msg 208 211 0;
#X text 242 212 reset;
#X obj 105 454 of.rotate, f 38;
#X floatatom 192 427 5 0 0 0 - - -;
#X floatatom 280 428 5 0 0 0 - - -;
#X text 234 428 X;
#X text 322 429 Y;
#X floatatom 368 431 5 0 0 0 - - -;
#X text 411 432 Z;
#X msg 123 483 draw line;
#X obj 408 332 counter 0 360;
#X msg 132 507 draw fill;
#X obj 408 222 loadbang;
#X text 173 30 -> initialisation (automatisation au démarrage);
#X text 175 93 -> gestionnaire fenêtre;
#X text 473 220 -> initialisation (automatisation au démarrage);
#X text 427 243 -> permuter entre 0 et 1;
#X text 431 304 -> un bang toues les 20ms;
#X obj 408 274 metro 40;
#X msg 179 61 destroy;
#X text 22 582 forme affichée, f 9;
#X text 101 149 2/ Affichage de forme 3d;
#X text 511 332 -> +1 a chaque bang (compte entre 0 et 360);
#X text 363 591 -> argument: Largeur Hauteur Profondeur resolutionL
resolutionH resolutionP, f 42;
#X floatatom 284 556 5 0 0 0 - - -;
#X text 9 286 déplacement;
#X text 4 398 entrée caméra;
#X text 4 455 rotation XYZ;
#X text -1 360 couleurs RGBA;
#X obj 105 209 of.depth, f 11;
#X msg 142 531 draw point;
#X text 222 531 -> mode points;
#X text 194 485 -> mode lignes;
#X text 205 507 -> mode remplissage (faces pleines);
#X obj 105 359 of.color 255 255 255 255;
#X obj 105 398 of.video;
#X obj 105 591 of.box 200 200 200, f 31;
#X floatatom 146 322 5 0 0 0 R - -;
#X floatatom 193 322 5 0 0 0 G - -;
#X floatatom 253 322 5 0 0 0 B - -;
#X floatatom 303 322 5 0 0 0 A - -;
#X text 474 274 -> répète un bang toutes les 40ms (donc 1000/40=
25fps);
#X floatatom 162 556 5 0 0 0 - - -;
#X text 199 555 tailleXYZ;
#X text 330 555 resolution XYZ (Attention a ne pas monter trop haut!)
;
#X text 195 178 -> calcul ou non la profondeur;
#X obj 105 172 of.draw 1;
#X text 3 176 debut chaîne (calque), f 12;
#X obj 408 246 tgl 15 0 empty empty empty 17 7 0 10 -262144 -1 -1 0
1;
#X obj 408 298 bng 15 250 50 0 empty empty empty 17 7 0 10 -262144
-1 -1;
#X obj 179 182 tgl 15 0 empty empty empty 17 7 0 10 -262144 -1 -1 1
1;
#X connect 2 0 1 0;
#X connect 3 0 2 0;
#X connect 5 0 46 0;
#X connect 6 0 5 1;
#X connect 7 0 5 2;
#X connect 10 0 5 3;
#X connect 12 0 6 0;
#X connect 12 0 7 0;
#X connect 12 0 10 0;
#X connect 14 0 48 0;
#X connect 15 0 14 1;
#X connect 16 0 14 2;
#X connect 19 0 14 3;
#X connect 21 0 48 0;
#X connect 22 0 16 0;
#X connect 22 0 15 0;
#X connect 22 0 19 0;
#X connect 23 0 48 0;
#X connect 24 0 60 0;
#X connect 30 0 61 0;
#X connect 31 0 1 0;
#X connect 36 0 48 4;
#X connect 36 0 48 5;
#X connect 36 0 48 6;
#X connect 41 0 5 0;
#X connect 42 0 48 0;
#X connect 46 0 47 0;
#X connect 47 0 14 0;
#X connect 49 0 46 1;
#X connect 50 0 46 2;
#X connect 51 0 46 3;
#X connect 52 0 46 4;
#X connect 54 0 48 1;
#X connect 54 0 48 2;
#X connect 54 0 48 3;
#X connect 58 0 41 0;
#X connect 60 0 30 0;
#X connect 61 0 22 0;
#X connect 62 0 41 1;
