#N canvas 394 48 736 682 12;
#X declare -lib ofelia;
#X declare -path of;
#X obj 102 103 of.window;
#X msg 102 70 create;
#X obj 102 41 loadbang;
#X text 98 20 1/ Créer la fenêtre d'affichage;
#X obj 105 260 of.translate, f 28;
#X floatatom 169 232 5 0 0 0 - - -;
#X floatatom 233 233 5 0 0 0 - - -;
#X text 211 233 X;
#X text 280 234 Y;
#X floatatom 319 233 5 0 0 0 - - -;
#X text 361 234 Z;
#X obj 105 454 of.rotate, f 38;
#X floatatom 192 427 5 0 0 0 - - -;
#X floatatom 280 428 5 0 0 0 - - -;
#X text 234 428 X;
#X text 322 429 Y;
#X floatatom 368 431 5 0 0 0 - - -;
#X text 411 432 Z;
#X msg 123 483 draw line;
#X msg 132 507 draw fill;
#X text 173 40 -> initialisation (automatisation au démarrage);
#X text 175 103 -> gestionnaire fenêtre;
#X msg 179 71 destroy;
#X text 22 582 forme affichée, f 9;
#X text 363 591 -> argument: Largeur Hauteur Profondeur resolutionL
resolutionH resolutionP, f 42;
#X floatatom 284 556 5 0 0 0 - - -;
#X text 9 256 déplacement;
#X text 4 348 entrée caméra;
#X text 4 455 rotation XYZ;
#X text -1 320 couleurs RGBA;
#X msg 142 531 draw point;
#X text 222 531 -> mode points;
#X text 194 485 -> mode lignes;
#X text 205 507 -> mode remplissage (faces pleines);
#X obj 105 319 of.color 255 255 255 255;
#X obj 105 348 of.video;
#X obj 105 591 of.box 200 200 200, f 31;
#X floatatom 146 292 5 0 0 0 R - -;
#X floatatom 193 292 5 0 0 0 G - -;
#X floatatom 253 292 5 0 0 0 B - -;
#X floatatom 303 292 5 0 0 0 A - -;
#X floatatom 162 556 5 0 0 0 - - -;
#X text 199 555 tailleXYZ;
#X text 330 555 resolution XYZ (Attention a ne pas monter trop haut!)
;
#X text 198 170 -> calcul ou non la profondeur;
#X text 3 166 debut chaîne (calque), f 12;
#X obj 179 172 tgl 15 0 empty empty empty 17 7 0 10 -262144 -1 -1 0
1;
#X obj 105 199 of.depth 1, f 11;
#X obj 216 390 i;
#X obj 249 389 + 1;
#X obj 280 389 mod 359;
#X obj 105 371 t a b;
#X text 342 388 -> +1 a chaque image;
#X obj 9 -30 cnv 15 600 40 empty empty empty 20 12 0 14 -233017 -66577
0;
#X obj 472 -30 declare -lib ofelia;
#X obj 472 -9 declare -path of;
#X obj 9 130 cnv 2 600 2 empty empty empty 20 12 0 14 -233017 -66577
0;
#X text 37 -22 Affichage d'un cube avec texture;
#X text 101 139 2/ Affichage de forme 3d avec [of.draw];
#X obj 105 162 of.draw;
#X connect 1 0 0 0;
#X connect 2 0 1 0;
#X connect 4 0 34 0;
#X connect 5 0 4 1;
#X connect 6 0 4 2;
#X connect 9 0 4 3;
#X connect 11 0 36 0;
#X connect 12 0 11 1;
#X connect 13 0 11 2;
#X connect 16 0 11 3;
#X connect 18 0 36 0;
#X connect 19 0 36 0;
#X connect 22 0 0 0;
#X connect 25 0 36 4;
#X connect 25 0 36 5;
#X connect 25 0 36 6;
#X connect 30 0 36 0;
#X connect 34 0 35 0;
#X connect 35 0 51 0;
#X connect 37 0 34 1;
#X connect 38 0 34 2;
#X connect 39 0 34 3;
#X connect 40 0 34 4;
#X connect 41 0 36 1;
#X connect 41 0 36 2;
#X connect 41 0 36 3;
#X connect 46 0 47 1;
#X connect 47 0 4 0;
#X connect 48 0 49 0;
#X connect 49 0 50 0;
#X connect 50 0 48 1;
#X connect 50 0 16 0;
#X connect 50 0 13 0;
#X connect 50 0 12 0;
#X connect 51 0 11 0;
#X connect 51 1 48 0;
#X connect 59 0 47 0;
