#N canvas 513 75 599 683 12;
#X declare -lib ceammc;
#X declare -stdpath ofelia;
#X declare -stdpath ceammc;
#X declare -stdpath of;
#N canvas 763 102 435 125 INIT 0;
#X obj 5 9 declare -lib ceammc;
#X obj 5 52 declare -stdpath ofelia;
#X obj 5 30 declare -stdpath ceammc;
#X obj 5 73 declare -stdpath of;
#X text 149 8 charge librarie ceammc;
#X text 179 28 chemin dossier librairie ceammc;
#X text 177 50 chemin dossier librairie ofelia;
#X text 147 75 chemin dossier vers abstractions of;
#N canvas 658 257 222 189 drag&drop 0;
#X obj 12 10 r dnd-dropped;
#X obj 12 34 route -drop;
#X msg 12 94 msg \$1 \$2 \$3;
#X obj 12 130 s;
#X msg 115 98 symbol pd-\$1;
#X obj 115 74 canvas.top;
#X msg 115 53 @name?;
#X obj 115 31 delay 1;
#X obj 115 9 loadbang;
#X connect 0 0 1 0;
#X connect 1 0 2 0;
#X connect 2 0 3 0;
#X connect 4 0 3 1;
#X connect 5 0 4 0;
#X connect 6 0 5 0;
#X connect 7 0 6 0;
#X connect 8 0 7 0;
#X restore 5 95 pd drag&drop;
#X text 103 95 ajoute glissé/déposé de fichier vers message;
#X restore 420 33 pd INIT;
#X obj 61 185 of.ortho 1;
#X obj 61 318 of.plane 320 240;
#X obj 61 274 of.translate -160 120;
#X obj 61 213 of.color 255 0 0;
#X floatatom 207 230 5 0 0 0 - - -;
#X obj 61 352 of.translate 320 0;
#X obj 61 384 of.color 0 255 0;
#X obj 61 446 of.translate -320 -240;
#X obj 61 478 of.color 0 0 255;
#X obj 61 541 of.translate 320 0;
#X obj 61 572 of.color 255 255 0;
#X obj 61 416 of.plane -320 240;
#X obj 61 604 of.plane -320 -240;
#X obj 61 510 of.plane 320 -240;
#X obj 61 153 of.draw 2;
#X msg 61 105 0;
#X text 59 624 taille négatif = à l'envers;
#X obj 61 241 of.video;
#X obj 64 31 of.window 1 640 480;
#X text 212 30 Gestionnaire de fentere;
#X text 58 49 arguments: creation \, largeur \, hauteur;
#X msg 119 106 1;
#X text 144 184 -> sans perspective = pixel perfect!;
#X text 92 257 x;
#X text 152 257 y;
#X text 202 257 z;
#X floatatom 233 352 5 0 0 0 - - -;
#X msg 233 376 position \$1 0 0;
#X text 251 231 -> translate X est GLOBAL. Il va affecter toute la
chaîne à partir d'ici, f 29;
#X text 343 378 -> le message position est local \, il s'adresse uniquement
à ce "of.plane", f 29;
#X text 140 152 -> Calque chaîne vidéo (calques position2);
#X text 190 213 -> rouge;
#X text 54 83 masquer: / afficher;
#X connect 1 0 4 0;
#X connect 2 0 6 0;
#X connect 3 0 2 0;
#X connect 4 0 18 0;
#X connect 5 0 3 1;
#X connect 6 0 7 0;
#X connect 7 0 12 0;
#X connect 8 0 9 0;
#X connect 9 0 14 0;
#X connect 10 0 11 0;
#X connect 11 0 13 0;
#X connect 12 0 8 0;
#X connect 14 0 10 0;
#X connect 15 0 1 0;
#X connect 16 0 15 0;
#X connect 18 0 3 0;
#X connect 22 0 15 0;
#X connect 27 0 28 0;
#X connect 28 0 12 0;
