#N canvas 513 75 632 683 12;
#X declare -lib ofelia;
#X declare -path ../;
#X obj 61 185 of.ortho 1;
#X obj 61 318 of.plane 320 240;
#X obj 61 294 of.translate -160 120;
#X obj 61 213 of.color 255 0 0;
#X floatatom 161 251 5 0 0 0 - - -;
#X obj 61 352 of.translate 320 0;
#X obj 61 384 of.color 0 255 0;
#X obj 61 446 of.translate -320 -240;
#X obj 61 478 of.color 0 0 255;
#X obj 61 541 of.translate 320 0;
#X obj 61 572 of.color 255 255 0;
#X obj 61 416 of.plane -320 240;
#X obj 61 604 of.plane -320 -240;
#X obj 61 510 of.plane 320 -240;
#X obj 61 153 of.draw 2;
#X msg 61 105 0;
#X obj 61 241 of.video;
#X obj 64 31 of.window 1 640 480;
#X text 212 30 Gestionnaire de fentere;
#X text 58 49 arguments: creation \, largeur \, hauteur;
#X msg 119 106 1;
#X text 144 184 -> sans perspective = pixel perfect!;
#X text 92 277 x;
#X text 152 277 y;
#X text 202 277 z;
#X floatatom 233 352 5 0 0 0 - - -;
#X msg 233 376 position \$1 0 0;
#X text 215 249 -> translate X est GLOBAL. Il va affecter toute la
chaîne à partir d'ici, f 39;
#X text 140 152 -> Calque chaîne vidéo (calques position2);
#X text 190 213 -> rouge;
#X text 54 83 masquer: / afficher;
#X obj 9 -20 cnv 15 600 40 empty empty empty 20 12 0 14 -233017 -66577
0;
#X obj 472 -20 declare -lib ofelia;
#X text 347 354 -> le message position est LOCAL \, il s'adresse uniquement
à ce "of.plane", f 29;
#X text 59 624 taille négatif = inversé;
#X text 19 -11 Composition dans une seule chaîne d'affichage + Local/global
;
#X obj 472 1 declare -path ../;
#X connect 0 0 3 0;
#X connect 1 0 5 0;
#X connect 2 0 1 0;
#X connect 3 0 16 0;
#X connect 4 0 2 1;
#X connect 5 0 6 0;
#X connect 6 0 11 0;
#X connect 7 0 8 0;
#X connect 8 0 13 0;
#X connect 9 0 10 0;
#X connect 10 0 12 0;
#X connect 11 0 7 0;
#X connect 13 0 9 0;
#X connect 14 0 0 0;
#X connect 15 0 14 0;
#X connect 16 0 2 0;
#X connect 20 0 14 0;
#X connect 25 0 26 0;
#X connect 26 0 11 0;
