#N canvas 440 90 840 603 12;
#X declare -lib ofelia;
#X declare -path ../;
#X text 866 733 - Clic droit sur objet -> AIDE;
#X msg 36 105 autoclear 0;
#X msg 86 189 clear;
#X obj 36 75 loadbang;
#X obj 36 217 of.window 1 640 480 30 0;
#X obj 49 135 closebang;
#X msg 49 159 autoclear 1;
#X obj 24 258 cnv 15 450 250 empty empty empty 20 12 0 14 -191407 -66577
0;
#X obj 68 358 of.mouse;
#X obj 41 419 of.translate;
#X obj 68 380 unpack 0 0;
#X text 47 394 X;
#X text 154 396 Y;
#X obj 41 474 of.plane 100 100;
#X obj 41 298 of.draw 1;
#X text 227 445 -> importer une image (jpg \, png...);
#X text 235 465 argument: chemin relatif vers image (a partir du patch
.pd), f 33;
#X obj 507 258 cnv 15 250 250 empty empty empty 20 12 0 14 -191407
-66577 0;
#X obj 530 356 of.draw 2;
#X obj 530 445 of.rectangle 640 480;
#X obj 530 410 of.color 0 0 0 10;
#X text 662 408 opacité 10;
#X text 525 274 DEUXIEME TEMPS : carré noir repeint par dessus avec
une opacité 10, f 34;
#X obj 41 446 of.image ../data/part.png;
#X text 135 356 -> coordonnées souris XY dans l'image;
#X text 144 377 -> séparer la liste X et Y;
#X text 218 218 -> Gestionnaire de fenêtre globale;
#X text 25 274 PREMIER TEMPS : affchage image non effacée;
#X text 40 508 Note: plane possède des textures contrairement à [of.rectangle]
, f 65;
#X obj 9 10 cnv 15 600 60 empty empty empty 20 12 0 14 -233017 -66577
0;
#X text 36 27 Utilisation du mode autoclear 0 : laisser une trace de
ce que l'on dessine, f 79;
#X text 136 188 -> effacer manuellement l'image (nettoyer le buffer
d'affichage), f 67;
#X text 103 75 A l'ouverture du patch... désactiver autoclear (global):
ne pas effacer l'écran entre chaque rendu graphique, f 73;
#X text 126 134 A la fermeture du patch... remettre autoclear à 1
;
#X obj 620 20 declare -lib ofelia;
#X obj 41 331 of.ortho 1;
#X text 122 328 -> pas de perspective;
#X obj 621 41 declare -path ../;
#X connect 1 0 4 0;
#X connect 2 0 4 0;
#X connect 3 0 1 0;
#X connect 5 0 6 0;
#X connect 6 0 4 0;
#X connect 8 0 10 0;
#X connect 9 0 23 0;
#X connect 10 0 9 1;
#X connect 10 1 9 2;
#X connect 14 0 35 0;
#X connect 18 0 20 0;
#X connect 20 0 19 0;
#X connect 23 0 13 0;
#X connect 35 0 9 0;
