#N canvas 596 49 684 683 12;
#X declare -lib ofelia;
#X declare -path of;
#X obj 52 60 of.window 1 640 480;
#X obj 48 388 loadbang;
#X obj 54 201 boule;
#X obj 55 233 boule;
#X obj 102 201 boule;
#X obj 103 233 boule;
#X obj 150 200 boule;
#X obj 151 232 boule;
#X obj 44 690 metro 1000;
#X obj 44 746 send tempo;
#X obj 58 270 clone boule 10;
#X text 166 270 -> clone permet de dupliquer rapidement une abstraction!
;
#X text 48 355 On positionne un point de lumière (à la position caméra)
pour donner du volume:;
#X obj 42 817 receive tempo;
#X text 64 713 Demander une position aléatoire pour chaque boule;
#X text 200 59 -> gestionnaire de fenêtre;
#X text 200 238 Click en mode ACTION ouvre le programme boule!;
#X text 178 415 -> la lumière en un peu devant la sphere pour éclairer
la boule par devant, f 36;
#X obj 44 545 tgl 15 0 empty empty empty 17 7 0 10 -262144 -1 -1 0
1;
#X obj 44 714 bng 15 250 50 0 empty empty empty 17 7 0 10 -262144 -1
-1;
#X obj 42 841 bng 15 250 50 0 empty empty empty 17 7 0 10 -262144 -1
-1;
#X obj 74 644 send centre;
#X obj 44 512 of.keypress Space;
#X text 92 610 envoie l'orde de retourner au centre dans chaque boule
, f 37;
#X obj 74 588 select 0;
#X obj 74 616 bng 15 250 50 0 empty empty empty 17 7 0 10 -262144 -1
-1;
#X text 48 491 touche espace dans fenetre = activer / desactiver;
#X msg 48 414 position 0 0 300;
#X obj 9 0 cnv 15 600 40 empty empty empty 20 12 0 14 -233017 -66577
0;
#X text 44 764 envoie sans fil à "tempo" dans chaque boule;
#X obj 9 310 cnv 15 600 40 empty empty empty 20 12 0 14 -233017 -66577
0;
#X text 39 321 Lumière pour ajouter du relief avec des ombres;
#X text 64 838 -> on reçoit ici et dans chaque instance "boule.pd"
;
#X obj 48 447 of.pointlight 1;
#N canvas 871 178 307 187 Press_Space_bar_text_layer 0;
#X obj 30 30 of.draw;
#X obj 30 57 of.translate 0 -200 0;
#X obj 30 85 of.color 0 0 0;
#X obj 30 114 of.text Press\ Space\ bar\ here 20 center;
#X connect 0 0 1 0;
#X connect 1 0 2 0;
#X connect 2 0 3 0;
#X restore 201 512 pd Press_Space_bar_text_layer;
#X obj 473 0 declare -lib ofelia;
#X obj 474 21 declare -path of;
#X text 48 96 Ce patch Appelle l'abstractions "boule.pd" \, on dit
qu'on créer une "instance". Dans PureData cela s'appelle une ABSTRACTION.
, f 80;
#X text 48 147 Définitions du mot « instancier » en Programmation
informatique: fabriquer un exemplaire d'un élément à partir d'un
modèle qui lui sert de moule., f 80;
#X text 199 202 -> on cite plusieurs fois le programme "boule.pd" écrit
et placé à coté du patch parent., f 57;
#X text 51 10 Une piscine à boules, f 64;
#X connect 1 0 27 0;
#X connect 8 0 19 0;
#X connect 13 0 20 0;
#X connect 18 0 8 0;
#X connect 18 0 24 0;
#X connect 19 0 9 0;
#X connect 22 0 18 0;
#X connect 24 0 25 0;
#X connect 25 0 21 0;
#X connect 27 0 33 0;
