#N canvas 1 96 757 682 12;
#X declare -lib ofelia;
#X declare -path ../;
#X obj 27 194 of.draw;
#X text 53 291 demander un nombre entre -320 et 320;
#X obj 53 496 fade 1000;
#X obj 219 498 fade 1000;
#X obj 26 551 of.translate, f 35;
#X text 78 530 x;
#X text 222 528 y;
#X msg 86 451 0;
#X obj 388 273 r tempo;
#X text 466 270 -> Note: peut être résumé en "r" pour "receive":
, f 34;
#X text 128 450 -> retour à zero;
#X obj 86 417 r centre;
#X text 151 426 -> écoute tout ce qu'on lui envoie "sans fils" avec
le mot clé "centre";
#X text 31 8 Ce patch est une "ABSTRACTION" : un patch "enfant" destiné
à être appelé ou cité en tant qu'objet \, par un patch "parent"
qui s'appelle: 5-piscine.pd;
#X text 30 60 Si on modifie ce patch \, chaque occurence de ce programme
sera modifié dans 5-piscine.pd;
#X obj 53 311 receive tempo;
#X obj 219 312 receive tempo;
#X obj 387 221 s tempo;
#X obj 387 193 bng 15 250 50 0 empty empty empty 17 7 0 10 -262144
-1 -1;
#X obj 388 297 bng 15 250 50 0 empty empty empty 17 7 0 10 -262144
-1 -1;
#X obj 53 335 bng 15 250 50 0 empty empty empty 17 7 0 10 -262144 -1
-1;
#X obj 219 336 bng 15 250 50 0 empty empty empty 17 7 0 10 -262144
-1 -1;
#X obj 26 598 of.sphere 100 20;
#X obj 27 245 of.depth 1;
#X text 110 246 -> calculer la profondeur;
#X text 30 116 -> N'importe quel programme peut être cité en tant
qu'objet par un autre programme. Cela permet de réalser un programme
plus MODULAIRE.;
#X text 301 500 -> glisser vers la nouvelle position;
#X obj 53 367 expr random(-320 \, 320);
#X obj 219 369 expr random(-240 \, 240);
#X text 469 222 s ou send: envoie sans fil à travers le mot clé "tempo"
, f 29;
#X obj 597 8 declare -lib ofelia;
#X obj 598 29 declare -path ../;
#X connect 0 0 23 0;
#X connect 2 0 4 1;
#X connect 3 0 4 2;
#X connect 4 0 22 0;
#X connect 7 0 3 0;
#X connect 7 0 2 0;
#X connect 8 0 19 0;
#X connect 11 0 7 0;
#X connect 15 0 20 0;
#X connect 16 0 21 0;
#X connect 18 0 17 0;
#X connect 20 0 27 0;
#X connect 21 0 28 0;
#X connect 23 0 4 0;
#X connect 27 0 2 0;
#X connect 28 0 3 0;
