#N canvas 547 74 632 704 12;
#X declare -lib ceammc;
#X declare -stdpath ofelia;
#X declare -stdpath ceammc;
#X declare -stdpath of;
#X obj 9 10 cnv 15 600 60 empty empty empty 20 12 0 14 -233017 -66577
0;
#X obj 27 89 of.draw;
#X obj 518 19 of.window 1;
#X obj 497 21 tgl 15 0 empty empty empty 17 7 0 10 -262144 -1 -1 0
1;
#X msg 94 232 add;
#X msg 227 319 reset;
#X msg 226 211 position \$1 \$2 0;
#X obj 226 123 of.mouse;
#X text 276 319 reset all;
#X msg 226 294 acceleration 0 0.1 0;
#X msg 226 270 velocity 2 0 0;
#X obj 226 183 spigot, f 8;
#X text 294 123 follow mouse example (click drag on window);
#X text 222 250 parameters for next particles generated in the system:
;
#X text 337 268 velocity x \, y \, z (defaut 1 \, 1 \, 1);
#X text 377 295 acceleration x \, y \, z (defaut 0 \, 0 \, 0);
#X obj 70 563 text get mytext;
#X obj 157 449 text size mytext;
#X obj 28 624 of.text, f 12;
#X msg 70 589 text \$1;
#X obj 70 425 i;
#X obj 70 449 + 1;
#X obj 70 474 mod, f 9;
#X obj 27 396 t b b b b, f 19;
#X obj 70 499 mod 3, f 13;
#X obj 364 449 text define -k mytext;
#A set ceci \; n'est \; pas \; un \; patch \; pure \; data \;;
#X obj 41 153 of.mouse;
#X obj 94 186 select 1;
#X obj 94 210 bng 15 250 50 0 empty empty empty 17 7 0 10 -262144 -1
-1;
#X text 104 165 click;
#N canvas 763 102 435 125 INIT 0;
#X obj 5 9 declare -lib ceammc;
#X obj 5 52 declare -stdpath ofelia;
#X obj 5 30 declare -stdpath ceammc;
#X obj 5 73 declare -stdpath of;
#X text 149 8 charge librarie ceammc;
#X text 179 28 chemin dossier librairie ceammc;
#X text 177 50 chemin dossier librairie ofelia;
#X text 147 75 chemin dossier vers abstractions of;
#N canvas 658 257 222 189 drag&drop 0;
#X obj 12 10 r dnd-dropped;
#X obj 12 34 route -drop;
#X msg 12 94 msg \$1 \$2 \$3;
#X obj 12 130 s;
#X msg 115 98 symbol pd-\$1;
#X obj 115 74 canvas.top;
#X msg 115 53 @name?;
#X obj 115 31 delay 1;
#X obj 115 9 loadbang;
#X connect 0 0 1 0;
#X connect 1 0 2 0;
#X connect 2 0 3 0;
#X connect 4 0 3 1;
#X connect 5 0 4 0;
#X connect 6 0 5 0;
#X connect 7 0 6 0;
#X connect 8 0 7 0;
#X restore 5 95 pd drag&drop;
#X text 103 95 ajoute glissé/déposé de fichier vers message;
#X restore 546 44 pd INIT;
#X floatatom 129 370 5 0 0 0 - - -;
#X text 172 370 -> nb of living particles in the system;
#X text 399 416 -> Clic to edit text;
#X msg 364 417 click;
#X text 357 469 text storage;
#X text 133 590 -> change text of current render;
#X floatatom 157 473 5 0 0 0 - - -;
#X text 192 472 -> how many lines?;
#X text 26 27 Click on screen to generate a text particle, f 64;
#X text 41 450 id;
#X floatatom 70 534 5 0 0 0 - - -;
#X text 107 533 read line of text;
#X obj 27 342 of.particle, f 15;
#X obj 279 155 tgl 15 0 empty empty empty 17 7 0 10 -262144 -1 -1 0
1;
#X text 301 153 click open the gate;
#X text 204 149 x \, y;
#X obj 136 267 dac~;
#X obj 136 231 click~;
#X text 139 209 sound;
#X obj 446 606 s pd;
#X msg 446 578 dsp 1;
#X obj 446 545 loadbang;
#X text 495 579 Turn Audio On;
#X obj 27 115 of.ortho 1;
#X connect 1 0 54 0;
#X connect 3 0 2 0;
#X connect 4 0 43 0;
#X connect 5 0 43 0;
#X connect 6 0 43 0;
#X connect 7 0 11 0;
#X connect 7 1 44 0;
#X connect 9 0 43 0;
#X connect 10 0 43 0;
#X connect 11 0 6 0;
#X connect 16 0 19 0;
#X connect 17 0 37 0;
#X connect 19 0 18 0;
#X connect 20 0 21 0;
#X connect 21 0 20 1;
#X connect 21 0 22 0;
#X connect 22 0 24 0;
#X connect 23 0 18 0;
#X connect 23 1 20 0;
#X connect 23 3 17 0;
#X connect 24 0 41 0;
#X connect 26 1 27 0;
#X connect 27 0 28 0;
#X connect 28 0 4 0;
#X connect 28 0 48 0;
#X connect 31 0 22 1;
#X connect 34 0 25 0;
#X connect 37 0 24 1;
#X connect 41 0 16 0;
#X connect 43 0 23 0;
#X connect 43 1 31 0;
#X connect 44 0 11 1;
#X connect 48 0 47 0;
#X connect 48 0 47 1;
#X connect 51 0 50 0;
#X connect 52 0 51 0;
#X connect 54 0 43 0;
