#N canvas 668 29 611 749 12;
#X declare -lib ceammc;
#X declare -stdpath ofelia;
#X declare -stdpath ceammc;
#X declare -stdpath of;
#X declare -lib ceammc;
#X declare -stdpath ofelia;
#X declare -stdpath ceammc;
#X declare -stdpath of;
#X obj 9 10 cnv 15 600 60 empty empty empty 20 12 0 14 -233017 -66577
0;
#X floatatom 87 578 5 0 0 0 - - -;
#X floatatom 432 466 5 0 0 0 - - -;
#X text 28 22 A Framebuffer object (texture container);
#X obj 29 495 of.rotate 0 45 0, f 22;
#X msg 119 261 autoclear \$1;
#X obj 119 241 tgl 15 0 empty empty empty 17 7 0 10 -262144 -1 -1 1
1;
#X text 36 463 -> Where to draw the texture;
#X text 97 350 -> what to draw into FBO;
#X obj 29 98 of.draw 2;
#X text 142 239 autoclear the buffer (default 1);
#X text 26 49 Arguments(4): width \, height \, autoclear-buffer (default
1);
#X obj 518 19 of.window 1;
#X obj 497 21 tgl 15 0 empty empty empty 17 7 0 10 -262144 -1 -1 1
1;
#N canvas 763 102 435 125 INIT 0;
#X obj 5 9 declare -lib ceammc;
#X obj 5 52 declare -stdpath ofelia;
#X obj 5 30 declare -stdpath ceammc;
#X obj 5 73 declare -stdpath of;
#X text 149 8 charge librarie ceammc;
#X text 179 28 chemin dossier librairie ceammc;
#X text 177 50 chemin dossier librairie ofelia;
#X text 147 75 chemin dossier vers abstractions of;
#N canvas 658 257 222 189 drag&drop 0;
#X obj 12 10 r dnd-dropped;
#X obj 12 34 route -drop;
#X msg 12 94 msg \$1 \$2 \$3;
#X obj 12 130 s;
#X msg 115 98 symbol pd-\$1;
#X obj 115 74 canvas.top;
#X msg 115 53 @name?;
#X obj 115 31 delay 1;
#X obj 115 9 loadbang;
#X connect 0 0 1 0;
#X connect 1 0 2 0;
#X connect 2 0 3 0;
#X connect 4 0 3 1;
#X connect 5 0 4 0;
#X connect 6 0 5 0;
#X connect 7 0 6 0;
#X connect 8 0 7 0;
#X restore 5 95 pd drag&drop;
#X text 103 95 ajoute glissé/déposé de fichier vers message;
#X restore 1030 10 pd INIT;
#X obj 29 613 of.box 300 300 300 5 5 5;
#X obj 29 323 of.fbo 1024 1024 1;
#X obj 100 131 loadbang;
#X obj 90 393 of.iterate 1 20 1 0 50 0 10;
#X floatatom 289 332 5 0 0 0 - - -;
#X msg 289 356 rotatey \$1;
#X text 130 577 size box XYZ;
#X text 285 312 rotate iteration;
#N canvas 763 102 435 125 INIT 0;
#X obj 5 9 declare -lib ceammc;
#X obj 5 52 declare -stdpath ofelia;
#X obj 5 30 declare -stdpath ceammc;
#X obj 5 73 declare -stdpath of;
#X text 149 8 charge librarie ceammc;
#X text 179 28 chemin dossier librairie ceammc;
#X text 177 50 chemin dossier librairie ofelia;
#X text 147 75 chemin dossier vers abstractions of;
#N canvas 658 257 222 189 drag&drop 0;
#X obj 12 10 r dnd-dropped;
#X obj 12 34 route -drop;
#X msg 12 94 msg \$1 \$2 \$3;
#X obj 12 130 s;
#X msg 115 98 symbol pd-\$1;
#X obj 115 74 canvas.top;
#X msg 115 53 @name?;
#X obj 115 31 delay 1;
#X obj 115 9 loadbang;
#X connect 0 0 1 0;
#X connect 1 0 2 0;
#X connect 2 0 3 0;
#X connect 4 0 3 1;
#X connect 5 0 4 0;
#X connect 6 0 5 0;
#X connect 7 0 6 0;
#X connect 8 0 7 0;
#X restore 5 95 pd drag&drop;
#X text 103 95 ajoute glissé/déposé de fichier vers message;
#X restore 546 44 pd INIT;
#X obj 467 434 + 0.1;
#X obj 432 434 f;
#X obj 432 407 metro 40;
#X obj 432 384 tgl 15 0 empty empty empty 17 7 0 10 -262144 -1 -1 1
1;
#X obj 432 361 loadbang;
#X text 511 435 count slowly;
#X msg 109 180 color 255 0 0 50;
#X msg 100 157 color 255 255 255 0;
#X msg 45 547 texturemap 0 0 \$1 \$1;
#X floatatom 45 522 5 0 0 0 - - -;
#X text 87 520 -> change the texture mapping;
#X text 193 544 (default 0 0 1 1);
#N canvas 559 153 595 625 text_scrolling_SubPatch 0;
#X floatatom 205 223 5 0 0 0 - - -;
#X obj 205 169 % 100;
#X obj 37 126 of.scale 1 1 1;
#X floatatom 101 97 5 0 0 0 - - -;
#X obj 37 348 of.translate 100 0 0;
#X obj 205 201 - 400;
#X obj 146 497 unpack 0 0 0;
#X obj 302 167 * 4;
#X text 270 520 text length;
#X floatatom 227 521 5 0 0 0 - - -;
#X obj 227 543 send txt_length;
#X obj 302 133 receive txt_length;
#X obj 82 320 receive txt_length;
#X obj 37 288 of.repeat 4;
#X text 136 281 draw 4 times;
#X text 224 319 space text offset;
#X text 335 168 main offset;
#X obj 37 468 of.text, f 16;
#X msg 67 415 text Strange Day Strange Feelings\  \, get;
#X text 365 415 with space;
#X obj 67 380 loadbang;
#X obj 38 54 inlet;
#X obj 205 26 of.mouse;
#X obj 205 50 unpack 0 0;
#X obj 272 74 / 100;
#X obj 37 256 of.translate;
#X connect 0 0 25 1;
#X connect 1 0 5 0;
#X connect 2 0 25 0;
#X connect 3 0 2 1;
#X connect 3 0 2 2;
#X connect 3 0 2 3;
#X connect 4 0 17 0;
#X connect 5 0 0 0;
#X connect 6 2 9 0;
#X connect 7 0 5 1;
#X connect 9 0 10 0;
#X connect 11 0 1 1;
#X connect 11 0 7 0;
#X connect 12 0 4 1;
#X connect 13 0 4 0;
#X connect 17 1 6 0;
#X connect 18 0 17 0;
#X connect 20 0 18 0;
#X connect 21 0 2 0;
#X connect 22 0 23 0;
#X connect 23 0 1 0;
#X connect 23 1 24 0;
#X connect 24 0 3 0;
#X connect 25 0 13 0;
#X restore 90 419 pd text_scrolling_SubPatch;
#X text 246 158 -> fill whith opacity 0 (transparent);
#X text 234 180 -> fill red opacity 50;
#X obj 119 214 loadbang;
#X text 475 467 to rotationY;
#X connect 1 0 15 1;
#X connect 1 0 15 2;
#X connect 1 0 15 3;
#X connect 2 0 4 2;
#X connect 4 0 15 0;
#X connect 5 0 16 0;
#X connect 6 0 5 0;
#X connect 9 0 16 0;
#X connect 13 0 12 0;
#X connect 16 0 4 0;
#X connect 16 1 18 0;
#X connect 17 0 31 0;
#X connect 18 0 36 0;
#X connect 19 0 20 0;
#X connect 20 0 18 0;
#X connect 24 0 25 1;
#X connect 25 0 2 0;
#X connect 25 0 24 0;
#X connect 26 0 25 0;
#X connect 27 0 26 0;
#X connect 28 0 27 0;
#X connect 30 0 16 0;
#X connect 31 0 16 0;
#X connect 32 0 15 0;
#X connect 33 0 32 0;
#X connect 39 0 6 0;
