#N canvas 432 118 680 567 12;
#X declare -lib ofelia;
#X declare -path ../;
#X obj 9 10 cnv 15 600 60 empty empty empty 20 12 0 14 -233017 -66577
0;
#X obj 222 89 of.draw;
#X obj 286 156 openpanel;
#X obj 286 134 bng 15 250 50 0 empty empty empty 17 7 0 10 -262144
-1 -1;
#X text 308 134 open file...;
#X text 442 292 <- get infos as list;
#X text 222 521 draw video on a plane;
#X obj 44 215 of.window 1 640 360;
#X obj 222 356 of.ortho 1;
#X text 228 327 no perspective;
#X text 228 307 ortho =;
#X obj 286 381 receive windows_size;
#X floatatom 476 358 5 0 0 0 - - -;
#X obj 286 405 unpack;
#X floatatom 286 429 5 0 0 0 - - -;
#X obj 350 469 /;
#X text 516 357 ratio;
#X obj 44 249 send windows_size;
#X msg 44 179 fullscreen \$1;
#X obj 44 151 tgl 15 0 empty empty empty 17 7 0 10 -262144 -1 -1 0
1;
#X msg 285 108 open ../data/video.mp4 \, get;
#X obj 44 122 of.keypress Esc;
#X obj 222 494 of.plane, f 37;
#X obj 287 212 of.keypress Space;
#X obj 287 236 tgl 15 0 empty empty empty 17 7 0 10 -262144 -1 -1 0
1;
#X obj 285 83 loadbang;
#X obj 222 275 of.movie, f 31;
#X text 63 148 1/ Toggle fullscreen;
#X text 28 25 A simple movie player with matching ratio with any screen
size, f 69;
#X text 28 45 Use Space key in window to play/stop and Escape to fulscreen
and exit, f 69;
#X text 483 107 open and GET ratio;
#X obj 436 320 list split 6;
#X msg 286 185 open \$1 \, get;
#N canvas 645 193 466 287 Press_ESCAPE_SPACE 0;
#X obj 30 30 of.draw;
#X obj 30 114 of.text press\ ESC\ for\ fullscreen\ /\ windowed 20 center
;
#X obj 30 164 of.text press\ SPACE\ to\ play\ /\ stop 20 center;
#X obj 30 57 of.translate 0 -180 0;
#X obj 30 138 of.translate 0 -40 0;
#X connect 0 0 3 0;
#X connect 1 0 4 0;
#X connect 3 0 1 0;
#X connect 4 0 2 0;
#X restore 38 486 pd Press_ESCAPE_SPACE;
#X obj 8 96 loadbang;
#X obj 525 23 declare -lib ofelia;
#X obj 526 44 declare -path ../;
#X connect 1 0 26 0;
#X connect 2 0 32 0;
#X connect 3 0 2 0;
#X connect 7 0 17 0;
#X connect 8 0 22 0;
#X connect 11 0 13 0;
#X connect 12 0 15 1;
#X connect 13 0 14 0;
#X connect 14 0 15 0;
#X connect 14 0 22 1;
#X connect 15 0 22 2;
#X connect 18 0 7 0;
#X connect 19 0 18 0;
#X connect 20 0 26 0;
#X connect 21 0 19 0;
#X connect 23 0 24 0;
#X connect 24 0 26 0;
#X connect 25 0 20 0;
#X connect 26 0 8 0;
#X connect 26 1 31 0;
#X connect 31 1 12 0;
#X connect 32 0 26 0;
#X connect 34 0 19 0;
