#N canvas 432 118 680 567 12;
#X declare -lib ceammc;
#X declare -stdpath ofelia;
#X declare -stdpath ceammc;
#X declare -stdpath of;
#X obj 9 10 cnv 15 600 60 empty empty empty 20 12 0 14 -233017 -66577
0;
#X obj 222 89 of.draw;
#X obj 286 156 openpanel;
#X obj 286 134 bng 15 250 50 0 empty empty empty 17 7 0 10 -262144
-1 -1;
#X text 308 134 open file...;
#X text 442 292 <- get infos as list;
#X text 222 521 draw video on a plane;
#X obj 44 195 of.window 1 640 360;
#X obj 222 356 of.ortho 1;
#X text 228 327 no perspective;
#X text 228 307 ortho =;
#X obj 286 381 receive windows_size;
#X floatatom 476 358 5 0 0 0 - - -;
#X obj 286 405 unpack;
#X floatatom 286 429 5 0 0 0 - - -;
#X obj 350 469 /;
#X text 516 357 ratio;
#X obj 44 229 send windows_size;
#X msg 44 159 fullscreen \$1;
#X obj 44 131 tgl 15 0 empty empty empty 17 7 0 10 -262144 -1 -1 0
1;
#N canvas 763 102 435 125 INIT 0;
#X obj 5 9 declare -lib ceammc;
#X obj 5 52 declare -stdpath ofelia;
#X obj 5 30 declare -stdpath ceammc;
#X obj 5 73 declare -stdpath of;
#X text 149 8 charge librarie ceammc;
#X text 179 28 chemin dossier librairie ceammc;
#X text 177 50 chemin dossier librairie ofelia;
#X text 147 75 chemin dossier vers abstractions of;
#N canvas 658 257 222 189 drag&drop 0;
#X obj 12 10 r dnd-dropped;
#X obj 12 34 route -drop;
#X msg 12 94 msg \$1 \$2 \$3;
#X obj 12 130 s;
#X msg 115 98 symbol pd-\$1;
#X obj 115 74 canvas.top;
#X msg 115 53 @name?;
#X obj 115 31 delay 1;
#X obj 115 9 loadbang;
#X connect 0 0 1 0;
#X connect 1 0 2 0;
#X connect 2 0 3 0;
#X connect 4 0 3 1;
#X connect 5 0 4 0;
#X connect 6 0 5 0;
#X connect 7 0 6 0;
#X connect 8 0 7 0;
#X restore 5 95 pd drag&drop;
#X text 103 95 ajoute glissé/déposé de fichier vers message;
#X restore 536 28 pd INIT;
#X msg 285 108 open ../data/video.mp4 \, get;
#X obj 44 102 of.keypress Esc;
#X obj 222 494 of.plane, f 37;
#X obj 287 212 of.keypress Space;
#X obj 287 236 tgl 15 0 empty empty empty 17 7 0 10 -262144 -1 -1 0
1;
#X obj 285 83 loadbang;
#X obj 222 275 of.movie, f 31;
#X text 63 128 1/ Toggle fullscreen;
#X text 28 25 A simple movie player with matching ratio with any screen
size, f 69;
#X text 28 45 Use Space key in window to play/stop and Escape to fulscreen
and exit, f 69;
#X text 483 107 open and GET ratio;
#X obj 436 320 list split 6;
#X msg 286 185 open \$1 \, get;
#X connect 1 0 27 0;
#X connect 2 0 33 0;
#X connect 3 0 2 0;
#X connect 7 0 17 0;
#X connect 8 0 23 0;
#X connect 11 0 13 0;
#X connect 12 0 15 1;
#X connect 13 0 14 0;
#X connect 14 0 15 0;
#X connect 14 0 23 1;
#X connect 15 0 23 2;
#X connect 18 0 7 0;
#X connect 19 0 18 0;
#X connect 21 0 27 0;
#X connect 22 0 19 0;
#X connect 24 0 25 0;
#X connect 25 0 27 0;
#X connect 26 0 21 0;
#X connect 27 0 8 0;
#X connect 27 1 32 0;
#X connect 32 1 12 0;
#X connect 33 0 27 0;
