#N canvas 612 110 626 603 12;
#X declare -lib ceammc;
#X declare -stdpath ofelia;
#X declare -stdpath ceammc;
#X declare -stdpath of;
#X obj 9 10 cnv 15 600 60 empty empty empty 20 12 0 14 -233017 -66577
0;
#X obj 17 86 of.draw;
#X floatatom 145 493 5 0 50 2 grid_size - -;
#X floatatom 273 492 5 0 0 1 noiseamount - -;
#X msg 43 444 draw line;
#X msg 43 465 draw point;
#X msg 43 423 draw fill;
#X text 60 406 style;
#X obj 518 19 of.window 1;
#X text 184 497 carefull!;
#X msg 148 439 mode \$1;
#X obj 148 413 hradio 15 1 0 8 empty empty empty 0 -8 0 10 -262144
-1 -1 0;
#X msg 40 312 time \$1;
#X floatatom 40 288 5 0 0 0 - - -;
#X obj 40 255 i;
#X obj 74 257 + 1;
#X text 145 392 Mesh Mode;
#X msg 43 487 stroke 5;
#N canvas 763 102 435 125 INIT 0;
#X obj 5 9 declare -lib ceammc;
#X obj 5 52 declare -stdpath ofelia;
#X obj 5 30 declare -stdpath ceammc;
#X obj 5 73 declare -stdpath of;
#X text 149 8 charge librarie ceammc;
#X text 179 28 chemin dossier librairie ceammc;
#X text 177 50 chemin dossier librairie ofelia;
#X text 147 75 chemin dossier vers abstractions of;
#N canvas 658 257 222 189 drag&drop 0;
#X obj 12 10 r dnd-dropped;
#X obj 12 34 route -drop;
#X msg 12 94 msg \$1 \$2 \$3;
#X obj 12 130 s;
#X msg 115 98 symbol pd-\$1;
#X obj 115 74 canvas.top;
#X msg 115 53 @name?;
#X obj 115 31 delay 1;
#X obj 115 9 loadbang;
#X connect 0 0 1 0;
#X connect 1 0 2 0;
#X connect 2 0 3 0;
#X connect 4 0 3 1;
#X connect 5 0 4 0;
#X connect 6 0 5 0;
#X connect 7 0 6 0;
#X connect 8 0 7 0;
#X restore 5 95 pd drag&drop;
#X text 103 95 ajoute glissé/déposé de fichier vers message;
#X restore 548 47 pd INIT;
#X obj 148 275 of.image ../data/part.png;
#X obj 17 118 of.fbo 512 512 1;
#X obj 17 521 of.noiseplane 25 10, f 37;
#X obj 148 163 of.video;
#X obj 148 194 of.plane 512 -512;
#X obj 148 301 of.plane 512 512;
#X obj 148 323 of.color 255 0 0;
#X obj 148 345 of.text this\ is\ me 50 center;
#X obj 17 170 of.scale -4 4 1;
#X text 229 246 -> blend video camera and png image;
#X floatatom 509 326 5 0 0 0 - - -;
#X obj 509 293 i;
#X obj 543 295 + 1;
#X obj 509 265 metro 40;
#X obj 509 236 tgl 15 0 empty empty empty 17 7 0 10 -262144 -1 -1 1
1;
#X text 526 233 animate;
#X obj 509 213 loadbang;
#X obj 509 389 sin;
#X floatatom 509 422 5 0 0 0 - - -;
#X obj 509 357 / 6.28;
#X obj 509 445 * 10;
#X obj 17 205 t a b b;
#X obj 305 156 vradio 15 1 1 6 empty empty empty 0 -8 0 10 -262144
-1 -1 1;
#X text 327 185 2: ADD;
#X text 327 200 3: SUBTRACT;
#X text 327 215 4: MULTIPLY;
#X text 327 230 5: SCREEN;
#X text 327 170 1: ALPHA(Default);
#X text 307 135 blending mode:;
#X text 327 154 0: OFF (no transparency);
#X obj 148 248 of.blend;
#X text 565 356 pi*2;
#X text 540 387 sinus;
#X text 25 30 Mix (blend) two images and a text on a framebuffer and
map them to a noiseplane, f 63;
#X text 143 116 pixel buffer size 512 * 512 \, colortype 1 = rgba (alpha)
;
#X connect 1 0 20 0;
#X connect 2 0 21 1;
#X connect 3 0 21 2;
#X connect 4 0 21 0;
#X connect 5 0 21 0;
#X connect 6 0 21 0;
#X connect 10 0 21 0;
#X connect 11 0 10 0;
#X connect 12 0 21 0;
#X connect 13 0 12 0;
#X connect 14 0 15 0;
#X connect 14 0 13 0;
#X connect 15 0 14 1;
#X connect 17 0 21 0;
#X connect 19 0 24 0;
#X connect 20 0 27 0;
#X connect 20 1 22 0;
#X connect 22 0 23 0;
#X connect 23 0 49 0;
#X connect 24 0 25 0;
#X connect 25 0 26 0;
#X connect 27 0 40 0;
#X connect 29 0 38 0;
#X connect 30 0 31 0;
#X connect 30 0 29 0;
#X connect 31 0 30 1;
#X connect 32 0 30 0;
#X connect 33 0 32 0;
#X connect 35 0 33 0;
#X connect 36 0 37 0;
#X connect 37 0 39 0;
#X connect 38 0 36 0;
#X connect 39 0 3 0;
#X connect 40 0 21 0;
#X connect 40 1 14 0;
#X connect 41 0 49 1;
#X connect 49 0 19 0;
