#N canvas 612 110 626 603 12;
#X declare -lib ofelia;
#X declare -path ../;
#X obj 9 10 cnv 15 600 60 empty empty empty 20 12 0 14 -233017 -66577
0;
#X obj 17 86 of.draw;
#X floatatom 145 493 5 0 50 2 grid_size - -;
#X floatatom 273 492 5 0 0 1 noiseamount - -;
#X msg 43 444 draw line;
#X msg 43 465 draw point;
#X msg 43 423 draw fill;
#X text 60 406 style;
#X obj 148 82 of.window 1;
#X text 184 497 carefull!;
#X msg 148 439 mode \$1;
#X obj 148 413 hradio 15 1 0 8 empty empty empty 0 -8 0 10 -262144
-1 -1 0;
#X msg 40 312 time \$1;
#X floatatom 40 288 5 0 0 0 - - -;
#X obj 40 255 i;
#X obj 74 257 + 1;
#X text 145 392 Mesh Mode;
#X msg 43 487 stroke 5;
#X obj 148 275 of.image ../data/part.png;
#X obj 17 118 of.fbo 512 512 1;
#X obj 17 521 of.noiseplane 25 10, f 37;
#X obj 148 170 of.video;
#X obj 148 201 of.plane 512 -512;
#X obj 148 301 of.plane 512 512;
#X obj 148 323 of.color 255 0 0;
#X obj 148 345 of.text this\ is\ me 50 center;
#X obj 17 170 of.scale -4 4 1;
#X text 229 246 -> blend video camera and png image;
#X floatatom 509 326 5 0 0 0 - - -;
#X obj 509 293 i;
#X obj 543 295 + 1;
#X obj 509 265 metro 40;
#X obj 509 236 tgl 15 0 empty empty empty 17 7 0 10 -262144 -1 -1 1
1;
#X text 526 233 animate;
#X obj 509 213 loadbang;
#X obj 509 389 sin;
#X floatatom 509 422 5 0 0 0 - - -;
#X obj 509 357 / 6.28;
#X obj 509 445 * 10;
#X obj 17 205 t a b b;
#X obj 305 156 vradio 15 1 1 6 empty empty empty 0 -8 0 10 -262144
-1 -1 1;
#X text 327 185 2: ADD;
#X text 327 200 3: SUBTRACT;
#X text 327 215 4: MULTIPLY;
#X text 327 230 5: SCREEN;
#X text 327 170 1: ALPHA(Default);
#X text 307 135 blending mode:;
#X text 327 154 0: OFF (no transparency);
#X obj 148 248 of.blend;
#X text 565 356 pi*2;
#X text 540 387 sinus;
#X text 25 30 Mix (blend) two images and a text on a framebuffer and
map them to a noiseplane, f 63;
#X text 143 116 pixel buffer size 512 * 512 \, colortype 1 = rgba (alpha)
;
#X obj 472 18 declare -lib ofelia;
#X obj 473 39 declare -path ../;
#X text 294 523 -> This is the final textured shape;
#X text 155 151 make texture;
#X text 22 146 use texture;
#X connect 1 0 19 0;
#X connect 2 0 20 1;
#X connect 3 0 20 2;
#X connect 4 0 20 0;
#X connect 5 0 20 0;
#X connect 6 0 20 0;
#X connect 10 0 20 0;
#X connect 11 0 10 0;
#X connect 12 0 20 0;
#X connect 13 0 12 0;
#X connect 14 0 15 0;
#X connect 14 0 13 0;
#X connect 15 0 14 1;
#X connect 17 0 20 0;
#X connect 18 0 23 0;
#X connect 19 0 26 0;
#X connect 19 1 21 0;
#X connect 21 0 22 0;
#X connect 22 0 48 0;
#X connect 23 0 24 0;
#X connect 24 0 25 0;
#X connect 26 0 39 0;
#X connect 28 0 37 0;
#X connect 29 0 30 0;
#X connect 29 0 28 0;
#X connect 30 0 29 1;
#X connect 31 0 29 0;
#X connect 32 0 31 0;
#X connect 34 0 32 0;
#X connect 35 0 36 0;
#X connect 36 0 38 0;
#X connect 37 0 35 0;
#X connect 38 0 3 0;
#X connect 39 0 20 0;
#X connect 39 1 14 0;
#X connect 40 0 48 1;
#X connect 48 0 18 0;
