#N canvas 570 221 552 528 12;
#X declare -lib ceammc;
#X declare -stdpath ofelia;
#X declare -stdpath ceammc;
#X declare -stdpath of;
#X obj 836 663 cnv 15 250 20 empty empty empty 20 12 0 14 -191407 -66577
0;
#X text 846 663 QUELS MESSAGES RECOIT UNE BOITE ??;
#X text 846 693 - Clic droit sur un objet -> AIDE;
#X floatatom 195 303 5 0 0 0 - - -;
#X obj 195 42 tgl 15 0 empty empty empty 17 7 0 10 -262144 -1 -1 1
1;
#X obj 195 88 f;
#X obj 195 212 * -1;
#X obj 243 88 + 1;
#X obj 195 62 metro 10;
#X text 215 41 start scrolling;
#X obj 37 94 of.draw;
#X obj 37 236 of.image tile.jpg;
#X obj 37 440 of.plane 100 100;
#X obj 37 346 of.translate 0 0 0;
#X obj 37 408 of.translate 100 0 0;
#X obj 195 249 % 100;
#X obj 195 14 loadbang;
#X obj 214 356 of.draw;
#X obj 214 428 of.plane 200 200 5 5;
#X obj 214 382 of.multiimage ../data/img/0.png 27;
#X obj 449 273 * -0.3;
#X floatatom 100 118 5 0 0 0 - - -;
#X obj 195 276 - 300;
#N canvas 763 102 435 125 INIT 0;
#X obj 5 9 declare -lib ceammc;
#X obj 5 52 declare -stdpath ofelia;
#X obj 5 30 declare -stdpath ceammc;
#X obj 5 73 declare -stdpath of;
#X text 149 8 charge librarie ceammc;
#X text 179 28 chemin dossier librairie ceammc;
#X text 177 50 chemin dossier librairie ofelia;
#X text 147 75 chemin dossier vers abstractions of;
#N canvas 658 257 222 189 drag&drop 0;
#X obj 12 10 r dnd-dropped;
#X obj 12 34 route -drop;
#X msg 12 94 msg \$1 \$2 \$3;
#X obj 12 130 s;
#X msg 115 98 symbol pd-\$1;
#X obj 115 74 canvas.top;
#X msg 115 53 @name?;
#X obj 115 31 delay 1;
#X obj 115 9 loadbang;
#X connect 0 0 1 0;
#X connect 1 0 2 0;
#X connect 2 0 3 0;
#X connect 4 0 3 1;
#X connect 5 0 4 0;
#X connect 6 0 5 0;
#X connect 7 0 6 0;
#X connect 8 0 7 0;
#X restore 5 95 pd drag&drop;
#X text 103 95 ajoute glissé/déposé de fichier vers message;
#X restore 434 37 pd INIT;
#X obj 37 165 of.scale 5 5 1;
#X obj 28 23 of.window 1 1280 640;
#X obj 214 405 of.translate 0 -80 0;
#X obj 37 378 of.repeat 4;
#X obj 250 111 of.mouse;
#X obj 250 135 unpack 0 0;
#X obj 195 164 +;
#X text 235 210 reverse direction;
#X floatatom 449 345 5 0 0 0 - - -;
#X obj 449 297 mod 27;
#X text 395 343 frames;
#X text 43 215 background image;
#X connect 3 0 13 1;
#X connect 4 0 8 0;
#X connect 5 0 7 0;
#X connect 5 0 30 0;
#X connect 6 0 20 0;
#X connect 6 0 15 0;
#X connect 7 0 5 1;
#X connect 8 0 5 0;
#X connect 10 0 24 0;
#X connect 11 0 13 0;
#X connect 13 0 27 0;
#X connect 14 0 12 0;
#X connect 15 0 22 0;
#X connect 16 0 4 0;
#X connect 17 0 19 0;
#X connect 19 0 26 0;
#X connect 20 0 33 0;
#X connect 21 0 24 1;
#X connect 21 0 24 2;
#X connect 21 0 24 3;
#X connect 22 0 3 0;
#X connect 24 0 11 0;
#X connect 26 0 18 0;
#X connect 27 0 14 0;
#X connect 28 0 29 0;
#X connect 29 0 30 1;
#X connect 30 0 6 0;
#X connect 32 0 19 1;
#X connect 33 0 32 0;
