#N canvas 570 221 552 528 12;
#X declare -lib ofelia;
#X declare -path ../;
#X obj 836 663 cnv 15 250 20 empty empty empty 20 12 0 14 -191407 -66577
0;
#X text 846 663 QUELS MESSAGES RECOIT UNE BOITE ??;
#X text 846 693 - Clic droit sur un objet -> AIDE;
#X floatatom 195 303 5 0 0 0 - - -;
#X obj 195 42 tgl 15 0 empty empty empty 17 7 0 10 -262144 -1 -1 1
1;
#X obj 195 88 f;
#X obj 195 212 * -1;
#X obj 243 88 + 1;
#X obj 195 62 metro 10;
#X text 215 41 start scrolling;
#X obj 7 94 of.draw;
#X obj 7 440 of.plane 100 100;
#X obj 7 346 of.translate 0 0 0;
#X obj 7 408 of.translate 100 0 0;
#X obj 195 249 % 100;
#X obj 195 14 loadbang;
#X obj 214 356 of.draw;
#X obj 214 428 of.plane 200 200 5 5;
#X obj 214 382 of.multiimage ../data/img/0.png 27;
#X obj 449 273 * -0.3;
#X floatatom 70 118 5 0 0 0 - - -;
#X obj 195 276 - 300;
#X obj 7 165 of.scale 5 5 1;
#X obj 8 23 of.window 1 1280 640;
#X obj 214 405 of.translate 0 -80 0;
#X obj 7 378 of.repeat 4;
#X obj 314 94 of.mouse;
#X obj 314 118 unpack 0 0;
#X obj 195 164 +;
#X text 235 210 reverse direction;
#X floatatom 449 345 5 0 0 0 - - -;
#X obj 449 297 mod 27;
#X text 395 343 frames;
#X text 13 215 background image;
#X text 380 140 y;
#X text 312 142 x;
#X obj 385 6 declare -lib ofelia;
#X obj 7 236 of.image ../data/tile.jpg;
#X obj 386 27 declare -path ../;
#X connect 3 0 12 1;
#X connect 4 0 8 0;
#X connect 5 0 7 0;
#X connect 5 0 28 0;
#X connect 6 0 19 0;
#X connect 6 0 14 0;
#X connect 7 0 5 1;
#X connect 8 0 5 0;
#X connect 10 0 22 0;
#X connect 12 0 25 0;
#X connect 13 0 11 0;
#X connect 14 0 21 0;
#X connect 15 0 4 0;
#X connect 16 0 18 0;
#X connect 18 0 24 0;
#X connect 19 0 31 0;
#X connect 20 0 22 1;
#X connect 20 0 22 2;
#X connect 20 0 22 3;
#X connect 21 0 3 0;
#X connect 22 0 37 0;
#X connect 24 0 17 0;
#X connect 25 0 13 0;
#X connect 26 0 27 0;
#X connect 27 0 28 1;
#X connect 28 0 6 0;
#X connect 30 0 18 1;
#X connect 31 0 30 0;
#X connect 37 0 12 0;
