#N canvas 570 101 637 659 12;
#X declare -lib ofelia;
#X declare -path of;
#X text 846 653 - Clic droit sur un objet -> AIDE;
#X floatatom 205 223 5 0 0 0 - - -;
#X obj 205 40 tgl 15 0 empty empty empty 17 7 0 10 -262144 -1 -1 1
1;
#X obj 205 86 f;
#X obj 205 142 * -1;
#X obj 253 86 + 1;
#X obj 205 60 metro 10;
#X text 225 39 start scrolling;
#X obj 37 256 of.translate 0 0 0;
#X obj 205 169 % 100;
#X obj 37 126 of.scale 1 1 1;
#X floatatom 101 97 5 0 0 0 - - -;
#X obj 37 348 of.translate 100 0 0;
#X obj 205 201 - 400;
#X obj 146 567 unpack 0 0 0;
#X obj 302 167 * 4;
#X text 270 590 text length;
#X floatatom 227 591 5 0 0 0 - - -;
#X obj 227 613 send txt_length;
#X obj 302 133 receive txt_length;
#X obj 82 320 receive txt_length;
#X text 224 319 space text offset;
#X text 335 168 main offset;
#X msg 66 413 text PleaSeBeHappy \, get;
#X floatatom 302 93 5 0 0 0 - - -;
#X text 345 94 speed and direction;
#X obj 205 16 loadbang;
#X obj 37 54 of.draw 1;
#X msg 80 461 text OBEY\ CONSUME\  \, get;
#X obj 409 287 bng 15 250 50 0 empty empty empty 17 7 0 10 -262144
-1 -1;
#X obj 409 307 random 3;
#X floatatom 409 331 5 0 0 0 - - -;
#X obj 409 354 select 0 1 2, f 23;
#X msg 104 509 text Que\ regardez-vous\ la? \, get;
#X obj 31 12 of.window 1 800 400;
#X obj 37 288 of.repeat 5;
#X obj 409 236 loadbang;
#X obj 409 260 metro 2000;
#X text 351 506 -> select 2;
#X text 263 461 -> select 1;
#X text 241 412 -> select 0;
#X obj 409 378 bng 15 250 50 0 empty empty empty 17 7 0 10 -262144
-1 -1;
#X obj 461 418 bng 15 250 50 0 empty empty empty 17 7 0 10 -262144
-1 -1;
#X obj 514 468 bng 15 250 50 0 empty empty empty 17 7 0 10 -262144
-1 -1;
#X obj 37 538 of.text ... 50, f 16;
#X text 129 288 draw 5 times;
#X obj 471 14 declare -lib ofelia;
#X obj 472 35 declare -path of;
#X connect 1 0 8 1;
#X connect 2 0 6 0;
#X connect 3 0 5 0;
#X connect 3 0 4 0;
#X connect 4 0 9 0;
#X connect 5 0 3 1;
#X connect 6 0 3 0;
#X connect 8 0 35 0;
#X connect 9 0 13 0;
#X connect 10 0 8 0;
#X connect 11 0 10 1;
#X connect 11 0 10 2;
#X connect 11 0 10 3;
#X connect 12 0 44 0;
#X connect 13 0 1 0;
#X connect 14 2 17 0;
#X connect 15 0 13 1;
#X connect 17 0 18 0;
#X connect 19 0 9 1;
#X connect 19 0 15 0;
#X connect 20 0 12 1;
#X connect 23 0 44 0;
#X connect 24 0 4 1;
#X connect 26 0 2 0;
#X connect 27 0 10 0;
#X connect 28 0 44 0;
#X connect 29 0 30 0;
#X connect 30 0 31 0;
#X connect 31 0 32 0;
#X connect 32 0 41 0;
#X connect 32 1 42 0;
#X connect 32 2 43 0;
#X connect 33 0 44 0;
#X connect 35 0 12 0;
#X connect 36 0 37 0;
#X connect 37 0 29 0;
#X connect 41 0 23 0;
#X connect 42 0 28 0;
#X connect 43 0 33 0;
#X connect 44 1 14 0;
