#N canvas 601 68 636 615 12;
#X declare -lib ofelia;
#X declare -path ../;
#X obj 9 10 cnv 15 600 60 empty empty empty 20 12 0 14 -233017 -66577
0;
#X floatatom 83 470 5 0 0 0 - - -;
#X msg 72 173 autoclear \$1;
#X obj 72 153 tgl 15 0 empty empty empty 17 7 0 10 -262144 -1 -1 0
1;
#X text 37 438 -> Where to draw the texture;
#X obj 29 94 of.draw 2;
#X obj 179 89 of.window 1;
#X text 158 274 -> width \, height \, type (1=RGBA);
#X obj 21 545 cnv 15 600 20 empty empty empty 20 12 0 14 -260097 -66577
0;
#X obj 276 328 adc~;
#X obj 29 276 of.fbo 512 512 1;
#X obj 74 212 loadbang;
#X obj 29 503 of.sphere 200 20;
#X obj 83 369 of.oscillo~ 1 1024 500 500 1;
#X obj 419 478 s pd;
#X msg 419 442 dsp 1;
#X obj 419 413 loadbang;
#X text 469 445 start audio;
#X text 317 326 -> micro input;
#X text 111 126 -> interactive view with mouse in of.window;
#X text 147 544 After screen rebuild \, might be unstable under MacOS
;
#X obj 29 127 of.view 1;
#X text 90 151 if desactivated leave all remanence effect (default
1);
#X text 152 506 -> The main sphere contain the soundwave;
#X text 297 371 -> create a soundwave;
#X text 17 29 Draw a sound oscilloscope as a texture in a sphere;
#X text 88 297 -> what to draw into the FBO (will be use as framebuffer
texture), f 69;
#X msg 74 240 color 255 255 255 10;
#X text 231 239 -> background color to white with 10% opacity;
#X obj 469 16 declare -lib ofelia;
#X obj 470 37 declare -path ../;
#X connect 1 0 12 1;
#X connect 1 0 12 2;
#X connect 2 0 10 0;
#X connect 3 0 2 0;
#X connect 5 0 21 0;
#X connect 9 0 13 1;
#X connect 9 1 13 1;
#X connect 10 0 12 0;
#X connect 10 1 13 0;
#X connect 11 0 27 0;
#X connect 15 0 14 0;
#X connect 16 0 15 0;
#X connect 21 0 10 0;
#X connect 27 0 10 0;
