#N canvas 601 68 636 615 12;
#X declare -lib ceammc;
#X declare -stdpath ofelia;
#X declare -stdpath ceammc;
#X declare -stdpath of;
#X obj 9 10 cnv 15 600 60 empty empty empty 20 12 0 14 -233017 -66577
0;
#X floatatom 83 470 5 0 0 0 - - -;
#X msg 72 173 autoclear \$1;
#X obj 72 153 tgl 15 0 empty empty empty 17 7 0 10 -262144 -1 -1 0
1;
#X text 37 438 -> Where to draw the texture;
#X obj 29 94 of.draw 2;
#X obj 518 19 of.window 1;
#X text 158 274 -> width \, height \, type (1=RGBA);
#X obj 21 545 cnv 15 600 20 empty empty empty 20 12 0 14 -260097 -66577
0;
#X obj 276 328 adc~;
#X obj 29 276 of.fbo 512 512 1;
#X obj 74 212 loadbang;
#N canvas 763 102 435 125 INIT 0;
#X obj 5 9 declare -lib ceammc;
#X obj 5 52 declare -stdpath ofelia;
#X obj 5 30 declare -stdpath ceammc;
#X obj 5 73 declare -stdpath of;
#X text 149 8 charge librarie ceammc;
#X text 179 28 chemin dossier librairie ceammc;
#X text 177 50 chemin dossier librairie ofelia;
#X text 147 75 chemin dossier vers abstractions of;
#N canvas 658 257 222 189 drag&drop 0;
#X obj 12 10 r dnd-dropped;
#X obj 12 34 route -drop;
#X msg 12 94 msg \$1 \$2 \$3;
#X obj 12 130 s;
#X msg 115 98 symbol pd-\$1;
#X obj 115 74 canvas.top;
#X msg 115 53 @name?;
#X obj 115 31 delay 1;
#X obj 115 9 loadbang;
#X connect 0 0 1 0;
#X connect 1 0 2 0;
#X connect 2 0 3 0;
#X connect 4 0 3 1;
#X connect 5 0 4 0;
#X connect 6 0 5 0;
#X connect 7 0 6 0;
#X connect 8 0 7 0;
#X restore 5 95 pd drag&drop;
#X text 103 95 ajoute glissé/déposé de fichier vers message;
#X restore 547 44 pd INIT;
#X obj 29 503 of.sphere 200 20;
#X obj 83 369 of.oscillo~ 1 1024 500 500 1;
#X obj 419 478 s pd;
#X msg 419 442 dsp 1;
#X obj 419 413 loadbang;
#X text 469 445 start audio;
#X text 317 326 -> micro input;
#X text 111 126 -> interactive view with mouse in of.window;
#X text 147 544 After screen rebuild \, might be unstable under MacOS
;
#X obj 29 127 of.view 1;
#X text 90 151 if desactivated leave all remanence effect (default
1);
#X text 152 506 -> The main sphere contain the soundwave;
#X text 297 371 -> create a soundwave;
#X text 17 29 Draw a sound oscilloscope as a texture in a sphere;
#X text 88 297 -> what to draw into the FBO (will be use as framebuffer
texture), f 69;
#X msg 74 240 color 255 255 255 10;
#X text 231 239 -> background color to white with 10% opacity;
#X connect 1 0 13 1;
#X connect 1 0 13 2;
#X connect 2 0 10 0;
#X connect 3 0 2 0;
#X connect 5 0 22 0;
#X connect 9 0 14 1;
#X connect 9 1 14 1;
#X connect 10 0 13 0;
#X connect 10 1 14 0;
#X connect 11 0 28 0;
#X connect 16 0 15 0;
#X connect 17 0 16 0;
#X connect 22 0 10 0;
#X connect 28 0 10 0;
